<?xml version="1.0" encoding="UTF-8" standalone="no"?>
<!-- Created with Inkscape (http://www.inkscape.org/) -->

<svg
   width="208.43294mm"
   height="209.52501mm"
   viewBox="0 0 208.43294 209.52501"
   version="1.1"
   id="svg1"
   xml:space="preserve"
   xmlns:xlink="http://www.w3.org/1999/xlink"
   xmlns="http://www.w3.org/2000/svg"
   xmlns:svg="http://www.w3.org/2000/svg"><defs
     id="defs1" /><g
     id="layer1"
     transform="translate(-0.55878074,-42.225379)"><image
       width="317.5"
       height="282.22223"
       preserveAspectRatio="none"
       xlink:href="images/image1.jpg"
       id="image1"
       x="-53.925293"
       y="7.3613396"
       style="display:none" /><path
       style="fill:#000000"
       d="M 96.181651,251.60118 C 67.200494,250.46309 39.642145,242.21306 15.746455,227.52163 11.531766,224.93037 4.5901563,220.17567 1.9244778,218.05417 1.1897393,217.46942 1.1345906,217.02504 0.75381642,208.62107 0.08215044,193.7969 1.1576593,178.17736 3.7891912,164.53853 12.830913,117.67666 39.805769,79.316751 81.185174,54.476674 86.658091,51.191279 99.162403,44.804366 103.26103,43.200836 l 2.49328,-0.975456 5.68211,2.6429 c 43.96297,20.448341 78.01139,59.8145 91.43964,105.72084 2.75159,9.40671 4.71879,19.75681 5.69934,29.98611 0.62306,6.49992 0.53219,20.60627 -0.17498,27.16389 -0.9479,8.7899 -0.60852,7.88744 -3.87922,10.31554 -7.72364,5.7339 -17.04278,11.33893 -26.84788,16.14775 -21.25455,10.42409 -42.73072,15.95953 -67.02778,17.27627 -6.00802,0.32559 -8.70954,0.34847 -14.463889,0.1225 z m 19.049999,-4.36253 c 26.48503,-2.23401 51.16056,-10.15233 73.55417,-23.60337 6.54893,-3.9337 14.02027,-9.06768 14.64455,-10.06307 1.47845,-2.35737 1.98814,-27.47839 0.75179,-37.05392 C 201.02704,152.0817 192.84797,129.90215 179.3345,109.13773 162.71309,83.597729 140.28791,63.676033 112.75129,49.987661 l -7.06647,-3.512722 -4.39881,1.984266 C 85.984595,55.361556 70.669542,65.189068 58.25804,76.069811 54.219162,79.610558 46.437859,87.522023 42.748926,91.838352 21.593518,116.59177 9.45389,145.49068 5.4730362,180.57523 4.8318233,186.22645 4.437701,203.86503 4.8010547,210.64915 l 0.2570348,4.79906 3.9340032,2.78951 c 23.8093333,16.88262 52.8094003,27.19447 81.8978923,29.12128 4.291976,0.2843 20.494115,0.20419 24.341665,-0.12035 z m -18.697221,-5.59561 c -0.388055,-0.16082 -0.903993,-0.218 -1.146528,-0.12708 -0.301828,0.11315 -0.440972,-0.2362 -0.440972,-1.10715 0,-1.44363 0.372452,-1.64739 0.886485,-0.48498 0.470862,1.06479 1.878322,1.73751 2.707147,1.29394 1.142352,-0.61137 0.728645,-1.57626 -1.212382,-2.82765 -1.413983,-0.91161 -1.8792,-1.43091 -1.96672,-2.19539 -0.189303,-1.65352 0.796801,-2.40147 3.006396,-2.28032 l 1.870745,0.10258 -0.0224,1.23676 c -0.0182,1.005 -0.0769,1.10225 -0.313311,0.51896 -0.692822,-1.70924 -2.908447,-2.1526 -3.125773,-0.62548 -0.08201,0.57628 0.187705,0.92395 1.058333,1.36418 2.654311,1.34215 3.390981,2.84018 2.138534,4.34868 -0.696138,0.83846 -2.380454,1.22185 -3.439584,0.78295 z m 7.311341,-0.39151 c -2.2272,-1.35793 -2.4463,-4.65143 -0.42931,-6.45376 1.0035,-0.89671 1.31247,-0.97754 3.3713,-0.88194 l 2.26654,0.10524 0.002,1.18383 0.002,1.18384 -1.02348,-1.09564 c -2.05688,-2.20189 -3.91541,-1.04743 -3.91541,2.43213 0,2.37999 0.6797,3.52778 2.0891,3.52778 0.54491,0 1.40903,-0.32902 1.92027,-0.73116 0.65867,-0.51811 0.92952,-0.59167 0.92952,-0.25245 0,0.66803 -1.84755,1.68943 -3.05304,1.68785 -0.55215,-7.3e-4 -1.5238,-0.3183 -2.15923,-0.70572 z m 6.88796,0.14385 c 0.66194,-0.30196 0.60464,-6.27831 -0.0666,-6.94957 -0.44162,-0.44162 -0.11575,-0.5394 2.5068,-0.75219 1.65793,-0.13452 3.06407,-0.19493 3.12476,-0.13424 0.0607,0.0607 0.22502,0.58628 0.36517,1.16797 l 0.25481,1.05761 -0.86624,-0.79375 c -0.51919,-0.47575 -1.31646,-0.79375 -1.99002,-0.79375 -1.09672,0 -1.12379,0.0382 -1.12379,1.5875 0,0.87312 0.1284,1.5875 0.28535,1.5875 0.4474,0 1.37799,-0.82772 1.58649,-1.41111 0.10402,-0.29105 0.20382,-0.0529 0.22179,0.52916 0.018,0.58209 0.11781,1.45521 0.22188,1.94028 l 0.18921,0.88194 -0.58984,-0.79375 c -0.32441,-0.43656 -0.90648,-0.79375 -1.2935,-0.79375 -0.55758,0 -0.65951,0.1648 -0.49096,0.79375 0.117,0.43657 0.21489,1.15094 0.21754,1.5875 0.008,1.26642 1.91613,1.08819 3.21294,-0.30004 l 1.02175,-1.09379 -0.22533,1.18199 c -0.12394,0.65009 -0.24222,1.20394 -0.26286,1.23078 -0.0206,0.0268 -1.54564,0.14382 -3.38891,0.25995 -1.84326,0.11614 -3.15295,0.12064 -2.91042,0.01 z m -24.429856,-0.40483 c -1.164167,-0.071 -2.267479,-0.27909 -2.451806,-0.46246 -0.211173,-0.21009 -0.127159,-0.33341 0.227132,-0.33341 0.45393,0 0.610327,-0.60718 0.811674,-3.15115 0.137173,-1.73313 0.144657,-3.32063 0.01663,-3.52777 -0.153545,-0.24845 0.387979,-0.37664 1.591019,-0.37664 1.772196,0 1.803708,0.0175 1.113891,0.61736 -0.568275,0.4942 -0.755691,1.23318 -0.93943,3.70417 l -0.22953,3.08681 h 1.26997 c 0.920177,0 1.508249,-0.25711 2.13507,-0.93346 0.876629,-0.9459 1.058622,-0.70656 0.642749,0.84526 -0.159231,0.59417 -0.446304,0.77698 -1.141711,0.72705 -0.510946,-0.0367 -1.881494,-0.12478 -3.04566,-0.19576 z m 32.591876,-0.20659 c 0.64332,-0.79072 0.24046,-5.78036 -0.53598,-6.63831 -0.48289,-0.53359 -0.42899,-0.60939 0.59287,-0.83383 1.03514,-0.22736 1.30548,-0.0695 3.41728,1.99507 l 2.29322,2.24196 -0.23374,-1.94028 c -0.14003,-1.16241 -0.46654,-2.11707 -0.81442,-2.38125 -0.49544,-0.37624 -0.37659,-0.44018 0.80966,-0.43557 0.92064,0.004 1.2275,0.10857 0.90831,0.31078 -0.38536,0.24413 -0.42956,1.03843 -0.2204,3.96081 l 0.26164,3.65543 -1.71988,-1.56725 c -0.94594,-0.86198 -1.95801,-1.81364 -2.24905,-2.1148 -0.29104,-0.30115 -0.83226,-0.78537 -1.20271,-1.07604 -0.65169,-0.51135 -0.66687,-0.45456 -0.46778,1.74969 0.14436,1.59826 0.39183,2.41423 0.82917,2.73403 0.58199,0.42555 0.57396,0.45583 -0.12073,0.45583 -0.40927,0 -1.03493,0.1091 -1.39034,0.24244 -0.57116,0.21428 -0.58941,0.17262 -0.15712,-0.35871 z m -38.765487,-0.58928 c -0.679098,-0.14295 -1.025741,-0.2808 -0.770318,-0.30634 0.290619,-0.0291 0.422633,-0.40791 0.352778,-1.0124 -0.09439,-0.81678 -0.318391,-0.99929 -1.450467,-1.18178 -1.092616,-0.17612 -1.405293,-0.0916 -1.700175,0.45935 -0.25594,0.47823 -0.238696,0.82293 0.05912,1.18177 0.330918,0.39874 0.31735,0.50134 -0.06371,0.48183 -0.667048,-0.0342 -1.995466,-0.62528 -1.474167,-0.65597 0.231611,-0.0136 1.324348,-1.6341 2.428305,-3.60103 1.347905,-2.40157 2.091623,-3.41547 2.264238,-3.0868 0.141375,0.26918 0.61034,1.8388 1.042144,3.48804 0.431805,1.64923 1.012995,3.35579 1.291533,3.79236 0.572605,0.89746 0.386453,0.93893 -1.979276,0.44097 z m -0.900845,-3.61597 c -0.529037,-1.72926 -0.755797,-1.84805 -1.346641,-0.70549 -0.594728,1.15008 -0.426121,1.41168 0.948342,1.47139 0.505251,0.0219 0.589667,-0.14038 0.398299,-0.7659 z m 48.306222,3.18979 c 0.62058,-0.47978 0.63472,-0.7065 0.22442,-3.59694 -0.36915,-2.60058 -0.55497,-3.12819 -1.18364,-3.36075 -0.5686,-0.21034 -0.25872,-0.33672 1.30459,-0.53204 1.12768,-0.14089 2.14279,-0.1637 2.25581,-0.0507 0.11301,0.11302 -0.0591,0.20549 -0.38248,0.20549 -0.69816,0 -0.69475,-0.0613 -0.19029,3.42517 0.21872,1.51164 0.6402,3.02625 0.93662,3.3658 0.49524,0.5673 0.46657,0.61736 -0.35358,0.61736 -0.49089,0 -1.4283,0.0987 -2.08315,0.21932 -1.09244,0.20124 -1.13601,0.1771 -0.5283,-0.29272 z m -56.644147,-3.61871 c -1.024412,-1.83663 -1.962419,-3.22569 -2.084461,-3.0868 -0.122043,0.13888 -0.388711,1.12565 -0.592596,2.1928 -0.316598,1.65709 -0.285027,2.03846 0.216312,2.61302 0.560425,0.64227 0.547066,0.66247 -0.29493,0.44579 -0.485069,-0.12482 -1.110724,-0.22912 -1.390343,-0.23177 -0.407057,-0.004 -0.393449,-0.0927 0.06827,-0.44579 0.765834,-0.58563 1.777232,-5.88977 1.245284,-6.53072 -0.528992,-0.6374 -0.205448,-0.82823 0.996614,-0.58782 0.847106,0.16942 1.283322,0.67485 2.429211,2.8146 0.817953,1.52739 1.49106,2.42955 1.624429,2.1772 0.55653,-1.05302 0.698857,-3.14745 0.251013,-3.69382 -0.406549,-0.49598 -0.356164,-0.53568 0.41997,-0.33085 0.485069,0.12801 1.031348,0.23492 1.213954,0.23756 0.182605,0.003 0.08181,0.20326 -0.22398,0.44579 -0.341199,0.27062 -0.788699,1.76975 -1.158367,3.88056 -0.331308,1.89177 -0.65985,3.43958 -0.730094,3.43958 -0.07024,0 -0.965872,-1.5027 -1.990283,-3.33933 z m 62.903537,2.39539 c -2.39984,-1.20681 -2.80293,-4.7062 -0.75479,-6.55259 0.87037,-0.78463 1.41238,-0.97013 2.83448,-0.97013 1.15825,0 1.76678,-0.1505 1.78312,-0.44098 0.0389,-0.69156 0.62826,0.87886 0.65596,1.74786 0.0248,0.77623 0.0232,0.77607 -0.84111,-0.0882 -0.93267,-0.93266 -2.58498,-1.15447 -3.29687,-0.44257 -0.53076,0.53076 -0.55025,3.34065 -0.0334,4.82313 0.68862,1.97538 2.13663,2.3092 3.83128,0.88325 1.38721,-1.16726 1.74549,-0.92287 0.44946,0.30659 -1.28423,1.21826 -3.0939,1.50512 -4.62808,0.73364 z m -73.856861,-2.07774 c -1.057163,-0.57361 -2.032906,-2.16815 -2.032906,-3.32213 0,-3.78264 4.650736,-5.63455 7.14375,-2.84463 1.661692,1.8596 1.083301,5.36642 -1.045043,6.33616 -1.160393,0.52871 -2.913831,0.45566 -4.065801,-0.1694 z m 2.533974,-0.14303 c 0.841372,-0.45028 1.78312,-2.85275 1.78312,-4.54886 0,-1.61783 -0.970932,-2.70424 -2.097302,-2.34674 -1.771584,0.56228 -2.985447,5.7445 -1.58537,6.76827 0.766198,0.56025 1.054522,0.57958 1.899552,0.12733 z m 83.261157,0.0324 c 0.44653,-0.30566 0.40612,-0.8068 -0.30193,-3.74381 -0.79914,-3.31489 -0.83427,-3.37975 -1.56705,-2.8932 -0.41228,0.27374 -0.84893,0.87726 -0.97034,1.34115 -0.21977,0.83966 -0.22197,0.83898 -0.49252,-0.15253 -0.14947,-0.54778 -0.13257,-1.11675 0.0376,-1.26438 0.32855,-0.28511 6.18189,-1.87653 6.30884,-1.71526 0.0411,0.0523 0.18844,0.56699 0.32729,1.14381 0.24392,1.01324 0.22973,1.02817 -0.41912,0.44097 -0.91394,-0.82711 -2.31189,-0.82065 -2.07472,0.01 0.097,0.33955 0.45001,1.64924 0.78449,2.91042 0.65102,2.45478 1.09564,3.28321 1.59611,2.9739 0.17204,-0.10632 0.31281,-0.10065 0.31281,0.0126 0,0.2696 -1.2759,0.74288 -2.82223,1.04688 -0.87088,0.17121 -1.0828,0.13875 -0.71918,-0.11015 z m -91.708593,-1.51324 c -1.383332,-0.39053 -2.175049,-0.96277 -1.214456,-0.87778 0.936571,0.0829 2.599617,-5.514 1.948313,-6.5569 -0.382905,-0.61313 -0.371372,-0.69154 0.07644,-0.5197 0.290058,0.11131 1.195415,0.40252 2.011903,0.64715 1.165321,0.34914 1.343889,0.49693 0.83047,0.68732 -0.955562,0.35435 -2.594238,6.24006 -1.865688,6.70108 0.43312,0.27407 0.429791,0.31643 -0.02309,0.29382 -0.291042,-0.0145 -1.084792,-0.18327 -1.763889,-0.37499 z m 97.984023,-0.17421 c 0.62202,-0.25098 0.5616,-0.75995 -0.4698,-3.95759 -0.5996,-1.85893 -1.11186,-2.86591 -1.49931,-2.94725 -0.70673,-0.14838 3.62076,-1.68096 4.74644,-1.68096 1.63772,0 2.47556,1.95095 1.3649,3.17821 -0.48391,0.53472 -0.37219,0.69692 1.23404,1.79167 0.97137,0.66205 1.76643,1.31018 1.7668,1.44028 3.8e-4,0.13011 -0.47365,0.34074 -1.0534,0.46807 -0.87732,0.19269 -1.32252,0.0116 -2.65479,-1.08014 -0.88039,-0.72141 -1.65215,-1.24954 -1.71502,-1.17362 -0.34896,0.42134 0.6148,2.50183 1.27146,2.74475 0.65848,0.24358 0.53295,0.35681 -0.9592,0.86524 -1.53114,0.52171 -3.14646,0.80099 -2.03212,0.35134 z m 2.91042,-5.88496 c 0,-1.13456 -0.80357,-2.09785 -1.61082,-1.93099 -0.74008,0.15297 -0.79101,0.90361 -0.17181,2.53224 0.31311,0.82355 0.46538,0.90583 1.07374,0.58025 0.39091,-0.20921 0.70889,-0.73918 0.70889,-1.1815 z m -106.706753,4.14435 c -0.771424,-0.28238 -1.565174,-0.69136 -1.763889,-0.90884 -0.250657,-0.27433 -0.2385,-0.32674 0.0397,-0.17116 0.22055,0.12334 0.550928,0.0276 0.734174,-0.21283 0.34398,-0.45126 2.220933,-5.52324 2.217914,-5.99334 -0.0032,-0.5046 -1.537122,-0.26148 -2.225667,0.35278 -0.670694,0.59834 -0.683919,0.59018 -0.4291,-0.26458 0.144608,-0.48507 0.364144,-0.99257 0.487857,-1.12778 0.192913,-0.21084 5.943114,1.61309 6.341517,2.01149 0.07797,0.078 0.03008,0.58572 -0.106421,1.12833 l -0.248183,0.98657 -0.48271,-1.14653 c -0.790214,-1.87691 -1.405823,-1.42994 -2.608542,1.89393 -0.848026,2.34363 -1.007474,3.15214 -0.695723,3.52778 0.476666,0.57434 0.522784,0.57712 -1.260926,-0.0758 z m 112.137063,-1.40599 c 0.11778,-0.30691 0.21414,-2.31945 0.21414,-4.4723 v -3.91428 l 2.9555,2.8848 c 1.62553,1.58664 3.16541,2.8848 3.42195,2.8848 0.74266,0 -0.0477,0.53902 -1.76427,1.20327 -1.39558,0.54003 -1.51059,0.54376 -1.08864,0.0353 0.397,-0.47836 0.38448,-0.65579 -0.079,-1.11927 -0.46266,-0.46265 -0.75415,-0.48367 -1.82178,-0.13132 -1.46859,0.48468 -1.782,1.70828 -0.52195,2.03779 0.7411,0.1938 0.74016,0.20079 -0.0882,0.66003 -1.12312,0.62264 -1.48531,0.60233 -1.22775,-0.0689 z m 2.24348,-3.2611 c 0.32252,-0.20478 0.15581,-0.55458 -0.61736,-1.29532 l -1.05921,-1.01479 v 1.30073 c 0,1.33 0.60137,1.69205 1.67657,1.00938 z M 41.324707,230.1215 c -0.873125,-0.47799 -1.27,-0.828 -0.881944,-0.77781 0.530151,0.0686 0.73249,-0.14147 0.8139,-0.84487 0.09278,-0.80165 -0.07714,-0.99735 -1.182795,-1.36225 -1.090156,-0.35978 -1.376878,-0.34038 -1.841929,0.12468 -0.477001,0.477 -0.483958,0.63135 -0.05193,1.15217 0.453277,0.54643 0.386745,0.54342 -0.7281,-0.0329 -1.100387,-0.56889 -1.154976,-0.66195 -0.529167,-0.9021 0.383788,-0.14727 1.332795,-0.93169 2.108906,-1.74316 0.776112,-0.81148 1.997262,-1.94427 2.713669,-2.51733 l 1.302557,-1.04192 0.108554,4.42389 c 0.05971,2.43313 0.02918,4.41642 -0.06783,4.4073 -0.09701,-0.009 -0.890764,-0.40767 -1.763889,-0.88565 z m 0,-4.45221 v -1.47261 l -0.881944,0.82854 c -0.48507,0.4557 -0.881945,0.93537 -0.881945,1.06592 0,0.18373 1.138601,0.88147 1.675695,1.02687 0.04851,0.0131 0.08819,-0.63879 0.08819,-1.44872 z m 127.328333,2.384 c 0.32846,-0.39577 0.1194,-1.08707 -1.0051,-3.32359 -0.83432,-1.65938 -1.67854,-2.87983 -2.04722,-2.95955 -0.44593,-0.0964 -0.17457,-0.35958 0.93817,-0.90975 1.55522,-0.76895 2.79632,-1.06756 1.78826,-0.43026 -0.44596,0.28194 -0.29761,0.79495 0.96757,3.34598 1.0122,2.04095 1.69429,3.01814 2.11422,3.02893 0.34253,0.009 -0.0904,0.39632 -0.96757,0.86601 -1.82421,0.97681 -2.38046,1.0957 -1.78833,0.38223 z M 90.537207,227.62328 C 68.267214,225.89768 48.313399,220.26097 35.23929,212.00229 l -2.38125,-1.50419 v -4.66477 c 0,-20.19158 6.033177,-45.02846 15.690372,-64.59282 7.029501,-14.24096 14.556842,-24.83534 25.205649,-35.47577 9.410696,-9.403303 19.688867,-16.97333 29.659539,-21.844697 l 2.29305,-1.120318 3.35139,1.838719 c 16.30857,8.947596 31.54776,23.400516 42.79561,40.587556 14.77228,22.57248 23.81734,50.07144 24.82502,75.47351 l 0.21755,5.48399 -2.43367,1.79479 c -7.45367,5.49692 -16.28835,9.90046 -26.78257,13.34941 -7.13847,2.34608 -17.43868,4.51091 -26.98027,5.67053 -4.53995,0.55176 -25.502218,0.98615 -30.162503,0.62505 z m 30.162503,-2.39442 c 21.7537,-2.75422 38.67135,-8.62483 51.76437,-17.96279 l 2.55187,-1.82 0.002,-2.64584 c 0.007,-9.2046 -2.33373,-23.73357 -5.67532,-35.22096 C 158.98497,131.9728 137.16386,102.6511 109.216,86.785267 c -1.75631,-0.997048 -3.40426,-1.812814 -3.6621,-1.812814 -0.7577,0 -7.981294,4.09008 -12.37099,7.004597 -10.557053,7.009302 -20.919371,16.73458 -28.997503,27.21485 -15.964913,20.71227 -26.329091,47.92515 -29.012791,76.17791 -0.302949,3.18931 -0.550817,7.67597 -0.550817,9.97035 v 4.17161 l 2.01897,1.29152 c 3.490017,2.23254 11.710161,5.9937 17.125172,7.8357 10.991735,3.73901 22.189254,5.94897 36.594747,7.2224 4.079037,0.36058 26.125342,-0.0991 30.338892,-0.63253 z M 94.417763,220.07561 C 82.47375,219.46569 70.169746,217.02709 58.787207,213.01378 52.006532,210.62302 41.135169,205.4 40.727301,204.33712 c -0.300999,-0.7844 0.54068,-11.15913 1.312418,-16.17716 3.575336,-23.24778 15.290747,-48.58657 31.424773,-67.96739 3.506247,-4.21184 10.862077,-11.56305 14.956048,-14.94665 3.630405,-3.00047 10.088522,-7.375377 14.01975,-9.497361 l 3.08364,-1.664475 2.91358,1.588796 c 12.11431,6.60601 24.46755,17.64536 34.01616,30.39818 12.46585,16.64902 21.26893,37.19905 24.62393,57.48245 1.1089,6.70407 1.59988,11.6547 1.59988,16.13165 v 3.51295 l -5.37986,2.59899 c -21.86392,10.56234 -45.5402,15.47033 -68.879857,14.27851 z m 21.343057,-2.45089 c 16.73913,-2.02622 31.67658,-6.3265 46.34754,-13.34279 l 4.89616,-2.34155 -0.23274,-4.24438 c -1.68531,-30.73463 -15.2497,-61.37638 -36.71813,-82.94572 -3.10738,-3.12198 -6.99915,-6.74557 -8.64839,-8.05242 -3.52682,-2.79464 -10.18501,-7.315218 -13.527,-9.184169 l -2.36018,-1.319886 -3.44988,1.953338 C 90.819499,104.51621 79.155758,115.25166 70.004917,127.65856 56.934306,145.37998 47.465668,167.1172 44.188613,186.92523 c -0.895669,5.41384 -1.452795,10.88402 -1.452795,14.26438 v 2.54796 l 5.027083,2.49226 c 13.278234,6.5829 27.24321,10.29162 44.714584,11.87498 2.801009,0.25384 20.180615,-0.10452 23.283335,-0.48009 z M 90.360818,211.723 c -12.047584,-2.09512 -21.937915,-4.57966 -33.155367,-8.32893 l -8.637311,-2.88689 0.102602,-1.5875 c 0.173616,-2.68625 1.472898,-10.17957 2.569092,-14.81667 2.197056,-9.29395 5.30863,-18.49063 8.748293,-25.85678 l 1.763483,-3.77655 h 16.068493 16.068493 v 5.46348 5.46349 l -12.242846,0.0928 -12.242846,0.0928 -1.667411,3.70416 c -0.917076,2.0373 -2.390092,5.85774 -3.273369,8.48989 -1.574687,4.69253 -4.264385,15.08685 -3.978057,15.37318 0.642592,0.64259 18.515525,5.24362 27.319112,7.03275 l 5.027084,1.02164 v 5.38433 c 0,5.99724 0.192133,5.59773 -2.469445,5.13487 z M 116.46637,182.89581 V 154.4627 l 16.45682,0.0917 16.45682,0.0917 0.87324,2.29305 c 3.35402,8.80741 6.78266,20.09367 8.1985,26.9875 0.60235,2.93291 1.75907,11.31168 1.75907,12.74197 0,0.21949 -1.15094,1.18835 -2.55764,2.15301 -9.05826,6.21184 -18.54743,9.14226 -39.86389,12.31068 l -1.32292,0.19664 z m 16.37608,14.45785 c 6.41937,-1.34269 9.93264,-2.59906 13.4111,-4.7959 2.24762,-1.41951 2.31556,-1.50553 2.31418,-2.93012 -0.005,-4.70866 -2.36705,-14.32091 -5.62812,-22.89894 l -0.77115,-2.02847 h -7.73577 -7.73576 v 16.93334 c 0,9.31333 0.0776,16.93333 0.17252,16.93333 0.0949,0 2.78274,-0.54596 5.973,-1.21324 z m -33.418586,8.74758 c -0.133981,-0.13398 -0.243601,-19.74339 -0.243601,-43.57647 0,-26.07447 -0.128988,-43.33287 -0.323866,-43.33287 -0.178126,0 -1.858073,1.62719 -3.733214,3.61597 -3.728788,3.95477 -8.368052,9.98299 -13.61595,17.69244 l -3.38553,4.97353 -6.227665,0.0963 c -3.425215,0.053 -6.227664,-0.0134 -6.227664,-0.1474 0,-0.45815 3.216127,-6.19275 5.185777,-9.24662 8.673981,-13.44872 22.159281,-27.42223 32.563639,-33.74254 l 2.14809,-1.3049 1.4825,0.97976 c 9.35555,6.18293 20.12762,17.04277 27.7931,28.01953 2.86595,4.10397 9.14356,14.64541 9.14356,15.35398 0,0.10057 -3.19324,0.13988 -7.09608,0.0874 l -7.09609,-0.0955 -2.02713,-4.58611 c -3.88984,-8.80021 -7.98565,-14.73554 -13.88267,-20.11771 l -2.52997,-2.30909 -0.17639,43.84535 -0.17639,43.84534 -5.66543,0.0966 c -3.11598,0.0531 -5.775045,-0.013 -5.909026,-0.14699 z m -65.858929,17.42469 c -0.249562,-1.79476 -0.571634,-3.48831 -0.715716,-3.76345 -0.38991,-0.74458 -2.527117,3.08884 -2.286708,4.10156 0.182569,0.76908 0.171332,0.77135 -0.874573,0.17639 -0.702306,-0.3995 -0.88191,-0.64112 -0.532719,-0.71666 0.720047,-0.15577 3.502247,-4.99177 3.424158,-5.95185 -0.06148,-0.75581 -0.03871,-0.76022 0.961494,-0.18618 0.803817,0.46133 1.068545,0.91298 1.229148,2.09706 0.112578,0.83001 0.304783,2.24144 0.42712,3.13653 l 0.222433,1.62743 1.028253,-1.65204 c 0.687078,-1.10389 0.952137,-1.89185 0.798851,-2.37481 -0.227058,-0.7154 -0.218169,-0.71615 0.870506,-0.0731 0.987584,0.58338 1.030826,0.67529 0.423439,0.89997 -0.372057,0.13764 -1.443969,1.53096 -2.382027,3.09627 -0.938057,1.56531 -1.803288,2.84602 -1.922734,2.84602 -0.119447,0 -0.421363,-1.46843 -0.670925,-3.26319 z m 139.494185,2.29335 c 0.32333,-1.01873 -2.59913,-5.93137 -3.4819,-5.85305 -0.53035,0.0471 -0.55488,-0.0163 -0.14966,-0.38657 1.49929,-1.36999 4.0576,-2.34108 2.8009,-1.06318 -0.41868,0.42575 2.4428,5.58251 3.17609,5.72373 0.887,0.17082 2.09123,-1.25484 2.10488,-2.49191 l 0.0125,-1.13279 0.50417,0.88195 c 0.77381,1.35364 0.65761,1.62311 -1.14653,2.65874 -0.92163,0.52905 -2.21005,1.28284 -2.86316,1.67509 l -1.18746,0.7132 z m 11.84614,-35.99585 c 0,-0.15224 -0.39687,-2.69515 -0.88194,-5.65091 -0.48507,-2.95575 -0.88195,-5.52994 -0.88195,-5.72042 0,-0.63333 0.62036,-0.35743 0.80778,0.35924 0.1016,0.38855 0.47672,0.70183 0.83489,0.69725 1.68212,-0.0215 11.16924,-1.76206 11.6134,-2.13068 0.27625,-0.22927 0.51233,-0.7546 0.52463,-1.1674 0.0217,-0.72931 0.0303,-0.73058 0.30202,-0.045 0.4281,1.08006 1.2052,6.52551 0.96545,6.76526 -0.11647,0.11647 -0.37102,-0.20713 -0.56568,-0.71911 -0.24114,-0.63426 -0.60961,-0.92823 -1.15639,-0.92257 -1.88467,0.0195 -11.34629,1.759 -11.57427,2.12789 -0.32749,0.52988 0.2324,2.97817 0.92161,4.03004 0.5127,0.78248 2.46782,1.94766 3.26809,1.94766 0.20176,0 0.46495,0.15875 0.58486,0.35278 0.13749,0.22245 -0.70189,0.35277 -2.27223,0.35277 -1.36965,0 -2.49027,-0.12456 -2.49027,-0.2768 z M 19.22607,181.29704 c -4.753144,-1.13346 -6.965559,-6.37208 -4.600668,-10.89359 0.784058,-1.49907 0.898344,-1.98482 0.562257,-2.38977 -0.232005,-0.27955 -0.326967,-0.60314 -0.211026,-0.71908 0.278583,-0.27858 4.82863,0.586 4.82863,0.91752 0,0.14134 -0.636544,0.4477 -1.414541,0.68079 -0.777997,0.2331 -1.968622,0.97789 -2.645833,1.6551 -1.655249,1.65525 -1.735715,3.6285 -0.206226,5.05726 2.146624,2.00525 8.371717,3.00634 10.405971,1.67345 2.018739,-1.32273 2.363843,-3.93906 0.8633,-6.54493 -0.423392,-0.73527 -0.563798,-1.32465 -0.363324,-1.52513 0.562957,-0.56295 1.942296,2.15379 2.107996,4.1519 0.456483,5.5046 -3.917206,9.22642 -9.326536,7.93648 z m 163.08589,-6.27806 c -0.29326,-1.30969 -0.63806,-3.01625 -0.76622,-3.79236 l -0.23303,-1.41111 0.82862,0.99278 0.82862,0.99277 5.57317,-1.24853 c 3.06525,-0.6867 5.7232,-1.34125 5.90655,-1.45457 0.18335,-0.11332 0.33337,-0.59354 0.33337,-1.06716 0,-0.47362 0.13704,-0.86112 0.30454,-0.86112 0.31508,0 1.87707,6.75542 1.62116,7.01134 -0.0793,0.0793 -0.44527,-0.22768 -0.81328,-0.68215 l -0.66911,-0.82632 -5.559,1.19999 c -5.63748,1.21694 -6.71693,1.70104 -6.41001,2.87473 0.0939,0.35913 0.0396,0.65296 -0.12072,0.65296 -0.16031,0 -0.53141,-1.07156 -0.82466,-2.38125 z m -2.11235,-8.97328 c -0.50881,-1.78235 -0.82708,-3.33016 -0.70726,-3.43958 0.11981,-0.10942 0.27806,-0.0402 0.35167,0.15383 0.50352,1.32734 0.75509,1.37667 2.1872,0.42895 l 1.41381,-0.93561 -0.62223,-2.21611 c -0.58246,-2.07447 -0.70378,-2.23673 -1.89801,-2.53859 -1.50386,-0.38013 -2.51178,0.20047 -2.17733,1.25423 0.11447,0.36066 0.0783,0.65575 -0.0804,0.65575 -0.24981,0 -2.2734,-5.49008 -2.8102,-7.62417 -0.13335,-0.53013 0.43226,-1.6169 1.96108,-3.76805 2.09726,-2.95099 2.59923,-4.03203 1.7075,-3.67729 -0.24253,0.0965 -1.15535,0.45559 -2.02847,0.79802 -2.03572,0.79839 -2.90809,1.55781 -2.70066,2.35101 0.0907,0.34699 0.0456,0.70464 -0.10022,0.79478 -0.24431,0.151 -2.84357,-5.94572 -2.84357,-6.66975 0,-0.17557 0.39375,0.0507 0.87499,0.50279 l 0.87498,0.82201 4.85766,-1.86012 c 5.93099,-2.27113 6.44515,-2.574 6.44515,-3.79653 0,-1.41821 0.45344,-0.66401 1.95617,3.25368 0.77866,2.03002 1.41678,4.37855 1.50301,5.53167 0.1336,1.78667 0.0516,2.10215 -0.75669,2.91041 -1.27778,1.27778 -3.5206,1.26868 -4.86543,-0.0198 l -0.96683,-0.92628 -2.13928,3.25795 c -1.1766,1.79187 -2.13928,3.37471 -2.13928,3.51744 0,0.14272 0.3059,0.53633 0.67979,0.87469 0.52674,0.47669 2.28734,0.78706 7.82023,1.37857 3.92725,0.41986 7.18105,0.92169 7.23067,1.11518 0.0496,0.19348 -2.4773,2.41709 -5.61537,4.94134 -3.84312,3.09139 -5.7424,4.84753 -5.81833,5.37986 -0.21256,1.4902 -0.6702,0.78685 -1.59431,-2.45033 z m 7.88065,-7.728 c 0,-0.24771 -4.63951,-0.73722 -4.86357,-0.51315 -0.1244,0.1244 0.0805,0.93851 0.83102,3.3023 0.0994,0.31315 0.77757,-0.0288 2.08987,-1.05368 1.06848,-0.83449 1.94268,-1.61545 1.94268,-1.73547 z m -1.9056,-12.70004 c 0.54403,-0.51109 0.84727,-1.19062 0.84727,-1.89864 0,-1.85927 -0.49907,-2.00851 -3.30921,-0.98957 -1.38139,0.50088 -2.64539,1.02842 -2.80889,1.17231 -0.33662,0.29625 0.17726,1.40168 1.06369,2.28811 0.79934,0.79934 3.07692,0.48957 4.20714,-0.57221 z M 22.625201,167.21339 c -0.486326,-0.15924 -1.359451,-0.53663 -1.940278,-0.83865 -4.229774,-2.19944 -4.958696,-8.32037 -1.428477,-11.99527 2.590011,-2.69616 7.470349,-2.715 10.430951,-0.0403 4.719716,4.26398 2.015709,12.53143 -4.256929,13.01547 -1.056571,0.0815 -2.318942,0.018 -2.805267,-0.14127 z m 7.535492,-4.08381 c 1.316524,-1.22012 1.300143,-3.23786 -0.03668,-4.51804 -1.291607,-1.23688 -3.70953,-2.27222 -6.229364,-2.66737 -3.75872,-0.58942 -5.994386,0.52311 -5.994386,2.98298 0,1.07009 0.241289,1.50673 1.373468,2.48542 1.697091,1.46702 4.951533,2.53608 7.800157,2.56229 1.812665,0.0167 2.30103,-0.11705 3.086805,-0.84528 z m 2.85495,-9.30627 c 0.122924,-0.3873 -0.04429,-0.86048 -0.417199,-1.18058 -0.798706,-0.6856 -9.584308,-3.96691 -10.451407,-3.90346 -0.36126,0.0264 -0.956573,0.31932 -1.322917,0.65085 -0.521551,0.472 -0.666458,0.49525 -0.667825,0.10715 -0.0036,-1.02277 1.24439,-3.92085 1.821402,-4.22966 0.329881,-0.17655 2.833534,-1.04366 5.563674,-1.92692 2.730141,-0.88326 4.963892,-1.65075 4.963892,-1.70553 0,-0.0548 -1.594171,-0.70334 -3.542603,-1.44123 l -3.542602,-1.34161 -0.801662,0.75312 c -0.440915,0.41422 -0.899717,0.75312 -1.019561,0.75312 -0.119843,0 0.128513,-0.95235 0.551904,-2.11635 0.776243,-2.13406 1.298968,-2.70531 1.298968,-1.41956 0,0.9806 0.84719,1.4235 7.151575,3.73869 3.060241,1.12383 5.512699,2.19746 5.449905,2.38584 -0.06279,0.18838 -3.16194,1.38837 -6.886992,2.66665 -3.725052,1.27827 -6.772821,2.41188 -6.772821,2.51912 0,0.21007 8.072649,3.17591 8.620318,3.16706 0.181523,-0.003 0.69746,-0.35051 1.146528,-0.77238 0.449068,-0.42188 0.816487,-0.59476 0.816487,-0.38417 0,0.75548 -1.515895,4.32622 -1.836621,4.32622 -0.180175,0 -0.235274,-0.29087 -0.122443,-0.64637 z m 6.31677,-16.37516 c 0.0517,-1.13951 0.01855,-1.16298 -5.416039,-3.8345 -3.007431,-1.47838 -5.592882,-2.57593 -5.745447,-2.43899 -0.152566,0.13693 -0.367778,0.80595 -0.478249,1.4867 -0.16941,1.04395 -0.0236,1.43963 0.931297,2.5272 0.622686,0.7092 0.961207,1.28945 0.75227,1.28945 -0.634026,0 -3.57376,-1.53008 -3.57376,-1.86008 0,-0.25867 4.856732,-10.75588 5.156714,-11.14558 0.163227,-0.21204 4.015508,1.47137 4.015508,1.75475 0,0.1435 -0.702007,0.23375 -1.560016,0.20054 -1.217222,-0.0471 -1.75985,0.12736 -2.469444,0.79399 -0.500186,0.4699 -0.909429,1.03864 -0.909429,1.26387 0,0.43383 10.218405,5.46473 11.099571,5.46473 0.2845,0 0.708206,-0.35676 0.941571,-0.79281 0.24933,-0.46588 0.483003,-0.6167 0.566655,-0.36574 0.164351,0.49305 -2.714678,6.803 -3.103995,6.803 -0.142573,0 -0.235816,-0.51594 -0.207207,-1.14653 z m 129.219547,-2.26741 c -1.67293,-3.36775 -1.9116,-4.48924 -0.6167,-2.89785 l 0.68652,0.84373 5.6723,-2.81341 c 3.11976,-1.54738 5.67229,-2.91479 5.67229,-3.0387 0,-0.12391 -0.4107,-0.63599 -0.91268,-1.13797 -0.70257,-0.70258 -1.33196,-0.93698 -2.73402,-1.01824 l -1.82135,-0.10557 1.89496,-0.99781 c 1.04224,-0.5488 2.01755,-0.8663 2.16736,-0.70556 0.14982,0.16074 1.47387,2.66451 2.94233,5.56393 1.80335,3.56064 2.56044,5.4036 2.33259,5.67814 -0.49885,0.60108 -3.13328,1.72175 -3.40609,1.44893 -0.1294,-0.1294 0.18972,-0.67886 0.70915,-1.22103 0.93023,-0.97095 1.13617,-1.95998 0.72635,-3.48841 -0.20008,-0.74622 -0.43462,-0.66411 -5.85303,2.04908 -5.57716,2.79269 -5.64275,2.83904 -5.49001,3.87971 0.28529,1.94383 -0.28445,1.35414 -1.96997,-2.03897 z M 44.017728,128.39277 c 0.236186,-1.18094 0.241629,-1.1768 -6.504868,-4.94373 l -3.988235,-2.22685 -0.862459,0.81024 c -0.474352,0.44563 -0.862459,0.64093 -0.862459,0.43401 0,-0.47507 3.09875,-6.008 3.505664,-6.25949 0.166197,-0.10271 0.27885,0.32076 0.25034,0.94105 -0.05036,1.09563 0.09409,1.21105 5.06344,4.04565 2.813403,1.60481 5.272573,2.86975 5.464823,2.81097 0.192249,-0.0588 0.645417,-0.61347 1.007041,-1.23265 0.855193,-1.4643 0.776996,-1.55283 -4.485405,-5.07842 -3.926845,-2.63082 -4.283848,-2.79626 -5.584919,-2.58821 l -1.389918,0.22225 0.633172,-1.07187 c 1.663721,-2.81646 1.557765,-2.76934 7.474874,-3.32401 2.976997,-0.27906 5.478888,-0.57355 5.559757,-0.65442 0.08087,-0.0809 -1.237444,-1.06839 -2.929585,-2.19449 -3.033007,-2.01842 -3.090566,-2.03944 -4.060452,-1.4828 -1.248069,0.71629 -1.234234,0.52027 0.111277,-1.57652 1.239766,-1.93201 1.71381,-2.14814 1.61714,-0.7373 -0.06002,0.87587 0.426582,1.30284 5.048862,4.43025 2.813403,1.90353 5.35208,3.59858 5.641506,3.76676 0.289425,0.16818 0.431681,0.40034 0.316123,0.51589 -0.115558,0.11556 -3.440096,0.52968 -7.387862,0.92027 -3.947767,0.39059 -7.239044,0.77145 -7.31395,0.84636 -0.07491,0.0749 1.5391,1.26019 3.58668,2.63397 3.566401,2.39279 4.859387,2.91276 5.333892,2.145 0.119916,-0.19403 0.382999,-0.35278 0.58463,-0.35278 0.20163,0 0.03108,0.51594 -0.379012,1.14653 -0.410088,0.63059 -1.735365,2.92803 -2.94506,5.10544 -1.209696,2.1774 -2.314541,3.96334 -2.455211,3.96875 -0.14067,0.005 -0.163092,-0.45353 -0.04983,-1.01985 z m 114.824882,-9.72393 c -1.769,-2.5888 -3.32065,-4.97866 -3.44811,-5.31082 -0.21469,-0.55947 -0.16128,-0.55775 0.7255,0.0233 l 0.95726,0.62722 4.93121,-3.31734 c 4.8512,-3.26353 4.92849,-3.33595 4.76395,-4.46388 -0.092,-0.63059 -0.0582,-1.14528 0.0752,-1.14376 0.13332,0.002 1.7879,2.28833 3.67683,5.08181 l 3.43443,5.07905 -1.70142,1.0918 c -2.11524,1.35734 -2.41562,1.37092 -1.48729,0.0672 0.40127,-0.56353 0.72958,-1.51918 0.72958,-2.12368 0,-0.99868 -1.30244,-3.58045 -2.0345,-4.03288 -0.43457,-0.26858 -4.66828,2.59881 -4.66828,3.16171 0,0.26147 0.40558,0.74115 0.90129,1.06596 0.72731,0.47655 1.1321,0.51971 2.09695,0.22359 2.06352,-0.63331 1.68317,-0.0422 -1.22626,1.90564 -3.18542,2.13265 -4.01664,2.37942 -2.68528,0.79719 1.00512,-1.19452 1.10699,-1.87259 0.457,-3.04183 -0.42914,-0.77196 -0.44319,-0.76767 -2.80972,0.85951 -1.30814,0.89944 -2.37843,1.86859 -2.37843,2.15365 0,0.70021 1.60812,2.76558 2.57198,3.30331 0.42868,0.23915 1.65254,0.52493 2.71969,0.63506 l 1.94028,0.20023 -1.41111,0.63511 c -3.12266,1.40544 -2.5865,1.70954 -6.13071,-3.47714 z M 55.260875,110.81343 c 0.52168,-1.27138 0.250147,-1.62035 -4.05839,-5.21589 -4.279378,-3.5712 -5.395652,-4.15221 -6.279445,-3.26842 -0.232833,0.23283 -0.423333,0.29329 -0.423333,0.13435 0,-0.27444 3.845883,-5.123101 6.451005,-8.133033 l 1.213216,-1.401739 1.3502,1.048961 c 0.74261,0.576928 1.513875,1.159391 1.713923,1.294362 0.70317,0.474425 -0.04292,0.635428 -1.152365,0.248675 -0.616971,-0.215078 -1.509618,-0.293705 -1.983659,-0.174728 -0.973425,0.244314 -3.358987,2.547618 -3.358987,3.243164 0,0.455616 3.698539,3.669428 4.222873,3.669428 0.152702,0 0.473433,-0.47268 0.712736,-1.05041 0.376682,-0.90939 0.339001,-1.213282 -0.280678,-2.263559 -0.393676,-0.667231 -0.63198,-1.29694 -0.529566,-1.399355 0.102414,-0.102414 1.450877,0.872409 2.996583,2.166275 1.545707,1.293869 2.625462,2.414119 2.399457,2.489459 -0.226005,0.0753 -0.587528,-0.0396 -0.803384,-0.2555 -0.658492,-0.65849 -2.550871,-0.4594 -3.2788,0.34496 -0.595153,0.65763 -0.608307,0.78168 -0.121584,1.14652 0.300174,0.22501 1.266917,1.00443 2.148317,1.73203 0.8814,0.7276 1.770522,1.32292 1.975825,1.32292 0.619943,0 2.155408,-2.06265 2.572306,-3.45548 0.308058,-1.02921 0.281051,-1.62653 -0.127058,-2.81019 -0.285049,-0.826739 -0.396753,-1.578267 -0.24823,-1.670059 0.255284,-0.157774 2.825092,2.869439 2.825092,3.327939 0,0.21173 -4.765066,6.156 -6.733758,8.40015 -1.110542,1.26593 -1.591465,1.4776 -1.202296,0.52917 z m 97.264395,-1.89548 c -0.97117,-0.48072 -2.45376,-1.85848 -4.14514,-3.85206 -2.63878,-3.11022 -3.30168,-4.28911 -1.9302,-3.43261 0.91224,0.56971 1.32583,0.31243 6.33537,-3.940973 3.70883,-3.149024 3.91238,-3.3906 3.71572,-4.409722 -0.20747,-1.075118 -0.204,-1.073669 1.22098,0.509312 5.10689,5.673123 6.13364,8.209103 4.64794,11.479873 -1.69161,3.72407 -6.26518,5.41799 -9.84467,3.64618 z m 2.57027,-2.0335 c 0.77611,-0.35765 2.14511,-1.30249 3.04221,-2.09964 2.78517,-2.47485 3.52613,-5.145656 1.93934,-6.990408 l -0.83929,-0.975728 -4.54057,3.811396 c -2.49732,2.09628 -4.64598,3.99612 -4.7748,4.22188 -0.45073,0.78988 1.71786,2.70493 3.04674,2.69053 0.39339,-0.004 1.35026,-0.30037 2.12637,-0.65803 z m -91.683026,-5.6208 c -0.124901,-0.20209 -0.06575,-0.46716 0.131439,-0.58903 1.015137,-0.62739 0.214321,-1.923242 -3.43959,-5.565822 -3.550819,-3.539809 -3.889325,-3.786345 -5.19883,-3.786345 h -1.400709 l 1.660499,-1.660499 1.660499,-1.660499 5.54241,0.597161 c 3.048325,0.328439 5.586901,0.55267 5.64128,0.498291 0.05438,-0.05438 -1.01151,-1.242752 -2.368641,-2.640829 -2.399032,-2.471414 -3.30647,-2.949431 -4.097458,-2.158443 -0.22391,0.223911 -0.467127,0.248231 -0.584425,0.05844 -0.237478,-0.384248 2.830709,-3.494557 3.141072,-3.184195 0.116802,0.116802 0.03513,0.54353 -0.181484,0.948284 -0.354807,0.662963 0.07756,1.216766 4.361508,5.586464 2.615448,2.667801 4.645131,4.960472 4.510408,5.094823 -0.134724,0.134351 -3.102452,-0.06142 -6.594952,-0.435053 -9.128032,-0.976524 -8.65002,-1.24353 -4.7625,2.660222 3.290198,3.303936 4.040021,3.756369 4.862454,2.933936 0.2296,-0.2296 0.531603,-0.303305 0.671118,-0.16379 0.139515,0.139515 -0.551986,1.059314 -1.53667,2.043998 -1.026208,1.026206 -1.887259,1.633506 -2.017428,1.422886 z m 78.849646,-2.66596 c -1.42185,-1.431398 -2.42805,-2.69965 -2.23601,-2.818338 0.19204,-0.118689 0.54534,0.02058 0.78511,0.309485 0.23977,0.288905 0.62308,0.525282 0.8518,0.525282 0.22872,0 2.36489,-1.971476 4.74706,-4.381058 3.96501,-4.010646 4.29661,-4.44569 3.92209,-5.145492 -0.77043,-1.439565 -0.13551,-1.034239 2.43752,1.556077 1.41621,1.425722 2.4178,2.68933 2.22576,2.808019 -0.19205,0.118688 -0.54535,-0.02058 -0.78512,-0.309485 -0.23977,-0.288906 -0.60023,-0.525283 -0.80103,-0.525283 -0.63385,0 -8.72074,8.223494 -8.72074,8.868052 0,0.33842 0.15875,0.713421 0.35277,0.833341 0.41639,0.25734 0.4726,0.88194 0.0794,0.88194 -0.15038,0 -1.43674,-1.17114 -2.85858,-2.60254 z m -8.50968,-7.496844 c 0,-0.150337 0.96837,-3.287815 2.15193,-6.972172 1.55389,-4.837156 2.09928,-7.023314 1.96246,-7.866415 -0.10421,-0.642171 -0.11316,-1.167584 -0.0199,-1.167584 0.0933,0 0.75797,0.530701 1.47712,1.179336 3.27136,2.950587 4.10006,3.816418 3.42422,3.577656 -1.62492,-0.574052 -1.72915,-0.448258 -3.22004,3.886063 -0.80089,2.328334 -1.4078,4.287882 -1.34869,4.354553 0.21932,0.247395 7.62875,-3.927715 7.81038,-4.401042 0.10377,-0.270414 -0.0105,-0.731602 -0.25384,-1.024862 -0.91976,-1.10824 -0.0122,-0.848982 1.53307,0.437936 1.8288,1.523067 2.05702,2.046096 0.74961,1.717958 -0.70904,-0.177959 -2.24416,0.477146 -7.14375,3.048562 -6.45642,3.388478 -7.12258,3.690574 -7.12258,3.230011 z M 75.896929,89.399161 c 0,-0.120009 0.243735,-0.590185 0.541634,-1.044836 0.525075,-0.801366 0.426734,-0.970847 -3.216784,-5.543838 -2.067129,-2.594461 -3.879938,-4.763976 -4.028464,-4.821145 -0.440026,-0.16937 -1.391519,0.964719 -1.639993,1.954716 -0.126927,0.50572 -0.05055,1.396963 0.169725,1.98054 0.220276,0.583578 0.314377,1.147175 0.209113,1.252438 -0.235739,0.235739 -2.586965,-2.467401 -2.605318,-2.995263 -0.01468,-0.422206 8.9289,-7.688273 9.611481,-7.808693 0.553532,-0.09765 2.909748,2.835566 2.411251,3.001731 -0.206875,0.06896 -0.733049,-0.124612 -1.169275,-0.430156 -0.436226,-0.305545 -1.147221,-0.555536 -1.579988,-0.555536 -0.906532,0 -2.583937,0.697053 -2.583937,1.073767 0,0.592029 7.674251,9.681643 8.13636,9.63695 0.278682,-0.02695 0.784508,-0.163 1.124056,-0.302327 1.30359,-0.5349 0.464233,0.434263 -2.137443,2.467999 -2.852631,2.229907 -3.242418,2.486404 -3.242418,2.133653 z m 49.388891,-5.526816 c -3.40865,-2.623135 -3.54993,-2.796247 -2.09224,-2.563733 1.20145,0.191641 1.23454,0.159987 4.52932,-4.33336 1.82546,-2.489526 3.3856,-4.780558 3.46697,-5.091181 0.0814,-0.310624 -0.10371,-0.81644 -0.41131,-1.124036 -0.3076,-0.307596 -0.43565,-0.635664 -0.28456,-0.72904 0.21714,-0.134201 5.13609,3.289116 6.04533,4.207215 0.11647,0.117608 -0.34391,0.11007 -1.02306,-0.01675 l -1.23482,-0.230586 -3.43948,4.638857 c -3.26115,4.398332 -3.89584,5.666263 -3.08671,6.166335 0.41093,0.253965 0.4762,0.891516 0.0882,0.861425 -0.14552,-0.01129 -1.29646,-0.8146 -2.55764,-1.785144 z M 83.587485,82.78523 c 0.628069,-0.628068 0.538908,-1.595496 -0.802775,-8.710471 -0.672897,-3.568384 -1.138406,-6.625573 -1.034465,-6.793753 0.103941,-0.16818 3.044802,1.636232 6.535246,4.009805 6.251577,4.251198 6.360457,4.307646 7.297601,3.783353 0.523235,-0.292729 0.98739,-0.844429 1.031454,-1.226001 0.04406,-0.381571 -1.067185,-2.916266 -2.469444,-5.632655 -2.446597,-4.73943 -2.599426,-4.946621 -3.784284,-5.130331 -1.224079,-0.189792 -1.206276,-0.205947 2.065255,-1.874098 1.814987,-0.92546 3.401165,-1.581467 3.524839,-1.457793 0.123674,0.123675 -0.05163,0.379594 -0.38956,0.56871 -0.337933,0.189117 -0.614423,0.655576 -0.614423,1.036576 0,0.973443 4.849834,10.549073 5.461801,10.783905 0.82104,0.315062 3.2865,-1.30062 3.87403,-2.538758 0.29807,-0.628135 0.54195,-1.792759 0.54195,-2.588054 0,-1.862161 0.56758,-1.857394 1.07014,0.009 0.21548,0.800237 0.53552,1.833023 0.71119,2.295079 0.30646,0.806034 0.0801,0.960343 -5.58166,3.805107 -3.245582,1.630752 -7.009252,3.683422 -8.363706,4.561489 -2.47961,1.607484 -3.260393,1.839637 -2.182935,0.64906 0.666473,-0.736446 0.35621,-1.342101 -1.175254,-2.294177 -0.838124,-0.521042 -0.982455,-0.485625 -2.904814,0.712805 -1.811173,1.129116 -1.999889,1.357477 -1.803282,2.182125 0.420775,1.764904 0.826498,2.232506 1.738471,2.003616 1.307705,-0.328213 1.016727,0.224274 -0.68397,1.298669 -1.605947,1.014538 -2.862431,1.347831 -2.061405,0.546805 z m 2.420811,-6.823482 c 0.841665,-0.493248 1.5303,-0.956945 1.5303,-1.030437 0,-0.222114 -4.013156,-2.996629 -4.144479,-2.865306 -0.174396,0.174397 0.703712,4.792558 0.911269,4.792558 0.09494,0 0.861245,-0.403566 1.70291,-0.896815 z m 30.458074,1.514731 c -1.37848,-0.613737 -7.05555,-4.210435 -7.05555,-4.470031 0,-0.127953 0.43656,-0.226385 0.97014,-0.218736 0.85599,0.01227 1.31316,-0.504939 3.88553,-4.395815 3.15231,-4.768058 3.57402,-5.7208 2.89456,-6.539496 -1.05613,-1.272563 0.19583,-0.754068 3.5901,1.486822 4.47461,2.954126 5.68152,4.483195 5.70776,7.23132 0.0262,2.743209 -1.66717,5.595481 -4.06599,6.848682 -1.12013,0.585183 -4.6639,0.619419 -5.92655,0.05725 z m 3.88105,-2.666639 c 2.02426,-2.100134 3.27538,-4.616059 3.31825,-6.672811 0.0282,-1.354016 -0.12886,-1.710852 -1.15791,-2.630472 -1.15342,-1.030768 -1.20978,-1.043624 -1.80709,-0.412222 -0.80225,0.848037 -6.35096,9.594674 -6.35096,10.011249 0,0.544643 1.87952,1.371245 3.15166,1.386077 0.99425,0.01159 1.50438,-0.289861 2.84605,-1.681821 z"
       id="path1" /></g></svg>
