        <svg class="pct-logo-svg" xmlns="http://www.w3.org/2000/svg" viewBox="0 0 367.18643 337.08812"><defs><style>.bht-mask__hidden{opacity: 0;}.black{fill:#000;}.green{fill:#018687;}.cls-bg{opacity:0;}.pen{fill: none;stroke:#000;stroke-linecap: round;stroke-width:15;}</style></defs>
            <g id="Layer_2" data-name="Layer 2">
                <g id="Logo">
                    <g id="PCT">
                        <g id="BHT-Mask" class="bht-mask__hidden">
                            <path id="Pen-Path_12"  clip-path="url(#B-Letter_12)" stroke-dasharray="77.02301025390625"  class="black pen"  d="M348.18935,160c7.72278,4.93787,12.54773,6.35623,15.5,5.5,3.72632-1.86063,2.5-6.5-1.33868-7.8331-5.16132-2.6669-13.82-2.19275-17.16132.3331-8,2-7,11-3,14,3.75519,3.82809,7.74921,6.19821,12,7">
                                <animate id="animate_path_12" attributeName="stroke-dashoffset" from="77.02301025390625" to="0" dur="1s" fill="freeze"/> 
                            </path>
                            <path id="Pen-Path_11"  clip-path="url(#B-Letter_11)" stroke-dasharray="111.12516021728516"  class="black pen"  d="M353.18935,110c-17.66919,7.28842-33.50885,14.10565-38,18-3,3,29-1,31,5-4,4-16,6-14,13,2.7879,5.51971,6.93518,8.21353,12,9">
                                <animate id="animate_path_11" attributeName="stroke-dashoffset" from="111.12516021728516" to="0" dur="1s" fill="freeze"/> 
                            </path>
                            <path id="Pen-Path_10"  clip-path="url(#B-Letter_10)" stroke-dasharray="93.30859375"  class="black pen"  d="M311.53994,72.5C317.18935,80,339.18935,95,340.18935,98c-9.45282-8.62106-15.17981-13.48962-15.33868-12.75-16.98859,11.08475-26.24195,18.50812-26.66132,21.75">
                                <animate id="animate_path_10" attributeName="stroke-dashoffset" from="93.30859375" to="0" dur="1s" fill="freeze"/> 
                            </path>
                            <path id="Pen-Path_9"  clip-path="url(#B-Letter_9)" stroke-dasharray="40.01184844970703"  class="black pen"  d="M276.18935,51c-20,1-5,15-10,20-2.1933,3.10144-5.897,3.70679-11,2">
                                <animate id="animate_path_9" attributeName="stroke-dashoffset" from="40.01184844970703" to="0" dur="1s" fill="freeze"/> 
                            </path>
                            <path id="Pen-Path_8"  clip-path="url(#B-Letter_8)" stroke-dasharray="86.25447082519531"  class="black pen"  d="M236.18935,42c11.27179.0258,17.22253-2.95833,16-10-4-3-15,2-18.4032,10.00017C226.78615,54.72583,244.18935,60,263.18935,53">
                                <animate id="animate_path_8" attributeName="stroke-dashoffset" from="86.25447082519531" to="0" dur="1s" fill="freeze"/> 
                            </path>
                            <path id="Pen-Path_7"  clip-path="url(#B-Letter_7)" stroke-dasharray="116.60763549804688"  class="black pen"  d="M209.18935,4c-8.37756,19.05927-16.01752,36.83084-13,36a100.83845,100.83845,0,0,1,8.66251-8.832,93.10024,93.10024,0,0,1,14.83749-10.926c-8.13867,5.35031-16.788,10.90141-13.5,11.75807,8.16455,8.98331,16.29419,10.66513,24.4032,8.028">
                                <animate id="animate_path_7" attributeName="stroke-dashoffset" from="116.60763549804688" to="0" dur="1s" fill="freeze"/> 
                            </path>
                            <path id="Pen-Path_6"  clip-path="url(#B-Letter_6)" stroke-dasharray="57.02433395385742"  class="black pen"  d="M171.18935,21c.49219,13.33812,1.90253,23.6022,6.48645,23.24193,7.04449-.9617,13.46143-9.80982,19.51355-23.24193">
                                <animate id="animate_path_6" attributeName="stroke-dashoffset" from="57.02433395385742" to="0" dur="1s" fill="freeze"/> 
                            </path>
                            <line id="Pen-Path_6-1"  clip-path="url(#B-Letter_6)" stroke-dasharray="1.7407898902893066"  class="black pen"  x1="174.81253" y1="6.11405" x2="174.81253" y2="7.85484">
                                <animate id="animate_path_6-1" attributeName="stroke-dashoffset" from="1.7407898902893066" to="0" dur="1s" fill="freeze"/> 
                            </line>
                            <path id="Pen-Path_5"  clip-path="url(#B-Letter_5)" stroke-dasharray="150.55294799804688"  class="black pen"  d="M141.18935,11c7.16064,16.93362,15.48431,32.54883,18,39l-9-18L125.36844,48.83551,132.18935,66c-1.72278-4.75256-4.03467-10.54135-6.82091-17.16449-2.3991-5.70287-5.14988-12.02433-8.17909-18.83551">
                                <animate id="animate_path_5" attributeName="stroke-dashoffset" from="150.55294799804688" to="0" dur="1s" fill="freeze"/> 
                            </path>
                            <path id="Pen-Path_4"  clip-path="url(#B-Letter_4)" stroke-dasharray="42.85692596435547"  class="black pen"  d="M85.18935,71s-1,10,3,11,11-2,16,3-5,14-2,11">
                                <animate id="animate_path_4" attributeName="stroke-dashoffset" from="42.85692596435547" to="0" dur="1s" fill="freeze"/> 
                            </path>
                            <path id="Pen-Path_3"  clip-path="url(#B-Letter_3)" stroke-dasharray="150.05703735351562"  class="black pen"  d="M43.18935,94a181.02138,181.02138,0,0,0,28,29s-16-24-3-30,13,27,11,28c0,0,1-23,4-40">
                                <animate id="animate_path_3" attributeName="stroke-dashoffset" from="150.05703735351562" to="0" dur="1s" fill="freeze"/> 
                            </path>
                            <path id="Pen-Path_2"  clip-path="url(#B-Letter_2)" stroke-dasharray="106.87300109863281"  class="black pen"  d="M32.18935,146s15,17,19,13-1-25-7-29,6,8,13,9,7-10-2-27">
                                <animate id="animate_path_2" attributeName="stroke-dashoffset" from="106.87300109863281" to="0" dur="1s" fill="freeze"/> 
                            </path>
                            <path id="Pen-Path_1"  clip-path="url(#B-Letter_1)" stroke-dasharray="138.45062255859375"  class="black pen"  d="M33.18935,199l-29-13s-2-27,7-25,8,19,8,20,2-18,13-16,11,16,11,17-4,9-4,9">
                                <animate id="animate_path_1" attributeName="stroke-dashoffset" from="138.45062255859375" to="0" dur="1s" fill="freeze"/> 
                            </path>
                            <animate attributeName="opacity" from="0" to="1" dur="2s" fill="freeze"/> 
                        </g>
                        <g id="BHT">
                            <clipPath id="B-Letter_12">
                                <path d="M355.93931,179.93008c-7.37874.74877-15.925-5.3614-19.26691-11.81808-5.40061-12.97475,14.847-18.33178,24.09366-13.73011,7.171,2.027,9.83066,13.28622.03976,12.80433-6.13781-.23536-11.3155-5.0484-16.71483-7.46288-4.90021,1.8298-3.6793,7.54343-.53108,10.64957C345.69179,175.07677,361.332,178.37986,355.93931,179.93008Zm5.90918-17.41552c3.11037-6.07577-10.16744-6.38827-13.93164-4.73975C352.08969,159.79783,357.08222,164.12473,361.84849,162.51456Z">
                                </path>
                            </clipPath>
                            <clipPath id="B-Letter_11">
                                <path d="M346.701,155.31924c-6.28479,2.57549-17.52294-4.33618-18.47413-10.95391-.35328-7.221,8.88229-8.03688,12.24756-12.47724-6.015-3.89106-29.23319,2.68027-29.77929-4.42187,8.905-7.88214,20.41443-11.18037,31.31139-16.00463,3.94808-.99216,8.16176-5.11079,12.46474-4.55939,2.35622,1.03029,1.5963,3.46061-.50784,4.541-10.89716,5.1946-23.915,7.90538-33.71654,14.92488,8.41808,2.78279,20.44884-1.76448,27.21121,5.53813-.78762,4.60974-8.48458,4.81776-11.57185,8.03911-7.48878,5.884,4.306,12.49836,10.13169,14.1668C346.81988,154.19409,347.10223,154.63855,346.701,155.31924Z">
                                </path>
                            </clipPath>
                            <clipPath id="B-Letter_10">
                                <path d="M341.744,100.58194c-3.32748,2.94884-6.63527-6.16638-9.73481-7.72419-2.66613-1.779-5.99644-6.55755-9.28941-4.244-8.62714,5.94833-17.50035,11.68969-24.45177,19.46345-9.00779,1.48642.99947-9.35834,3.88263-10.96852,27.03845-20.58687,18.837-5.17847,5.44883-27.07846,3.67164-4.93011,12.27614,9.14243,16.36976,11.05109C327.94387,85.84168,345.45215,93.7684,341.744,100.58194Z">
                                </path>
                            </clipPath>
                            <clipPath id="B-Letter_9">
                                <path d="M267.76645,71.40957c-2.18319,5.78373-22.8476,5.36477-14.89457-1.926,2.27451-.69268,3.99781,2.13929,6.44544,1.66539,9.05481-.90078,2.17238-10.47676,2.80135-15.769,1.05616-5.66271,9.76573-8.37415,14.625-6.64156,3.57607,5.14229-7.00948,5.04987-9.91086,5.68392C266.44461,60.04988,270.9183,66.1156,267.76645,71.40957Z">
                                </path>
                            </clipPath>
                            <clipPath id="B-Letter_8">
                                <path d="M265.76743,51.39541c-15.741,11.57668-53.77509,5.85574-29.69407-17.77719,22.16345-16.38125,27.74781,10.09554-2.15261,9.77036-4.48464,11.74108,14.92957,11.094,21.89949,9.25366C257.44611,52.74526,266.25209,49.02433,265.76743,51.39541ZM249.37,35.23135c1.65322-8.03878-11.61658,1.28937-13.23047,4.48731C240.6775,38.92628,246.446,39.278,249.37,35.23135Z">
                                </path>
                            </clipPath>
                            <clipPath id="B-Letter_7">
                                <path d="M233.39829,37.91348c-11.10941,9.68363-20.88994,3.98678-29.7373-5.0874-4.02728,2.62667-5.80138,8.10193-8.95658,11.19278-7.59759-3.43749,3.00465-17.88878,4.38722-23.63069,3.01439-6.27526,5.00173-13.13862,8.05613-19.31916,13.16845-7.4682-8.4965,26.51265-8.81666,30.159-2.00232,4.25245,1.04174,1.02906,2.60815-.39519,5.30411-4.81827,11.24005-10.03164,17.42382-13.40865,1.96062-1.24785,3.72919-.57688,3.88605,1.45528-2.61361,5.61975-11.55568,6.53135-15.59155,11.18983,6.28365,7.94815,16.68511,10.88134,25.96849,6.73507C233.43224,36.5309,233.5543,37.204,233.39829,37.91348Z">
                                </path>
                            </clipPath>
                            <clipPath id="B-Letter_6">
                                <path d="M197.10142,22.76016c-10.8475,24.39222-28.55063,38.23784-29.10561.35011-.16581-6.43221,7.00223-6.82674,5.47772.48117-.54681,6.41207-.46309,25.26,9.5649,14.50358C185.78018,37.12912,198.06294,9.81372,197.10142,22.76016ZM176.7728,2.46817c.43933,3.41771-1.6226,10.04428-5.66832,6.01161.36858-1.923-.05566-4.08468.44551-5.9482C172.27605.73113,176.25154.26372,176.7728,2.46817Z">
                                </path>
                            </clipPath>
                            <clipPath id="B-Letter_5">
                                <path d="M142.73374,7.30508c4.02421,8.00145,6.06421,17.35644,10.41151,25.4266.9658,4.37121,13.14061,18.1258,4.6127,19.21854-1.45882-.25474-1.90852-1.08142-2.57548-2.54212-8.91863-22.10995-5.72131-13.93566-24.98571-2.59858a20.57,20.57,0,0,0-2.50848,2.03024c.30244,3.04926,2.25632,6.47344,3.52711,9.26716,1.10354,2.554,6.04334,8.7821,1.27266,9.63764-1.763-.21879-3.79154-.96206-4.35435-2.8267-3.27629-10.32524-7.88735-20.50949-12.38288-30.49608-.72387-2.6966-3.85723-5.48641-2.23841-8.14982,6.787-3.80079,7.52476,9.00368,9.79306,13.02779.91439,2.181,1.74456,5.5117,4.51962,3.59346,5.472-3.28851,12.06983-7.609,16.77744-12.04742,3.48034-4.1013-5.74894-16.14027-7.11115-20.9748C137.30932,7.33609,140.93171,5.1233,142.73374,7.30508Z">
                                </path>
                            </clipPath>
                            <clipPath id="B-Letter_4">
                                <path d="M103.78452,81.05264c5.33936,3.11575,1.48574,23.422-4.37982,14.36611-.30341-2.35811,2.7749-3.5859,2.71586-6.07769.62016-9.0795-9.96869-3.88685-15.08256-5.38915-5.40784-1.98357-6.6309-11.02411-4.11322-15.52609,5.66551-2.671,3.8125,7.75244,3.954,10.71813C92.36271,80.46561,99.08893,77.06316,103.78452,81.05264Z">
                                </path>
                            </clipPath>
                            <clipPath id="B-Letter_3">
                                <path d="M82.60776,78.60977c3.247,7.70334-1.13468,18.03541-1.59922,26.245-1.56769,5.05439,3.95159,17.78312-4.33532,17.81272-2.16312-6.64218,1.78341-14.6271-.53262-21.395-.48971-4.42664-8.85739-10.82012-11.34737-4.98492-1.18793,8.46347,1.11571,19.204,8.11319,24.78132,2.26212,4.064-3.01191,4.723-5.44763,1.57455-2.71735-1.87711-40.61623-36.1152-23.62447-30.6348,5.97561,7.51635,12.49475,15.43077,19.96143,21.68219-2.63339-6.69488-6.53893-19.0535,1.2832-23.37874,5.97178-2.43526,11.76062,1.91752,13.59815,7.7972.45537-4.69111,1.08307-9.37532,1.58011-14.09521C80.76456,82.32569,79.8171,76.72689,82.60776,78.60977Z">
                                </path>
                            </clipPath>
                            <clipPath id="B-Letter_2">
                                <path d="M54.09067,109.727c7.98874,6.99622,17.8516,41.30058-3.28271,28.73779,11.078,28.30284-6.79936,28.01869-21.67692,8.31663-1.848-1.80066.08523-5.23434,2.50618-3.742,4.01955,3.37355,8.51541,9.59124,12.71743,11.5373,8.35018,4.77852,5.72673-7.85822,4.1619-11.8294-1.78685-5.13058-5.20142-9.13554-8.10459-13.61068-1.10179-1.52592,1.31861-3.48125,2.69568-2.80053,1.36992,1.48266,3.23711,3.26035,4.4928,4.803,14.57407,13.29679,12.97657-.75651,8.51935-11.755C55.98377,117.25624,48.29644,106.87324,54.09067,109.727Z">
                                </path>
                            </clipPath>
                            <clipPath id="B-Letter_1">
                                <path d="M32.54819,162.16788c9.76117,3.88025,13.98486,16.84043,10.58323,26.21089-3.61679,9.52851-12.66247,4.69934-3.955-4.91875,1.82556-5.88612-2.02209-13.75034-7.53366-16.35443-6.27967-1.49786-11.25232,6.85833-10.26231,12.18461.986,4.2176-4.91506,5.68431-5.451,1.29469a20.73568,20.73568,0,0,0-2.33606-15.26371C6.34341,154.7674,2.67556,179.654,6.60115,183.75928c5.12254,2.95037,12.08893,4.82868,17.27386,7.92977,3.21825,1.83352,8.4243,2.00816,10.95552,4.4943,1.9233,3.54628-1.776,5.80092-6.36991,3.81578-6.161-3.41465-13.6886-7.05079-20.06151-10.02338-2.3302-.99336-5.394-.89431-7.02851-2.95713-2.50976-2.24-.75988-3.50376-.98666-5.97535.22756-6.52508-.49158-10.60937,1.7453-16.26844,4.6465-12.28654,15.17217-6.26523,17.53028,4.57029C22.24408,165.15646,27.40511,160.72405,32.54819,162.16788Z">
                                </path>
                            </clipPath>
                        </g>
                        
                        <g id="Background" class="cls-bg" style="transform: scale(1.35) translate(67px, 20px);">
<path
                              style="fill:transparent"
                              d="M -31.407095,120.14234 V 13.956226 H 73.897074 179.20124 l -0.0511,73.642362 c -0.0285,41.070692 -0.17676,71.769982 -0.33528,69.409032 -0.8029,-11.95821 -3.39387,-25.33459 -7.21803,-37.2645 C 166.95523,105.26298 159.05396,89.336318 150.12315,76.45829 143.56552,67.00235 137.05972,59.337006 128.35102,50.805684 118.06451,40.728681 106.6957,32.075918 94.473041,25.021256 89.561391,22.186355 77.717504,16.292599 76.133123,15.894944 L 75.215208,15.664562 69.617252,18.19339 C 54.829283,24.873726 41.377388,33.274721 28.774509,43.700555 23.376903,48.165769 12.774188,58.757017 8.4023619,64.050671 -5.0574964,80.348626 -14.116706,96.673444 -20.669285,116.43817 c -4.411873,13.30765 -7.010099,26.13495 -8.32471,41.09861 -0.508881,5.79239 -0.616631,24.02441 -0.175339,29.66864 l 0.29237,3.73948 3.585629,2.65738 c 22.2024376,16.45467 48.587124,26.80404 77.492575,30.39639 27.546855,3.4235 56.34377,-0.32146 83.02335,-10.79697 7.05457,-2.76992 18.76937,-8.49183 24.97479,-12.19855 4.87488,-2.91195 14.14116,-9.15266 15.9713,-10.75645 l 1.29668,-1.13631 0.53762,-4.18562 c 0.2957,-2.3021 0.66285,-6.03272 0.81589,-8.29028 l 0.27827,-4.10465 0.0511,26.8993 0.0511,26.89931 H 73.897074 -31.407095 Z m 91.369446,100.49139 c -24.001292,-1.79625 -47.57863,-8.97811 -68.0952556,-20.74242 -5.3436554,-3.06407 -13.4387464,-8.4168 -15.7487854,-10.4136 l -1.351794,-1.16849 v -13.88691 -13.88692 l 0.638461,-5.82083 C -21.369583,125.3083 -12.957605,101.55983 2.1506256,79.206964 15.616008,59.284718 33.909482,42.477729 55.905407,29.820171 c 4.647423,-2.67436 18.571263,-9.537305 19.4714,-9.597291 0.825899,-0.05504 10.375417,4.56795 15.806378,7.651979 29.101125,16.525382 53.028115,41.827249 67.662215,71.550146 8.21817,16.691695 12.96298,32.632465 15.30307,51.412525 l 0.63696,5.11175 -0.0173,11.1125 -0.0173,11.1125 -0.58675,4.40972 -0.58675,4.40973 -0.98036,0.81167 c -1.99263,1.64979 -13.10812,8.88956 -17.20813,11.20805 -5.52547,3.12456 -15.83046,8.09487 -21.16667,10.20912 -15.85265,6.28093 -32.8699,10.15935 -50.270829,11.45727 -5.554829,0.41433 -18.160324,0.3901 -23.98889,-0.0461 z m 9.649921,-5.96949 c 0.909337,-0.71528 1.168665,-1.77614 0.719996,-2.94535 -0.117379,-0.30589 -0.997724,-0.98303 -1.956322,-1.50476 l -1.742906,-0.94861 0.104239,-0.72895 0.104239,-0.72895 0.972943,-0.1119 0.972943,-0.1119 0.614557,1.07981 c 0.338006,0.59389 0.73362,1.08081 0.87914,1.08203 0.145521,0.001 0.264584,-0.56035 0.264584,-1.24795 v -1.25019 l -0.440972,0.082 c -0.242535,0.0451 -0.947599,-0.0379 -1.566809,-0.18441 l -1.125837,-0.26643 -0.814441,0.42908 c -1.056664,0.55668 -1.331606,0.99722 -1.338206,2.14417 l -0.0054,0.93878 1.05643,0.88893 c 0.581036,0.48891 1.360121,0.98531 1.731299,1.10312 1.519536,0.48228 1.228627,2.304 -0.367925,2.304 h -1.032488 l -0.728504,-1.23472 c -0.400677,-0.6791 -0.792198,-1.23472 -0.870047,-1.23472 -0.07785,0 -0.140467,0.67469 -0.139152,1.4993 l 0.0024,1.49931 1.886419,0.0913 1.88642,0.0913 z m 8.623791,0.0158 c 0.640194,-0.39032 1.065661,-0.86877 0.945482,-1.06322 l -0.218508,-0.35356 -0.904862,0.71177 c -1.052786,0.82812 -2.166526,0.91082 -3.097596,0.23 l -0.658848,-0.48176 -0.156353,-2.16156 -0.156353,-2.16156 0.579518,-0.88446 c 0.946113,-1.44395 2.488619,-1.09482 3.842637,0.86974 l 0.601172,0.87224 -0.0012,-1.40141 -0.0012,-1.40141 -1.993989,-0.10824 c -1.096694,-0.0595 -2.41526,0.0663 -2.930148,0.27954 -1.248334,0.51708 -2.12895,2.09068 -2.12895,3.8043 v 1.3973 l 0.75428,0.95892 c 1.35359,1.72081 3.577921,2.08047 5.524987,0.89337 z m 7.21796,0.14005 1.601258,-0.21947 0.214319,-1.0716 c 0.219314,-1.09657 -0.10165,-1.87767 -0.412142,-1.00299 -0.346442,0.97595 -1.521535,1.80798 -2.55344,1.80798 h -1.058333 v -1.5875 c 0,-0.87312 0.119063,-1.58506 0.264583,-1.58209 0.479148,0.01 1.016915,0.51249 1.31505,1.22932 l 0.293447,0.70555 0.155637,-0.65878 c 0.0856,-0.36233 0.0426,-1.39421 -0.09556,-2.29306 l -0.251203,-1.63427 -0.329381,0.87199 c -0.3591,0.95066 -0.980525,1.47461 -1.42392,1.20058 -0.154785,-0.0957 -0.281427,-0.79956 -0.281427,-1.56422 v -1.39029 h 1.205299 1.205298 l 0.723803,0.97014 0.723804,0.97013 0.01118,-1.32291 0.01118,-1.32292 -2.204861,0.0203 c -2.045431,0.0189 -5.740065,0.55363 -4.45382,0.64466 l 0.573264,0.0406 0.220486,1.10243 c 0.121268,0.60633 0.220486,2.18061 0.220486,3.49838 v 2.39595 l -0.440972,0.17793 c -0.644406,0.26003 2.895479,0.27054 4.765977,0.0142 z m -25.008467,-0.92705 c 0.116994,-0.43656 0.214884,-1.01537 0.217534,-1.28623 l 0.0048,-0.49249 -0.8651,0.93346 -0.8651,0.93346 h -1.054358 c -0.579897,0 -1.125112,-0.11907 -1.211588,-0.26459 -0.08648,-0.14552 -0.0377,-1.60056 0.108385,-3.23342 l 0.265616,-2.96884 0.581693,-0.42535 0.581692,-0.42534 -1.857426,-0.18314 c -1.946013,-0.19188 -2.499184,-0.0605 -1.734737,0.41193 l 0.455032,0.28123 -0.235558,2.96279 -0.235557,2.96278 -0.494275,0.39167 c -0.989847,0.78437 -0.762614,0.83733 4.844441,1.12913 l 1.281772,0.0667 z m 29.775708,0.56925 0.801969,-0.21486 -0.518749,-0.39768 C 90.199328,213.6158 89.883888,212.5079 89.738382,211.159 l -0.247353,-2.29305 2.699225,2.55764 c 2.704333,2.56248 3.602271,3.09441 3.275297,1.94028 -0.0962,-0.33955 -0.283854,-1.94612 -0.417018,-3.57015 l -0.242116,-2.95278 0.471223,-0.29123 c 0.71091,-0.43937 0.276428,-0.61969 -1.0182,-0.42258 l -1.157078,0.17616 0.499221,0.39939 c 0.274571,0.21966 0.605505,1.27251 0.735408,2.33966 l 0.236187,1.94028 -2.233655,-2.20487 -2.233654,-2.20486 h -0.939828 c -1.121494,0 -1.511522,0.47204 -0.84624,1.02418 l 0.480237,0.39856 0.247481,2.83707 0.247482,2.83708 -0.42202,0.5085 -0.422021,0.5085 0.484168,-0.005 c 0.266293,-0.003 0.845054,-0.10151 1.286136,-0.21969 z m -38.000792,-0.98705 c -0.230965,-0.27829 -0.85186,-2.11293 -1.379766,-4.07698 -0.527907,-1.96404 -1.090143,-3.60165 -1.249414,-3.63914 -0.159271,-0.0375 -1.159437,1.43996 -2.222591,3.28323 -1.063154,1.84326 -2.078623,3.40463 -2.256599,3.46971 -0.686872,0.25117 0.129713,0.7631 1.20093,0.75289 l 1.125708,-0.0107 -0.619693,-0.36089 -0.619693,-0.36088 0.367521,-0.68672 0.367522,-0.68673 h 0.975366 c 0.536451,0 1.165866,0.1905 1.398699,0.42334 0.631304,0.6313 0.51322,1.68725 -0.194028,1.73507 -0.833166,0.0563 1.240272,0.56967 2.512641,0.62208 l 1.013334,0.0417 z m -4.336834,-2.91143 -0.613435,-0.16057 0.560866,-1.0846 0.560865,-1.08459 0.311751,0.49234 c 0.381022,0.60175 0.423492,2.09546 0.05797,2.03892 -0.145521,-0.0225 -0.54063,-0.11318 -0.878019,-0.2015 z m 52.648162,2.70453 0.88194,-0.0151 -0.67694,-0.5122 -0.67693,-0.51221 -0.467197,-2.91616 -0.467196,-2.91616 0.594197,-0.44097 0.594196,-0.44097 -1.390342,0.0352 c -0.764688,0.0193 -1.787218,0.14736 -2.272287,0.2845 l -0.881945,0.24934 0.722629,0.19304 0.722628,0.19303 0.422655,3.13843 0.422655,3.13843 -0.616117,0.4833 -0.616116,0.48329 1.411111,-0.21482 c 0.776111,-0.11816 1.807989,-0.22163 2.293059,-0.22994 z m -56.968924,-3.38055 c 0.784604,-4.20613 0.841747,-4.37279 1.501335,-4.37862 l 0.61064,-0.005 -0.529167,-0.34198 c -0.291041,-0.18808 -0.996071,-0.3444 -1.566732,-0.34737 l -1.037565,-0.005 0.610602,0.44649 0.610601,0.44648 -0.404472,1.88599 -0.404472,1.88599 -1.42175,-2.59706 c -0.781963,-1.42838 -1.439692,-2.62258 -1.46162,-2.65378 -0.02193,-0.0312 -0.67487,-0.17517 -1.450981,-0.31992 l -1.411111,-0.26319 0.495706,0.59841 0.495707,0.5984 -0.448011,3.01132 -0.44801,3.01132 -0.551069,0.21147 -0.55107,0.21146 0.679763,0.2663 c 0.373869,0.14646 0.977013,0.27745 1.340319,0.29109 l 0.660557,0.0248 -0.441112,-0.53151 -0.441112,-0.5315 0.234248,-1.76585 c 0.128836,-0.97121 0.328559,-2.01162 0.443828,-2.312 l 0.209581,-0.54616 1.050383,1.87337 c 2.299154,4.10057 2.806677,4.92125 2.952946,4.77498 0.08382,-0.0838 0.386235,-1.40597 0.672038,-2.93811 z m 63.831024,2.18303 c 0.65725,-0.27461 1.37211,-0.83024 1.58858,-1.23472 0.4897,-0.91502 0.11594,-0.94623 -0.84322,-0.0704 -0.40057,0.36576 -1.06993,0.76839 -1.48749,0.89475 l -0.75919,0.22974 -0.97072,-0.83498 -0.97071,-0.83497 -0.16167,-1.94946 c -0.0925,-1.11555 0.0114,-2.27291 0.24302,-2.70561 l 0.40468,-0.75615 h 0.93842 c 0.53774,0 1.36089,0.40475 1.92787,0.94795 l 0.98944,0.94795 -0.005,-1.03614 c -0.005,-0.96541 -0.6827,-2.60452 -0.69476,-1.68044 l -0.005,0.41403 -1.53737,-0.0595 c -0.84556,-0.0327 -1.97035,0.17222 -2.49954,0.45544 -2.69908,1.4445 -2.52976,6.03892 0.26738,7.25548 1.44293,0.62757 2.1073,0.63074 3.57608,0.017 z m -73.210535,-2.13297 0.997087,-0.51562 0.566062,-1.41473 0.566061,-1.41472 -0.212651,-1.06326 c -0.250902,-1.25451 -1.653779,-2.76435 -2.846699,-3.06376 -1.207575,-0.30308 -3.25392,0.0964 -4.013015,0.78333 -0.905346,0.81933 -1.491169,2.80041 -1.233795,4.17233 0.212183,1.13103 1.26955,2.39795 2.322602,2.7829 1.018629,0.37236 2.865946,0.24465 3.854348,-0.26647 z m -3.65276,-0.39153 -0.554365,-0.55437 0.0077,-1.47411 c 0.0043,-0.81075 0.314,-2.14879 0.688308,-2.97341 l 0.68056,-1.4993 h 1.063169 1.063169 l 0.36519,0.68236 c 0.473385,0.88453 0.461783,1.91199 -0.04052,3.58853 -0.450111,1.50234 -1.476402,2.78466 -2.228667,2.78466 -0.269624,0 -0.73969,-0.24946 -1.04459,-0.55436 z m 87.681235,-0.036 c 1.14177,-0.22836 1.33144,-0.65579 0.39982,-0.90102 l -0.61736,-0.1625 -0.66572,-2.61267 c -0.36615,-1.43697 -0.74032,-2.8111 -0.8315,-3.05364 l -0.16577,-0.44097 h 0.89968 c 0.52351,0 1.14568,0.33189 1.48801,0.79375 l 0.58833,0.79375 -0.21922,-1.209 c -0.12057,-0.66495 -0.28092,-1.27069 -0.35632,-1.3461 -0.13673,-0.13673 -1.56673,0.20095 -5.04042,1.19024 l -1.83348,0.52217 0.15779,0.50954 c 0.0868,0.28025 0.24902,0.78735 0.36054,1.1269 l 0.20276,0.61736 0.48577,-1.14653 c 0.26717,-0.63059 0.70665,-1.14652 0.97662,-1.14652 h 0.49085 l 0.7609,2.77646 c 0.8796,3.20961 0.92517,3.79007 0.31993,4.07541 -0.41126,0.19389 0.008,0.13149 2.59879,-0.38663 z m -92.380739,-1.05444 c -0.599888,-0.24206 -0.573075,-0.46595 0.46232,-3.86048 l 0.903293,-2.96144 0.596013,-0.0288 0.596013,-0.0288 -1.058334,-0.45212 c -0.582083,-0.24867 -1.498731,-0.55721 -2.036995,-0.68564 l -0.978661,-0.23352 0.407969,0.65327 0.40797,0.65326 -0.813746,2.74111 -0.813746,2.74111 -0.732229,0.28233 -0.732229,0.28232 0.881945,0.33845 c 0.485069,0.18615 1.120069,0.42809 1.411111,0.53765 0.655351,0.24669 2.109063,0.26729 1.499306,0.0212 z m 98.164059,-0.70412 1.71682,-0.58498 -0.70133,-0.25944 c -0.3881,-0.14357 -0.87579,-0.82787 -1.09195,-1.53219 l -0.39062,-1.27276 0.40811,0.2361 c 0.22446,0.12985 1.0027,0.69848 1.72943,1.26361 l 1.32132,1.02751 1.05588,-0.23191 c 1.09304,-0.24007 1.80997,-0.87918 0.9966,-0.88843 -0.25398,-0.003 -1.09679,-0.54615 -1.8729,-1.20726 l -1.41111,-1.20202 0.44097,-0.45079 c 0.5605,-0.57298 0.5708,-2.1554 0.0176,-2.70857 -0.63159,-0.63159 -1.98398,-0.51693 -4.69689,0.3982 l -2.43543,0.82154 0.74354,0.19444 0.74354,0.19444 0.99642,3.05965 0.99641,3.05964 -0.51977,0.3287 c -0.80365,0.50822 0.0598,0.39972 1.95332,-0.24548 z m -1.16402,-5.64684 c -0.45285,-1.47552 -0.31469,-1.88207 0.63962,-1.88207 1.23107,0 1.95428,2.53508 0.84468,2.96087 -0.93693,0.35954 -1.07327,0.26044 -1.4843,-1.0788 z m -103.168241,4.20335 -0.544914,-0.61736 1.071095,-2.92633 1.071096,-2.92633 0.565671,0.10811 0.56567,0.10812 0.185934,1.23071 0.185934,1.23072 0.431427,-0.77056 c 0.237285,-0.42381 0.431427,-0.99793 0.431427,-1.27582 v -0.50527 l -3.059906,-1.11469 c -1.682948,-0.61307 -3.17323,-0.99145 -3.311738,-0.84084 -0.138508,0.15062 -0.36648,0.65224 -0.506604,1.11473 l -0.254772,0.84088 0.822783,-0.5763 c 0.710404,-0.49758 2.076904,-0.80136 2.076904,-0.4617 0,0.14597 -1.606962,4.79733 -1.940932,5.61804 -0.138172,0.33955 -0.578195,0.61736 -0.97783,0.61736 -1.032986,0 -0.473106,0.43382 1.444403,1.11919 2.148093,0.76778 2.401409,0.77175 1.744352,0.0273 z m 112.424871,-1.53896 0.33514,-0.31312 h -0.59972 -0.59973 v -0.83915 -0.83914 l 1.08153,-0.44799 1.08152,-0.44798 0.56387,0.56387 0.56386,0.56387 -0.45386,0.54687 c -0.58855,0.70915 -0.40833,0.69053 1.58467,-0.16377 l 1.65786,-0.71064 -1.01125,-0.75673 c -0.55619,-0.4162 -2.08281,-1.79872 -3.3925,-3.07226 l -2.38125,-2.31553 v 3.93044 c 0,2.16174 -0.10339,4.19986 -0.22976,4.52916 l -0.22975,0.59873 0.84712,-0.25675 c 0.46591,-0.14121 0.99792,-0.39766 1.18225,-0.56988 z m -1.21708,-4.09747 v -1.3149 l 0.97013,0.97301 0.97014,0.97301 -0.52916,0.33649 c -0.29104,0.18507 -0.72761,0.33892 -0.97014,0.34189 l -0.44097,0.005 z m -117.759775,-0.62634 -0.108381,-4.41198 -0.597175,0.32914 c -0.328446,0.18103 -1.624464,1.37238 -2.8800398,2.64745 -1.2555754,1.27506 -2.485888,2.3183 -2.7340278,2.3183 -0.8176236,0 -0.4702881,0.54365 0.6071699,0.95035 0.5820834,0.21971 1.0583334,0.26774 1.0583334,0.10674 0,-0.16101 -0.1984375,-0.36631 -0.4409722,-0.45623 l -0.4409723,-0.16349 0.6104164,-0.64011 0.6104164,-0.64012 1.241667,0.59211 c 0.682917,0.32566 1.239236,0.71374 1.236265,0.8624 -0.0092,0.46246 -0.500318,1.03812 -1.052931,1.2343 l -0.5291671,0.18785 1.5875001,0.72207 c 0.873125,0.39714 1.666875,0.73357 1.763889,0.74763 0.09701,0.0141 0.127618,-1.95983 0.06801,-4.38641 z m -3.2430092,-0.16994 -0.5291666,-0.33649 0.9701388,-0.97301 0.970139,-0.973 v 1.31489 1.3149 l -0.440972,-0.005 c -0.242535,-0.003 -0.679097,-0.15682 -0.9701392,-0.34189 z m 130.3419542,1.33533 c 0.87832,-0.42672 1.59694,-0.89799 1.59694,-1.04726 0,-0.14928 -0.22948,-0.18335 -0.50996,-0.0757 l -0.50996,0.19569 -1.44907,-2.88205 -1.44906,-2.88206 0.42179,-0.50823 c 0.72731,-0.87635 0.21131,-0.80964 -1.79541,0.23214 l -1.94028,1.00728 0.80644,0.0166 0.80644,0.0166 1.39308,2.88071 1.39308,2.88071 -0.39063,0.47068 c -0.54164,0.65264 -0.22106,0.59249 1.6266,-0.30517 z m -59.962786,0.067 c 7.576087,-0.40862 11.269922,-0.80353 18.41019,-1.96825 18.316976,-2.98787 34.652016,-9.39645 46.111676,-18.09059 l 2.08021,-1.5782 -0.20831,-5.8486 C 145.71209,147.71665 135.39753,117.73183 119.63024,95.271504 113.45013,86.468003 102.67201,74.842179 95.129897,68.844188 90.722778,65.339355 84.110551,60.885305 79.377992,58.233575 l -3.691304,-2.068298 -4.069807,2.088422 c -5.515149,2.830099 -14.414871,8.81887 -19.768419,13.302498 -5.381204,4.50679 -13.234569,12.501084 -17.37356,17.685329 -3.549679,4.446108 -8.460892,11.595624 -11.313042,16.469014 -1.089101,1.86091 -3.25886,5.98841 -4.821687,9.17222 -4.909974,10.00265 -8.327911,19.47934 -11.1215436,30.83597 -2.5638212,10.4224 -3.7957944,18.80151 -4.4179711,30.04829 l -0.3937562,7.11773 0.3631723,0.6786 c 0.3726109,0.69622 5.268083,3.75044 9.0381096,5.63875 2.937884,1.47151 11.388112,4.76646 14.993056,5.84616 9.21384,2.7596 19.688255,4.75655 29.809722,5.68323 9.55993,0.87528 15.145681,1.00442 23.636112,0.54648 z M 6.1815341,197.37032 c 0.9197926,-1.56892 2.0029503,-2.97487 2.4070171,-3.12435 l 0.7346669,-0.27177 -1.170648,-0.60537 -1.170648,-0.60536 0.2255696,0.71071 0.2255695,0.7107 -0.9699045,1.5197 -0.9699046,1.5197 -0.2387189,-1.41111 C 5.1232378,195.03706 4.911869,193.67925 4.7848248,192.79581 L 4.5538353,191.18956 3.5067038,190.571 2.4595724,189.95245 v 0.92841 c 0,0.51062 -0.6579504,2.0359 -1.46211187,3.3895 l -1.46211183,2.4611 -0.47816598,-0.18349 c -0.90800912,-0.34843 -0.47484172,0.34976 0.61721664,0.99486 l 1.09538262,0.64706 -0.23796664,-0.74977 -0.23796664,-0.74977 1.1207276,-1.95882 c 0.6164002,-1.07736 1.1921799,-1.88738 1.2795105,-1.80005 0.1345094,0.13451 1.1514708,6.24081 1.170269,7.02683 0.02019,0.84423 0.8452033,-0.0772 2.3171783,-2.58799 z m 139.8003459,0.75348 2.58759,-1.49479 -0.2313,-0.93708 c -0.12721,-0.5154 -0.37882,-1.0879 -0.55911,-1.27223 l -0.32782,-0.33514 v 1.01796 c 0,1.04252 -1.1925,2.65093 -1.96545,2.65093 -0.23724,0 -1.15555,-1.22889 -2.04069,-2.73087 l -1.60934,-2.73087 0.3383,-0.3383 c 0.18606,-0.18606 0.33829,-0.46525 0.33829,-0.62041 0,-0.34841 -3.51563,1.55923 -3.52269,1.91146 -0.003,0.13943 0.22175,0.16647 0.499,0.0601 l 0.50409,-0.19344 1.61136,2.75269 1.61136,2.75269 -0.21296,0.671 c -0.11713,0.36904 -0.0769,0.59452 0.0894,0.50105 0.16631,-0.0935 1.46679,-0.84259 2.88996,-1.66473 z m 13.81658,-34.76618 c 0,-0.29105 -0.25619,-0.52917 -0.56932,-0.52917 -1.1122,0 -3.22317,-1.50047 -3.79346,-2.69638 -0.55807,-1.1703 -0.80106,-3.65362 -0.3575,-3.65362 0.12024,0 2.72487,-0.39755 5.78807,-0.88345 3.06321,-0.48589 5.82234,-0.78641 6.1314,-0.66781 0.30906,0.1186 0.56193,0.51615 0.56193,0.88345 0,0.36729 0.15875,0.66781 0.35277,0.66781 0.19403,0 0.35278,-0.36772 0.35278,-0.81715 0,-0.7624 -0.498,-3.97234 -0.90167,-5.81186 -0.20366,-0.92807 -0.86222,-0.71496 -0.86222,0.27901 0,0.36515 -0.12797,0.74301 -0.28438,0.83968 -0.15642,0.0967 -2.33923,0.5034 -4.8507,0.90385 -2.51147,0.40045 -5.06599,0.81112 -5.6767,0.9126 l -1.1104,0.18451 -0.73051,-0.97935 -0.73051,-0.97935 -0.0112,0.78609 c -0.0102,0.71398 1.14865,8.45369 1.60894,10.74621 l 0.19053,0.94896 0.94676,0.14471 c 0.52072,0.0796 1.62145,0.16849 2.44607,0.19756 l 1.4993,0.0529 z M -4.5252377,153.80674 c 0.8591015,-0.60379 1.8391604,-1.74033 2.3400511,-2.71365 l 0.8618505,-1.67474 0.016385,-1.84981 0.016385,-1.84981 -0.7657231,-1.47537 c -0.4211478,-0.81146 -0.9373035,-1.58142 -1.1470128,-1.71102 -0.7717724,-0.47698 -0.7918925,0.23253 -0.044313,1.56267 l 0.7682984,1.367 v 1.83119 1.83119 l -1.0736174,1.07362 -1.0736174,1.07361 -3.0715216,-0.15434 -3.071522,-0.15435 -1.620882,-0.72594 c -0.891486,-0.39926 -1.963048,-1.0932 -2.38125,-1.54209 -0.940211,-1.0092 -0.978484,-2.61417 -0.09682,-4.05999 l 0.660914,-1.08382 1.97758,-0.85646 c 1.087669,-0.47105 1.980289,-0.96427 1.9836,-1.09603 0.0033,-0.13177 -0.906791,-0.41895 -2.022451,-0.63819 -1.11566,-0.21925 -2.22691,-0.46364 -2.469445,-0.54311 -0.544563,-0.17843 -0.581103,0.61046 -0.05275,1.13882 l 0.388224,0.38822 -0.915966,1.56298 c -1.142568,1.94964 -1.497648,4.32549 -0.917062,6.13607 1.158342,3.61233 4.082376,5.50222 8.2021583,5.30129 l 2.0303004,-0.099 z m 157.9736977,-4.0073 v -1.03456 l 0.61737,-0.17638 c 0.33954,-0.097 2.95228,-0.68828 5.80607,-1.31394 l 5.18871,-1.13756 0.54393,0.45142 c 0.29916,0.24828 0.54392,0.67011 0.54392,0.93739 0,0.26729 0.1786,0.48597 0.39688,0.48597 h 0.39687 l -0.2227,-1.14653 c -0.74893,-3.85563 -1.38865,-6.2618 -1.66479,-6.2618 -0.17455,0 -0.31737,0.38751 -0.31737,0.86112 0,0.47362 -0.14059,0.94802 -0.31243,1.05422 -0.17184,0.1062 -2.8309,0.74543 -5.90903,1.4205 l -5.59659,1.22741 -0.792,-0.95871 -0.792,-0.95871 0.003,0.70556 c 0.003,0.60844 0.22458,1.70054 1.23473,6.08541 0.26377,1.14496 0.87497,0.97674 0.87497,-0.24081 z m -1.76388,-7.76909 v -0.68976 l 5.73263,-4.66321 c 3.15296,-2.56477 5.80143,-4.71765 5.88551,-4.78418 0.57484,-0.45483 -1.39246,-0.84325 -7.55515,-1.49165 l -7.0495,-0.74171 -0.68266,-0.68265 -0.68265,-0.68266 2.23114,-3.38362 2.23115,-3.38362 0.9149,0.85539 c 1.27316,1.19035 2.24819,1.40312 3.68283,0.80369 1.54168,-0.64415 1.9975,-1.48014 1.98374,-3.6382 l -0.0108,-1.69889 -1.52254,-3.86251 c -0.83739,-2.12438 -1.68483,-3.91661 -1.88319,-3.98273 -0.20487,-0.0683 -0.29219,0.23796 -0.20215,0.70897 0.0872,0.45605 -0.0527,0.99604 -0.31083,1.19999 -0.25814,0.20394 -2.83683,1.29083 -5.73044,2.41531 l -5.2611,2.04451 -0.65675,-0.81105 c -0.36121,-0.44608 -0.75136,-0.71643 -0.867,-0.60079 -0.3343,0.3343 2.36452,6.97455 2.74029,6.74231 0.18619,-0.11507 0.2448,-0.50453 0.13025,-0.86546 l -0.20829,-0.65624 0.8113,-0.52472 c 1.30141,-0.84172 4.51546,-2.00515 4.51546,-1.63453 0,0.18654 -0.9525,1.67078 -2.11667,3.29832 -1.16417,1.62754 -2.11667,3.14803 -2.11667,3.37887 0,0.75661 2.60163,8.14281 2.86813,8.14281 0.14301,0 0.31024,-0.43656 0.37164,-0.97014 l 0.11162,-0.97014 1.41111,0.12307 c 0.77611,0.0677 1.46018,0.16968 1.52016,0.22664 0.06,0.057 0.39887,1.0608 0.75311,2.23075 l 0.64406,2.12719 -1.28228,0.91788 -1.28227,0.91787 -0.62618,-0.76403 c -0.3444,-0.42023 -0.71284,-0.67739 -0.81875,-0.57147 -0.10592,0.10591 0.14644,1.35871 0.5608,2.784 0.41435,1.42529 0.83318,2.86925 0.93072,3.20879 0.24016,0.83603 0.83536,0.78444 0.83536,-0.0724 z m 1.95648,-8.89071 c -0.29864,-1.00562 -0.50383,-1.85663 -0.45598,-1.89112 0.23673,-0.17068 4.8468,0.29549 4.82981,0.48839 -0.0108,0.12291 -0.87721,0.9002 -1.92527,1.7273 l -1.90558,1.50383 z m -1.84242,-13.79105 c -0.39297,-0.43656 -0.80482,-1.05147 -0.91523,-1.36645 l -0.20074,-0.57269 2.36177,-0.92661 c 1.29897,-0.50964 2.63263,-0.92661 2.96368,-0.92661 0.63352,0 1.1188,1.25012 0.90873,2.34094 -0.16578,0.86079 -2.29864,2.24517 -3.45906,2.24517 -0.53278,0 -1.2562,-0.34609 -1.65915,-0.79375 z M -2.2779719,140.28848 c 3.617435,-1.643 5.3878826,-6.43866 3.7268423,-10.095 -0.78372771,-1.72517 -2.7133306,-3.47834 -4.46448,-4.05627 -0.7163004,-0.2364 -2.2236854,-0.36318 -3.3497444,-0.28173 l -2.0473801,0.1481 -1.3996539,0.92624 -1.399654,0.92625 -0.925304,1.85685 -0.925304,1.85684 v 1.88234 c 0,2.3171 0.611378,3.80769 2.169555,5.28954 2.2452867,2.13531 5.8818802,2.78826 8.6151231,1.54684 z m -4.0819003,-3.36485 c -2.2234848,-0.61869 -4.4399788,-1.81311 -5.0919658,-2.74395 -0.303863,-0.43383 -0.552479,-1.37693 -0.552479,-2.09579 v -1.30701 l 0.92952,-0.73116 0.929519,-0.73116 h 2.0319321 c 1.1175624,0 3.1127274,0.33382 4.4337001,0.74183 l 2.4017684,0.74183 1.16316929,1.16317 1.16316931,1.16317 -0.011219,1.18181 c -0.019933,2.09962 -1.40477475,3.14078 -4.1107273,3.09053 -0.9343876,-0.0173 -2.4132616,-0.23032 -3.2863871,-0.47327 z M 4.9108153,123.75831 c 0.027446,-0.66494 -0.4621911,-0.52975 -0.9582616,0.26458 -0.2423447,0.38806 -0.6558788,0.70556 -0.9189646,0.70556 -0.4679308,0 -7.8079448,-2.6728 -8.4790616,-3.08757 -0.1868544,-0.11548 2.7363072,-1.25396 6.4959147,-2.52995 3.7596075,-1.27599 6.8903441,-2.49571 6.9571925,-2.7105 0.068998,-0.22169 -2.4384551,-1.34753 -5.8000656,-2.60421 -3.2568844,-1.21752 -6.1200455,-2.37092 -6.3625802,-2.56309 -0.2425347,-0.19217 -0.4409722,-0.64747 -0.4409722,-1.01177 0,-1.27188 -0.5706883,-0.64618 -1.3264566,1.45431 -0.7383945,2.05221 -0.6334121,2.67378 0.2681232,1.5875 0.2415432,-0.29104 0.803043,-0.52917 1.2477775,-0.52917 0.746423,0 6.5133338,2.03172 6.5133338,2.29469 0,0.0639 -2.26218756,0.86278 -5.0270834,1.77521 -2.7648959,0.91242 -5.2149979,1.8384 -5.444671,2.05772 -0.536616,0.51244 -1.8927792,3.96804 -1.6518322,4.20898 0.1006531,0.10066 0.6449261,-0.0805 1.2094957,-0.40249 l 1.0264903,-0.58549 2.915328,1.02598 c 1.6034304,0.56429 3.94541878,1.43944 5.20441855,1.94477 l 2.28909045,0.9188 0.1128145,0.70105 c 0.062048,0.38559 0.200009,0.93919 0.30658,1.23023 l 0.1937656,0.52917 0.8257113,-2.11667 c 0.4541412,-1.16417 0.833902,-2.31511 0.8439129,-2.55764 z m 6.4552877,-15.06642 c 0.911587,-1.8351 1.511005,-3.42705 1.332039,-3.53765 -0.178965,-0.11061 -0.497692,0.12084 -0.708281,0.51433 -0.21059,0.39349 -0.575742,0.71714 -0.811451,0.71923 -0.736252,0.007 -11.18828213,-5.0697 -11.18828213,-5.4338 0,-0.18995 0.34517236,-0.71277 0.76704969,-1.161842 L 1.5242272,98.975671 h 1.7023949 c 0.9363171,0 1.7023948,-0.127117 1.7023948,-0.282481 0,-0.326408 -2.9821583,-1.834548 -3.6254096,-1.833446 -0.2373442,4.06e-4 -1.65188921,2.547015 -3.1434333,5.659126 l -2.7118983,5.6584 1.9082897,0.93591 c 1.0495594,0.51475 2.0304662,0.81374 2.17979289,0.66441 0.14932669,-0.14933 -0.00499,-0.42624 -0.34292699,-0.61536 -0.3379365,-0.18912 -0.8508267,-0.80099 -1.1397558,-1.35972 l -0.5253258,-1.01586 0.216653,-1.08327 c 0.1191591,-0.5958 0.3952467,-1.08071 0.6135279,-1.07758 0.2182813,0.003 2.8376518,1.19378 5.8208235,2.64589 l 5.4239485,2.64019 -0.2116567,1.05829 c -0.1164112,0.58205 -0.092703,1.05828 0.052685,1.05828 0.1453879,0 1.0101851,-1.50145 1.9217721,-3.33656 z m 129.143967,2.14083 -0.19404,-1.19573 5.51615,-2.77302 5.51616,-2.77302 0.3391,0.52917 c 0.59792,0.93303 0.37475,2.38579 -0.53203,3.46344 -0.48507,0.57647 -0.88195,1.22193 -0.88195,1.43434 0,0.21242 0.87313,-0.042 1.94028,-0.56539 1.06715,-0.52338 1.94028,-1.07926 1.94028,-1.23529 0,-0.25928 -5.21596,-10.865541 -5.49018,-11.163873 -0.20062,-0.218255 -4.03482,1.474842 -4.03482,1.781684 0,0.158324 0.74383,0.287862 1.65296,0.287862 h 1.65295 l 0.81649,0.76705 c 0.44907,0.421877 0.81649,0.940187 0.81649,1.151807 0,0.21161 -2.46106,1.61226 -5.46903,3.11253 l -5.46903,2.72778 -0.73398,-0.73398 c -0.40369,-0.40369 -0.8315,-0.63646 -0.9507,-0.51727 -0.24532,0.24533 3.14199,6.88457 3.51653,6.8925 0.13332,0.003 0.15509,-0.53294 0.0484,-1.19059 z M 16.194159,99.416551 c 1.054092,-1.89172 2.36378,-4.103094 2.910417,-4.914164 0.546637,-0.81107 0.993886,-1.653509 0.993886,-1.872087 v -0.397415 l -0.784051,0.549171 c -0.431228,0.302044 -0.978366,0.549171 -1.215863,0.549171 -0.456226,0 -8.003751,-4.937798 -7.812864,-5.11139 0.06126,-0.05571 2.968889,-0.364365 6.461389,-0.685892 7.027918,-0.647007 8.290278,-0.8344 8.290278,-1.230666 0,-0.14801 -2.554628,-1.971312 -5.67695,-4.051781 l -5.676949,-3.782672 0.215615,-0.859078 c 0.118588,-0.472492 0.08075,-0.859077 -0.08408,-0.859077 -0.376051,0 -2.535968,2.978657 -2.535968,3.497255 0,0.548091 0.544707,0.473016 1.058333,-0.145866 0.241543,-0.291042 0.554867,-0.529167 0.696275,-0.529167 0.348383,0 6.415181,3.942249 6.277964,4.079466 -0.05983,0.05983 -2.623403,0.347986 -5.696822,0.640339 -3.073418,0.292354 -5.6242936,0.58031 -5.6686117,0.639902 -0.7016814,0.943509 -2.3115829,3.461638 -2.3115829,3.615663 0,0.112855 0.5953125,0.110647 1.3229167,-0.0049 l 1.3229167,-0.210097 4.4979172,3.04412 4.497916,3.04412 v 0.712778 c 0,1.100337 -0.659238,2.077504 -1.401571,2.077504 -0.369156,0 -2.863883,-1.252046 -5.543838,-2.782325 l -4.8726465,-2.782325 0.089537,-1.09823 c 0.049245,-0.604027 -0.03013,-1.097183 -0.1763889,-1.095903 -0.3404361,0.003 -3.6173149,5.765848 -3.6173149,6.361574 v 0.448228 l 0.6451391,-0.583843 c 0.3548265,-0.321113 0.950139,-0.575863 1.3229167,-0.56611 0.3727777,0.0098 2.8209026,1.265795 5.4402777,2.791204 l 4.7624998,2.773472 -0.08954,1.08935 c -0.04924,0.59915 0.03013,1.08931 0.176389,1.08926 0.146259,-5e-5 1.128365,-1.54786 2.182457,-3.439583 z M 134.23779,95.985075 c 1.08686,-0.480662 1.88498,-1.021383 1.7736,-1.201604 -0.11139,-0.18022 -0.51797,-0.24518 -0.90353,-0.144355 -0.38555,0.100824 -1.26737,0.07707 -1.9596,-0.0528 l -1.25859,-0.236114 -1.39144,-1.391434 C 129.73294,92.193479 129.1068,91.26848 129.1068,90.903215 V 90.2391 l 2.31068,-1.505472 2.31069,-1.505472 0.39394,0.393943 c 0.65502,0.65502 0.45213,2.477941 -0.37363,3.356921 -1.48886,1.584811 -0.28446,1.242684 2.63509,-0.748538 2.74636,-1.873104 3.43812,-2.5437 2.62397,-2.5437 -0.1814,0 -0.74594,0.158213 -1.25455,0.351584 l -0.92474,0.351585 -1.0385,-0.537033 c -0.57118,-0.295368 -1.03249,-0.731393 -1.02512,-0.968945 0.0193,-0.623143 3.78034,-3.146202 4.48705,-3.010103 0.76242,0.146829 2.18896,2.649512 2.19654,3.853531 0.003,0.50741 -0.3298,1.349208 -0.73997,1.870662 -1.36442,1.734572 -0.0334,1.573891 2.24583,-0.271111 l 0.9709,-0.785937 -3.36658,-4.925033 c -1.85162,-2.708768 -3.51742,-4.977477 -3.70178,-5.041576 -0.18981,-0.066 -0.24787,0.320046 -0.13387,0.890051 l 0.20132,1.006594 -0.64544,0.555866 c -0.355,0.305726 -2.59346,1.865967 -4.97437,3.467203 l -4.32892,2.911338 -0.87455,-0.573026 c -0.481,-0.315164 -0.87455,-0.410488 -0.87455,-0.21183 0,0.373351 6.64266,10.238402 6.89405,10.238402 0.0778,0 1.03064,-0.393268 2.1175,-0.873929 z M 29.402844,80.205 c 2.061618,-2.465744 3.748396,-4.658009 3.748396,-4.8717 0,-0.590533 -2.549281,-3.513816 -2.88391,-3.307004 -0.161149,0.09959 -0.133819,0.478512 0.06073,0.842037 0.194553,0.363524 0.353732,1.441664 0.353732,2.395865 v 1.734911 l -0.79375,1.165597 c -0.436562,0.641078 -1.05837,1.330109 -1.381795,1.531179 l -0.588046,0.365583 -2.057788,-1.724062 c -1.131783,-0.948234 -2.137163,-1.786203 -2.234177,-1.862154 -0.09701,-0.07595 0.214525,-0.454996 0.692307,-0.842322 l 0.868696,-0.704229 0.895193,0.172449 c 0.492356,0.09485 1.277205,0.291671 1.744108,0.437388 l 0.848914,0.264941 -0.24532,-0.396937 c -0.37842,-0.612296 -5.529457,-4.750682 -5.700394,-4.579745 -0.08314,0.08314 0.148305,0.738571 0.51433,1.456507 0.678094,1.330043 0.638207,2.404592 -0.112382,3.027526 l -0.418303,0.34716 -2.013019,-1.63106 c -1.10716,-0.897084 -2.013019,-1.821637 -2.013019,-2.054564 0,-0.232926 0.728178,-1.094713 1.618173,-1.915081 l 1.618172,-1.49158 0.939467,0.178947 c 0.516706,0.09842 1.317907,0.297235 1.780446,0.441812 l 0.840981,0.262865 -0.135425,-0.367123 c -0.07448,-0.201918 -0.826143,-0.94121 -1.670354,-1.642873 l -1.53493,-1.275749 -3.844931,4.648842 c -2.114713,2.556862 -3.844932,4.780207 -3.844932,4.940765 0,0.40792 0.618606,0.365237 0.881945,-0.06085 0.119915,-0.194028 0.455392,-0.352778 0.745504,-0.352778 0.290112,0 2.516064,1.627187 4.946561,3.615972 l 4.419084,3.615972 -0.186476,1.169792 c -0.102562,0.643385 -0.05591,1.119635 0.103669,1.058333 0.15958,-0.0613 1.976923,-2.128885 4.03854,-4.594629 z m 98.921536,2.34779 c 2.62205,-1.095292 4.66967,-3.912749 4.65522,-6.405426 -0.0115,-1.984429 -1.12506,-4.095316 -3.89678,-7.386777 -2.49767,-2.966035 -3.4823,-3.706294 -2.72812,-2.051051 l 0.40778,0.894976 -0.50354,0.486265 c -2.01679,1.94762 -8.7265,7.237312 -9.18668,7.24244 -0.74339,0.0083 -2.42935,-1.686816 -2.42935,-2.442528 0,-0.831258 7.84314,-8.48724 8.69472,-8.48724 0.37904,0 0.87702,0.187854 1.10662,0.417453 0.2296,0.2296 0.53058,0.304331 0.66884,0.16607 0.24596,-0.245961 -4.74846,-5.522412 -5.22724,-5.522412 -0.13352,0 -0.0624,0.477919 0.15811,1.062042 l 0.40088,1.062041 -4.04174,4.053236 -4.04174,4.053236 h -0.72895 c -0.40092,0 -0.90153,-0.172582 -1.11246,-0.383516 l -0.38352,-0.383516 -0.20369,0.32958 c -0.11203,0.181269 1.11957,1.624358 2.7369,3.206865 1.61732,1.582506 4.1336,4.279985 5.59171,5.994396 l 2.65113,3.117111 1.53952,0.76204 c 1.81465,0.898227 4.04121,0.979638 5.87238,0.214715 z m -6.27314,-1.814163 c -0.90114,-0.335829 -2.11788,-1.613399 -2.09273,-2.197367 0.0292,-0.678046 8.50148,-7.787811 9.28027,-7.787811 0.66597,0 1.63191,1.740929 1.63191,2.941223 0,2.91576 -6.33023,7.971612 -8.81945,7.043955 z M 36.97239,71.282006 c -0.111208,-0.111208 -0.627213,-0.0085 -1.146678,0.228139 l -0.944481,0.430334 -3.323202,-3.309383 c -1.82776,-1.820161 -3.261582,-3.371003 -3.186269,-3.446316 0.07531,-0.07531 3.337328,0.208089 7.248924,0.62978 3.911596,0.421691 7.198267,0.680437 7.303713,0.57499 0.105447,-0.105446 -1.899044,-2.381393 -4.454423,-5.057661 l -4.646144,-4.86594 0.184052,-0.970139 c 0.101229,-0.533577 0.06232,-0.970139 -0.08646,-0.970139 -0.487957,0 -3.378183,3.154041 -3.123556,3.408669 0.136654,0.136653 0.436315,0.06061 0.665915,-0.168993 0.229599,-0.2296 0.667489,-0.417454 0.973088,-0.417454 0.305599,0 1.742287,1.197423 3.192639,2.660939 l 2.637005,2.660938 -1.411112,-0.205787 C 36.079295,62.3508 33.504751,62.055516 31.134196,61.807796 l -4.310099,-0.4504 -1.673862,1.699415 -1.673861,1.699416 h 1.418174 1.418174 l 3.772036,3.827835 3.772037,3.827836 v 0.737455 c 0,0.405601 -0.161339,0.837169 -0.358532,0.959041 -0.197193,0.121872 -0.25634,0.386936 -0.131438,0.589031 0.130168,0.210617 0.99122,-0.396681 2.017427,-1.422888 0.984684,-0.984684 1.699346,-1.881323 1.588138,-1.992531 z m 73.78851,-9.886041 6.33431,-3.360261 0.89052,0.223505 c 0.48978,0.122928 0.89051,0.132655 0.89051,0.02162 0,-0.385232 -3.00098,-3.032003 -3.44771,-3.040777 l -0.44911,-0.0088 0.59174,0.903104 0.59173,0.903103 -0.49541,0.455251 c -0.74496,0.684573 -7.37457,4.118669 -7.37457,3.81998 0,-0.522749 2.56653,-8.031737 2.85121,-8.341903 0.17368,-0.189227 0.51158,-0.139513 0.82614,0.121546 0.29274,0.242954 0.71704,0.380141 0.94288,0.304861 0.22584,-0.07528 -0.77896,-1.201539 -2.23288,-2.502797 -1.45393,-1.301257 -2.73464,-2.365922 -2.84603,-2.365922 -0.11138,0 -0.12462,0.515937 -0.0294,1.146527 l 0.17311,1.146528 -2.13557,6.62894 c -1.17457,3.645917 -2.13557,6.78123 -2.13557,6.967362 0,0.186131 0.16195,0.338421 0.3599,0.338421 0.19794,0 3.21033,-1.512118 6.6942,-3.360262 z M 49.127114,60.699282 c 1.478879,-1.164167 2.696178,-2.225748 2.705109,-2.359071 0.0089,-0.133322 -0.511974,-0.156686 -1.157568,-0.05192 l -1.173808,0.190483 -3.770027,-4.710579 -3.770028,-4.710579 0.790546,-0.65053 0.790545,-0.65053 1.198433,0.194479 c 0.659138,0.106963 1.497216,0.464875 1.862397,0.795358 0.36518,0.330484 0.763869,0.500973 0.885976,0.378866 0.236424,-0.236423 -0.367142,-1.226476 -1.701298,-2.79071 l -0.818096,-0.959178 -5.02612,4.054039 -5.02612,4.054039 1.321954,1.714344 c 0.727074,0.942888 1.455722,1.591307 1.619218,1.440929 0.163496,-0.150377 0.123808,-0.59752 -0.08819,-0.993651 -0.618232,-1.155178 -0.449112,-2.417212 0.466474,-3.480977 0.468563,-0.544396 0.917834,-0.910436 0.998379,-0.813422 0.08055,0.09701 1.760925,2.192611 3.734178,4.656882 3.358012,4.19361 4.089946,5.574426 3.234955,6.10284 -0.424386,0.262285 -0.476821,0.990439 -0.05928,0.823148 0.161426,-0.06468 1.503493,-1.070092 2.982372,-2.234259 z m 48.782603,-2.266807 c -0.33812,-0.37362 -0.561162,-0.947804 -0.495648,-1.275966 0.188406,-0.94373 6.399461,-9.265787 7.103411,-9.5177 0.34886,-0.124842 0.86863,-0.0325 1.15505,0.205209 0.54031,0.448419 1.06733,0.252652 0.74106,-0.275273 -0.38118,-0.616759 -5.91783,-4.413523 -6.12863,-4.202718 -0.12057,0.120564 0.0696,0.538325 0.42257,0.928359 l 0.64177,0.709151 -0.38643,0.792317 c -0.21254,0.435774 -1.792329,2.617942 -3.510652,4.849261 l -3.124223,4.056945 -1.131433,-0.08954 c -0.622288,-0.04925 -1.127241,0.03013 -1.122118,0.176389 0.01392,0.397557 5.38082,4.273123 5.95439,4.299809 l 0.495648,0.02306 z M 57.140129,54.466218 c 0,-0.168722 -0.379556,-0.211505 -0.843458,-0.09507 l -0.843459,0.211695 -0.27117,-0.438763 c -0.149144,-0.241319 -0.375025,-0.92887 -0.501958,-1.52789 l -0.230788,-1.089127 1.936055,-1.30243 1.936055,-1.30243 0.559836,0.299615 c 0.30791,0.164789 0.868514,0.6407 1.245786,1.057581 l 0.68595,0.757966 -0.449757,0.720174 c -0.247366,0.396096 -0.383435,0.786496 -0.302375,0.867555 0.08106,0.08106 1.376987,-0.655314 2.879838,-1.636386 1.502852,-0.981072 5.25305,-3.045919 8.333773,-4.588549 l 5.601316,-2.804781 -0.139057,-0.44388 c -1.07495,-3.431322 -1.357157,-4.148046 -1.633272,-4.148046 -0.178434,0 -0.324426,0.690898 -0.324426,1.53533 v 1.53533 l -0.794949,1.179624 c -0.917885,1.362051 -2.860967,2.614182 -3.610436,2.326584 -0.571209,-0.219194 -5.472393,-9.767179 -5.472393,-10.660758 0,-0.311033 0.357188,-0.863492 0.79375,-1.227687 1.372596,-1.145064 0.01794,-0.747369 -3.358438,0.985958 l -3.256145,1.671604 1.159619,0.115613 1.159618,0.115613 2.720937,5.470791 2.720937,5.47079 -0.832832,0.679493 c -0.458058,0.373721 -0.97484,0.679492 -1.148406,0.679492 -0.173565,0 -3.177292,-1.926394 -6.674948,-4.280877 -3.497656,-2.354482 -6.451821,-4.18843 -6.564812,-4.075439 -0.112991,0.11299 0.40022,3.478207 1.140468,7.478258 l 1.345905,7.272822 -0.402897,0.64514 c -0.221593,0.354827 -0.320593,0.727445 -0.219999,0.828039 0.24261,0.24261 3.656132,-1.88885 3.656132,-2.282951 z m -2.971692,-4.576634 c -0.165568,-0.506444 -0.908864,-4.096928 -0.908864,-4.390255 0,-0.09469 0.966147,0.483928 2.146993,1.285825 l 2.146993,1.457995 -0.647687,0.441329 c -0.356228,0.242731 -1.082633,0.720997 -1.614233,1.062813 l -0.966545,0.621483 z m 37.014748,1.423893 1.411111,-0.386037 1.59416,-1.642901 c 1.555732,-1.603299 2.471363,-3.61099 2.455037,-5.383131 -0.01205,-1.307925 -1.196918,-3.553297 -2.506813,-4.750504 -1.562289,-1.427889 -7.006853,-4.854745 -7.279695,-4.581904 -0.117081,0.117081 -0.02502,0.400729 0.20458,0.630328 0.229599,0.2296 0.417453,0.648736 0.417453,0.931414 0,0.511805 -4.881487,8.47023 -5.939702,9.683661 l -0.555818,0.637344 -0.809184,-0.203093 c -1.55771,-0.39096 -0.784692,0.463749 2.101232,2.323287 2.708014,1.744902 5.726269,3.095627 6.967361,3.118024 0.291042,0.0053 1.164167,-0.164168 1.940278,-0.376488 z M 85.471126,49.51818 c -0.425243,-0.205496 -0.848871,-0.570904 -0.941396,-0.812019 -0.09252,-0.241116 1.260159,-2.681614 3.005964,-5.42333 l 3.17419,-4.984938 h 0.652018 c 0.35861,0 0.98104,0.418284 1.383179,0.92952 l 0.73116,0.929519 v 1.551653 1.551652 l -0.862403,1.701871 c -2.072042,4.088978 -4.674344,5.74889 -7.142712,4.556072 z"
                              id="path8491" />
                              <path
                              style="fill:#00abec"
                              d="m 70.281101,201.37331 c 1.11566,-0.07 2.941285,-0.07 4.056945,0 1.11566,0.07 0.202847,0.12729 -2.028472,0.12729 -2.23132,0 -3.144132,-0.0573 -2.028473,-0.12729 z m -5.379861,-1.6835 c -0.485069,-0.0704 -3.328092,-0.31185 -6.317828,-0.53654 -2.989736,-0.22469 -5.767861,-0.46424 -6.173611,-0.53233 -0.40575,-0.0681 -2.087103,-0.30226 -3.736339,-0.52037 -9.907363,-1.31024 -21.597512,-4.36823 -30.408623,-7.95451 -4.598685,-1.87174 -7.308056,-3.21359 -11.1647399,-5.52949 l -2.9441956,-1.76795 0.2265524,-4.80661 c 0.802329,-17.02249 3.3986317,-30.80451 8.6797781,-46.07509 2.316869,-6.69929 4.277816,-11.29333 7.757747,-18.17458 6.867227,-13.57933 14.420656,-23.979536 24.898426,-34.282299 8.366098,-8.226362 15.719796,-13.696133 26.175629,-19.469753 l 3.641407,-2.010753 3.23776,1.842103 c 10.254957,5.834492 17.338683,11.383281 26.344707,20.636205 19.48359,20.017737 33.17542,47.919887 38.2737,77.996737 1.21184,7.14912 2.07672,19.47901 1.43877,20.51124 -0.13043,0.21105 -2.01504,1.56496 -4.18801,3.0087 -11.62923,7.72653 -25.48412,12.80992 -42.756407,15.6874 -4.392501,0.73177 -5.388219,0.85831 -11.301474,1.43622 -3.655254,0.35724 -20.120145,0.76855 -21.683249,0.54167 z m 21.166667,-6.86231 c 17.268193,-2.13745 33.080583,-6.75918 47.889583,-13.99741 l 4.67431,-2.28467 v -2.22115 c 0,-3.97015 -0.69597,-11.20031 -1.60603,-16.68433 C 133.15178,134.29512 123.11734,112.30271 108.05971,94.155213 104.327,89.656554 96.379871,81.873757 91.836097,78.267089 87.661984,74.953843 82.497026,71.477527 78.428875,69.243253 l -2.876532,-1.579824 -2.944301,1.569197 c -3.864978,2.059881 -5.777825,3.273354 -9.823468,6.231816 -11.690668,8.549046 -22.541537,20.682975 -31.355295,35.062898 -6.129012,9.99968 -10.611808,19.67617 -14.341828,30.95805 -3.696891,11.18168 -5.650161,21.27708 -6.047124,31.25431 l -0.218889,5.50153 4.19754,2.13996 c 13.149587,6.70384 28.000726,11.01888 43.355873,12.59717 l 4.938889,0.50765 9.877778,-0.14368 c 5.432778,-0.079 11.227153,-0.31069 12.876389,-0.51483 z M 61.020685,191.52012 C 56.478254,191.06691 50.08533,190.18777 47.085962,189.60385 36.247371,187.49377 24.502576,183.44301 15.704791,178.78054 l -3.158948,-1.67411 0.09319,-3.69941 c 0.238331,-9.4607 2.746961,-22.06551 6.598831,-33.15635 10.31059,-29.68769 29.957482,-55.432819 52.282638,-68.510753 1.889196,-1.106679 3.645328,-2.019491 3.902518,-2.028472 0.257189,-0.009 1.606564,0.645207 2.998611,1.453753 16.691605,9.695015 30.818349,24.417033 41.624199,43.378162 8.76595,15.3817 14.96725,34.90419 16.45829,51.81287 0.19677,2.23132 0.35911,5.21729 0.36077,6.63549 l 0.003,2.57854 -4.84306,2.29577 c -15.39028,7.29552 -31.31525,11.75802 -47.720836,13.37237 l -5.115277,0.50335 -8.466667,-0.0492 c -4.656667,-0.0271 -9.022292,-0.10465 -9.701389,-0.17241 z m 1.763889,-11.38179 v -5.26789 l -0.617362,-0.19034 c -0.339548,-0.10468 -2.998611,-0.68018 -5.909027,-1.27889 -9.819924,-2.02008 -25.048285,-6.04651 -25.83178,-6.83 -0.363721,-0.36372 1.877241,-9.24209 3.806727,-15.0817 0.938682,-2.84093 2.459305,-6.80968 3.379162,-8.81945 0.919857,-2.00976 1.702631,-3.70171 1.739497,-3.75989 0.03687,-0.0582 5.483074,-0.0941 12.102684,-0.0799 l 12.035654,0.0258 0.02829,-0.44923 c 0.01556,-0.24707 0.03992,-2.67172 0.05414,-5.38811 l 0.02585,-4.93889 -15.87512,-0.0917 -15.87512,-0.0918 -1.972952,4.2026 c -4.917429,10.47463 -9.374238,25.9976 -10.876251,37.88174 l -0.435792,3.44805 0.334682,0.33468 c 0.640527,0.64053 17.294338,5.94968 23.64777,7.53879 5.909049,1.47796 17.010537,3.75232 19.79797,4.05599 l 0.440973,0.048 z m 38.276386,2.12053 c 8.47765,-1.66537 15.11947,-3.77523 20.64701,-6.55877 2.84771,-1.43404 7.53861,-4.48049 7.96745,-5.17438 0.58577,-0.94779 -0.33062,-8.5723 -1.85616,-15.44348 -1.3539,-6.09815 -4.36397,-15.68539 -7.95173,-25.3267 l -0.6892,-1.85208 H 103.01364 86.848949 l -0.214132,0.55802 c -0.266302,0.69397 -0.286867,54.93362 -0.02109,55.62622 l 0.193041,0.50305 5.18682,-0.78478 c 2.852751,-0.43163 6.933071,-1.12783 9.067372,-1.5471 z m -4.677691,-27.27972 0.09158,-17.02152 7.815881,-0.0949 7.81589,-0.0949 1.04888,2.74675 c 2.64921,6.93757 4.27246,13.0977 5.22916,19.84434 l 0.52527,3.70417 -1.16337,0.9951 c -1.75288,1.49933 -7.14298,3.98732 -10.43346,4.81592 -3.78767,0.9538 -9.496045,2.12648 -10.351306,2.12648 h -0.67011 z m -15.872984,24.43975 c 0.144766,-0.005 0.303516,-19.81395 0.352778,-44.01891 l 0.08957,-44.009031 4.424739,4.409722 4.424739,4.409719 2.220799,3.33259 c 2.453582,3.68191 4.400721,7.37698 6.423406,12.18964 l 1.334404,3.175 6.90193,0.0957 6.90192,0.0957 v -0.41803 c 0,-0.5705 -3.49475,-6.79598 -6.11085,-10.88577 C 99.308317,95.030049 89.447103,84.529123 77.876342,76.277714 l -2.370732,-1.69063 -3.450101,2.289305 c -5.098626,3.383179 -8.900599,6.543401 -14.056054,11.683472 -5.200437,5.184918 -9.549586,10.31874 -13.830551,16.325859 -3.018892,4.23615 -7.519949,11.52988 -8.163262,13.22815 l -0.367495,0.97013 h 6.096443 6.096443 l 3.300572,-4.85069 C 56.82878,105.86044 61.397902,99.999171 65.500666,95.800671 l 3.964438,-4.056944 0.01112,43.773843 c 0.0061,24.07561 0.07723,43.83999 0.158033,43.92083 0.108272,0.10834 7.842158,0.0945 10.876024,-0.0195 z"
                              id="path8490" />
                              <path
                              style="fill:black"
                              d="m 66.135962,225.05283 c -3.73891,-0.18623 -12.590813,-0.83809 -13.585464,-1.00044 -0.483133,-0.0789 -3.1803,-0.48256 -5.993703,-0.89711 -16.779098,-2.47236 -32.550314,-7.46624 -48.5069449,-15.35949 -7.9826236,-3.94876 -15.1615891,-8.28274 -22.3761971,-13.50865 l -4.541886,-3.28992 -0.280663,-4.82397 c -0.365826,-6.28773 -0.389398,-18.71552 -0.0471,-24.83515 0.584837,-10.45592 2.91727,-25.13396 5.593268,-35.19854 2.733922,-10.28243 6.487738,-20.28878 11.198973,-29.852512 3.736918,-7.585884 5.5390755,-10.79101 9.4538814,-16.813668 C 8.1291856,62.429006 22.221461,47.824248 39.504732,35.474853 c 9.635022,-6.8845 19.47184,-12.451469 31.922897,-18.066187 l 3.880556,-1.749909 1.234722,0.431355 c 2.336609,0.816302 12.012598,5.584689 16.497726,8.130181 5.844722,3.317116 15.468157,9.710049 20.367557,13.530351 12.26381,9.5627 24.26462,21.756833 33.00748,33.53923 17.0717,23.006826 27.9026,49.336036 31.38306,76.290166 0.94093,7.28696 1.4995,17.95875 1.23204,23.53869 -0.31219,6.51311 -0.8179,12.62952 -1.29411,15.65201 l -0.40953,2.59923 -3.23545,2.40009 c -1.7795,1.32005 -5.28689,3.73289 -7.7942,5.36186 -23.14218,15.03523 -48.97833,24.22869 -76.076746,27.07092 -6.222871,0.65269 -18.995789,1.10347 -24.084772,0.84999 z m 24.341668,-4.86764 c 12.64275,-1.56284 23.74589,-4.03495 34.925,-7.77604 8.09893,-2.7103 14.15798,-5.23775 22.18497,-9.25414 8.47638,-4.24125 20.09334,-11.37772 25.06635,-15.39864 l 1.03742,-0.83881 0.45939,-3.48969 c 0.25266,-1.91934 0.56237,-7.79717 0.68824,-13.06185 l 0.22886,-9.57216 -0.42214,-5.06812 C 172.47789,129.6991 163.72829,104.6056 148.95381,82.042338 142.66361,72.436097 135.7385,63.965098 127.17377,55.400367 118.47837,46.704967 110.47403,40.163918 100.50355,33.605774 93.793512,29.192207 88.953034,26.445359 81.610517,22.884463 l -6.050027,-2.934078 -5.368377,2.472874 c -35.228567,16.227586 -62.9172437,42.67958 -78.8389402,75.31769 -3.4629618,7.098771 -5.8244518,12.876271 -8.2190718,20.108331 -4.249991,12.83553 -7.056987,27.17567 -8.179455,41.78649 -0.408342,5.31527 -0.487796,20.75033 -0.132575,25.75471 l 0.231944,3.26764 1.972917,1.55788 c 4.991331,3.94134 14.0824532,9.54975 21.9048625,13.51335 15.9176225,8.06544 32.6837625,13.27482 51.1527785,15.8936 8.319399,1.17964 11.907009,1.36428 24.165279,1.24368 l 11.641666,-0.11453 z m -24.429862,-5.03615 -1.146528,-0.15418 v -1.40958 -1.40958 l 0.352778,0.21803 c 0.194028,0.11991 0.352778,0.42218 0.352778,0.6717 0,0.81358 1.304489,1.6793 2.350052,1.5596 l 1.001337,-0.11464 0.110061,-0.77338 0.110062,-0.77338 -1.168395,-0.5908 c -1.820981,-0.92078 -2.755895,-1.94326 -2.755895,-3.01401 0,-0.5344 0.256864,-1.2285 0.570809,-1.54245 l 0.570809,-0.57081 1.898635,0.0768 1.898636,0.0768 -0.0013,1.26255 -0.0013,1.26254 -0.7128,-1.16913 -0.712799,-1.16914 -0.961576,0.11081 -0.961577,0.1108 -0.110472,0.77651 -0.110473,0.77652 1.742144,0.88281 c 1.780486,0.90224 2.182968,1.42402 2.182968,2.83 0,1.56747 -1.867611,2.42929 -4.497917,2.07558 z m 8.162614,-0.10245 c -0.409764,-0.16556 -1.084452,-0.73253 -1.499306,-1.25993 l -0.75428,-0.95892 v -1.5752 -1.5752 l 1.223044,-1.22305 1.223044,-1.22304 2.304011,0.11179 2.304011,0.1118 7.23e-4,1.22515 7.23e-4,1.22514 -1.038447,-1.13695 -1.038447,-1.13695 h -0.881827 c -0.51134,0 -1.112554,0.3294 -1.430998,0.78405 l -0.54917,0.78405 v 2.03817 2.03817 l 0.705555,0.70556 c 0.900913,0.90091 2.128893,0.89859 3.279157,-0.006 0.497674,-0.39147 0.996322,-0.56378 1.108106,-0.38291 0.307679,0.49783 -2.037772,1.8033 -3.19418,1.77787 -0.559182,-0.0123 -1.351955,-0.15783 -1.761719,-0.32339 z m 6.477664,-0.21326 0.440972,-0.20534 v -3.12041 -3.1204 l -0.507601,-0.5076 -0.507601,-0.5076 3.014407,-0.24459 c 1.657924,-0.13452 3.075316,-0.18368 3.14976,-0.10924 0.07444,0.0745 0.227774,0.67941 0.340734,1.34436 l 0.205381,1.20899 -0.760297,-0.97013 -0.760297,-0.97014 h -1.205298 -1.205299 v 1.35231 c 0,0.74377 0.100248,1.45256 0.222773,1.57509 0.367555,0.36755 1.538074,-0.43742 1.581685,-1.08773 0.04904,-0.73132 0.621741,1.92342 0.630532,2.92283 l 0.0062,0.70555 -0.526309,-0.97014 -0.526309,-0.97014 h -0.735434 -0.735434 l 0.212717,0.79375 c 0.116994,0.43657 0.214885,1.15094 0.217534,1.5875 l 0.0048,0.79375 h 1.093184 1.093185 l 1.021754,-1.09379 1.021755,-1.09379 -0.225334,1.18199 c -0.123934,0.65009 -0.242219,1.20725 -0.262856,1.23813 -0.02064,0.0309 -1.545646,0.14974 -3.38891,0.26414 -1.843264,0.1144 -3.152952,0.11559 -2.910417,0.003 z m -24.253473,-0.39785 c -1.067152,-0.0664 -2.163083,-0.20019 -2.4354,-0.29723 l -0.495123,-0.17644 0.556116,-0.43126 0.556115,-0.43127 0.245316,-3.0868 0.245316,-3.08681 H 54.71241 c -0.216977,0 -0.39472,-0.11906 -0.394984,-0.26458 -2.65e-4,-0.14552 0.87234,-0.21024 1.939122,-0.14381 l 1.939603,0.12078 -0.677687,0.58478 -0.677688,0.58478 -0.114907,2.99861 -0.114907,2.99861 1.142908,0.11027 1.142909,0.11028 0.885564,-0.95554 0.885564,-0.95554 -0.0048,0.49249 c -0.0026,0.27086 -0.10054,0.84967 -0.217534,1.28623 l -0.212717,0.79375 -0.928994,-0.0653 c -0.510946,-0.0359 -1.802119,-0.11961 -2.869272,-0.18604 z m 32.415484,-0.21775 0.489093,-0.60115 -0.246942,-2.7251 c -0.144551,-1.59518 -0.463368,-2.96425 -0.768907,-3.30187 l -0.521965,-0.57676 0.57325,-0.21998 c 1.19293,-0.45777 1.794282,-0.1584 3.987073,1.98488 l 2.255791,2.20487 -0.233741,-1.94028 -0.23374,-1.94028 -0.580679,-0.44097 -0.58068,-0.44097 1.390343,0.005 1.390343,0.005 -0.504326,0.31916 -0.504325,0.31915 0.327937,3.55616 c 0.180365,1.95588 0.224956,3.55608 0.09909,3.55599 -0.125865,-8e-5 -1.461195,-1.15103 -2.967399,-2.55766 l -2.738554,-2.55751 0.206567,2.27806 0.206567,2.27806 0.623397,0.45584 0.623397,0.45583 H 90.39752 c -0.409271,0 -1.034926,0.1091 -1.390343,0.24244 l -0.646214,0.24244 z m -38.941873,-0.58928 c -0.776111,-0.13896 -1.133298,-0.27518 -0.79375,-0.30272 0.634797,-0.0515 0.779407,-0.6284 0.403229,-1.60871 L 49.303531,211.159 h -1.153783 c -0.634581,0 -1.351409,0.23813 -1.592953,0.52917 l -0.439169,0.52917 0.439169,0.52916 0.43917,0.52917 -0.484168,-0.0248 c -0.634515,-0.0325 -2.006367,-0.6238 -1.521883,-0.65597 0.205368,-0.0136 1.301147,-1.62866 2.435065,-3.58895 l 2.061667,-3.56415 0.262026,0.47735 c 0.144115,0.26254 0.615522,1.82672 1.047571,3.47596 0.43205,1.64923 1.007956,3.35579 1.279792,3.79236 l 0.494248,0.79375 -0.625494,-0.0501 c -0.344021,-0.0275 -1.260493,-0.16376 -2.036605,-0.30272 z m -0.895685,-3.92847 c -0.174497,-0.60843 -0.389834,-1.17881 -0.478528,-1.2675 -0.08869,-0.0887 -0.408734,0.31729 -0.711201,0.9022 l -0.549939,1.06347 0.435732,0.17619 c 0.239653,0.0969 0.702463,0.18872 1.028468,0.20404 l 0.592735,0.0279 z m 48.456303,3.51775 0.641172,-0.49658 -0.436874,-3.12292 -0.436875,-3.12292 -0.733464,-0.20225 -0.733465,-0.20226 1.058334,-0.23638 c 0.582083,-0.13001 1.604612,-0.25516 2.272287,-0.27812 l 1.213953,-0.0417 -0.607124,0.44394 -0.607126,0.44394 0.408209,2.81926 c 0.224515,1.55059 0.650731,3.09706 0.947151,3.43661 l 0.53895,0.61736 h -0.89253 c -0.490885,0 -1.428301,0.0987 -2.083145,0.21932 l -1.190625,0.21933 z m -56.584313,-3.56481 c -1.045689,-1.87478 -2.005199,-3.29505 -2.132246,-3.15616 -0.127046,0.13889 -0.381812,1.15687 -0.566147,2.26219 l -0.335155,2.00968 0.560566,0.5942 0.560566,0.59421 -0.881944,-0.21781 c -0.48507,-0.1198 -1.12007,-0.22241 -1.411112,-0.22803 l -0.529166,-0.0102 0.529166,-0.33449 c 0.299611,-0.18938 0.772358,-1.55088 1.089766,-3.13849 l 0.560598,-2.804 -0.328352,-0.58674 c -0.438949,-0.78435 -0.222544,-0.93128 1.008922,-0.68499 l 1.032515,0.20651 1.396695,2.60809 c 0.81402,1.52005 1.490886,2.42833 1.622474,2.1772 0.124178,-0.23699 0.326953,-1.09738 0.450612,-1.91197 l 0.224834,-1.48108 -0.618615,-0.36028 -0.618615,-0.36028 0.881944,-0.005 c 0.48507,-0.003 1.093693,0.12891 1.352496,0.29296 l 0.470551,0.29828 -0.489041,0.18767 -0.489042,0.18766 -0.472944,2.94823 c -0.260119,1.62153 -0.584348,3.25727 -0.720509,3.63496 l -0.247565,0.68672 z m 62.933331,2.40085 c -2.03028,-0.88303 -2.84792,-3.79289 -1.64022,-5.83736 0.74145,-1.25517 1.84286,-1.76018 3.83885,-1.76018 h 1.5709 l 0.0248,-0.44098 c 0.0413,-0.734 0.62933,0.90647 0.65596,1.8299 l 0.0248,0.85975 -0.98944,-0.94795 c -1.09373,-1.04785 -2.56393,-1.23809 -3.24316,-0.41966 l -0.43844,0.52829 0.15702,2.17076 0.15702,2.17077 0.96345,0.82872 c 0.52989,0.4558 1.18054,0.82873 1.44588,0.82873 0.26533,0 0.95408,-0.39687 1.53055,-0.88194 1.26529,-1.06467 1.63461,-1.12723 1.04074,-0.17629 -0.49912,0.79921 -2.34374,1.7707 -3.32277,1.74998 -0.35873,-0.008 -1.15791,-0.23374 -1.77594,-0.50254 z m -73.92534,-2.15256 c -1.057164,-0.57361 -2.032907,-2.16814 -2.032907,-3.32213 0,-2.23282 1.928495,-4.23952 4.074305,-4.23952 1.388734,0 3.181859,0.97292 3.637926,1.97388 0.521256,1.14403 0.51233,3.04169 -0.0198,4.20959 -0.812484,1.78321 -3.642814,2.47244 -5.659524,1.37818 z m 2.883075,-0.48319 c 0.375457,-0.37545 0.850821,-1.28827 1.056366,-2.02847 0.659311,-2.3743 0.43196,-3.74897 -0.722185,-4.36665 l -0.664052,-0.35539 -0.663133,0.3549 c -0.863861,0.46233 -1.847115,2.94985 -1.871756,4.73534 l -0.01944,1.40838 0.639034,0.46727 c 0.876653,0.64102 1.443101,0.58668 2.245163,-0.21538 z m 82.925685,0.37115 0.52917,-0.36856 -0.79315,-3.06956 c -0.43624,-1.68825 -0.88041,-3.15681 -0.98706,-3.26346 -0.35404,-0.35404 -1.37536,0.54051 -1.6007,1.40202 l -0.22196,0.84856 -0.27177,-0.99597 c -0.14947,-0.54778 -0.13257,-1.12203 0.0375,-1.27611 0.35288,-0.31961 6.13509,-1.89751 6.31052,-1.72208 0.0633,0.0633 0.2311,0.59098 0.37294,1.17266 l 0.25789,1.05761 -0.69797,-0.61736 c -0.38388,-0.33955 -1.05963,-0.61736 -1.50167,-0.61736 h -0.80372 l 0.15985,0.44097 c 0.0879,0.24254 0.44862,1.55222 0.80156,2.91042 0.68138,2.62205 1.11543,3.4643 1.62349,3.1503 0.17205,-0.10633 0.31281,-0.0451 0.31281,0.13617 0,0.18123 -0.45773,0.42105 -1.01718,0.53294 -0.55945,0.11189 -1.47226,0.30332 -2.02847,0.42541 l -1.0113,0.22197 z m -91.961487,-1.56742 c -0.616665,-0.22777 -1.251665,-0.55865 -1.411112,-0.73528 -0.161464,-0.17886 -0.126145,-0.22825 0.07972,-0.11147 0.665761,0.37766 1.052395,-0.23388 1.91644,-3.03122 l 0.85198,-2.75828 -0.431016,-0.69016 -0.431015,-0.69017 0.978661,0.23352 c 0.538264,0.12843 1.454912,0.43697 2.036995,0.68564 l 1.058334,0.45212 -0.606022,0.0288 -0.606021,0.0288 -0.893284,2.92863 c -1.022139,3.35107 -1.056796,3.64938 -0.452312,3.89329 0.936344,0.37783 -1.030789,0.15756 -2.091348,-0.23417 z m 98.302087,-0.22447 0.51977,-0.3287 -0.98052,-3.01083 c -0.53928,-1.65595 -1.23721,-3.15448 -1.55095,-3.33005 l -0.57044,-0.31924 2.52851,-0.81436 2.52851,-0.81436 0.97212,0.33988 0.97212,0.33987 0.11464,0.99484 c 0.0631,0.54717 -0.12307,1.25862 -0.41361,1.58101 l -0.52824,0.58616 1.7286,1.23473 c 0.95072,0.67909 1.73216,1.34117 1.73652,1.47127 0.004,0.13011 -0.46641,0.34074 -1.04616,0.46807 l -1.05409,0.23152 -1.53988,-1.26182 c -0.84694,-0.694 -1.62774,-1.26182 -1.73512,-1.26182 -0.10737,0 -0.0195,0.57251 0.19524,1.27225 0.21603,0.70389 0.70377,1.38814 1.09179,1.53168 l 0.70133,0.25944 -1.71682,0.58498 c -1.89354,0.6452 -2.75697,0.7537 -1.95332,0.24548 z m 2.83162,-5.77909 c 0,-1.13457 -0.80356,-2.09786 -1.61081,-1.931 l -0.68224,0.14101 0.0728,0.7158 c 0.04,0.39368 0.23697,1.14763 0.43764,1.67543 l 0.36485,0.95963 0.70889,-0.37938 c 0.39091,-0.20921 0.70889,-0.73918 0.70889,-1.18149 z m -106.954913,4.06278 c -0.907911,-0.32451 -1.781036,-0.73438 -1.940277,-0.91081 -0.16871,-0.18693 -0.03415,-0.22921 0.322449,-0.10133 l 0.61198,0.21946 0.35576,-0.66475 c 0.400228,-0.74783 2.124447,-5.44693 2.124447,-5.78986 0,-0.47035 -1.565472,-0.19199 -2.223968,0.39546 l -0.692023,0.61736 0.262924,-0.88194 c 0.144608,-0.48507 0.376248,-1.00517 0.514756,-1.15579 0.366347,-0.39837 6.371644,1.87189 6.371644,2.40875 0,0.74009 -0.403746,1.56926 -0.764118,1.56926 -0.18472,0 -0.26575,-0.11906 -0.180067,-0.26458 0.274656,-0.46646 -0.426824,-1.85208 -0.937631,-1.85208 h -0.493442 l -1.121839,3.07953 -1.121838,3.07954 0.613005,0.44824 c 0.798388,0.5838 0.32992,0.52971 -1.701762,-0.19646 z m 112.385233,-1.32443 c 0.11777,-0.30691 0.21413,-2.327 0.21413,-4.48909 v -3.93106 l 2.55764,2.49855 c 1.4067,1.37421 2.92997,2.74516 3.38505,3.04658 l 0.82742,0.54802 -1.66601,0.73695 c -1.99349,0.88182 -2.1517,0.90107 -1.56163,0.19009 l 0.45386,-0.54687 -0.58011,-0.58012 -0.58011,-0.58011 -1.24167,0.59211 c -1.3873,0.66156 -1.63409,1.62529 -0.49263,1.92379 l 0.74903,0.19588 -0.83723,0.46415 c -1.12311,0.62264 -1.48531,0.60233 -1.22774,-0.0689 z m 1.97802,-3.31705 0.52916,-0.33649 -0.97014,-0.97301 -0.97013,-0.97301 v 1.3149 1.3149 l 0.44097,-0.005 c 0.24253,-0.003 0.6791,-0.15682 0.97014,-0.34189 z m -120.737451,2.14217 c -1.37739,-0.64324 -2.2885783,-1.35756 -1.264666,-0.99142 l 0.588165,0.21033 0.205585,-0.53575 c 0.41253,-1.07504 0.179909,-1.49013 -1.065406,-1.90112 l -1.2709891,-0.41946 -0.5507893,0.55079 -0.5507893,0.55079 0.4988622,0.60138 0.4988621,0.60139 -1.2347223,-0.64055 -1.2347222,-0.64055 0.5291667,-0.16591 c 0.2910417,-0.0913 1.7991667,-1.37535 3.3513892,-2.85355 l 2.822222,-2.68764 0.08195,1.41111 c 0.204053,3.51347 0.254917,7.58372 0.09444,7.55699 -0.09701,-0.0162 -0.771365,-0.30723 -1.498557,-0.64683 z m -0.265332,-4.87367 v -1.31489 l -0.970139,0.973 -0.9701388,0.97301 0.5291666,0.33649 c 0.2910422,0.18507 0.7276042,0.33892 0.9701392,0.34189 l 0.440972,0.005 z m 127.328333,2.57908 0.41472,-0.49971 -1.41982,-2.82387 c -0.83439,-1.65952 -1.67851,-2.87981 -2.04722,-2.95951 l -0.6274,-0.13562 1.85208,-0.95645 c 1.01865,-0.52605 1.85209,-0.80826 1.85209,-0.62714 0,0.18113 -0.19844,0.39867 -0.44098,0.48342 l -0.44097,0.1541 1.49674,3.0503 1.49673,3.0503 0.61993,0.0159 c 0.34253,0.009 -0.0904,0.39632 -0.96756,0.86601 -1.82422,0.97681 -2.38047,1.09571 -1.78834,0.38223 z m -80.05611,-0.5706 C 40.048957,199.19881 24.55686,195.31765 12.185522,189.3007 10.231736,188.35045 7.3003619,186.74557 5.6713577,185.73429 l -2.961826,-1.83869 0.2044055,-7.09399 c 0.112423,-3.9017 0.5409142,-9.71337 0.9522028,-12.91483 3.6489491,-28.40332 13.926124,-53.43476 30.633694,-74.612498 4.290449,-5.438373 14.606392,-15.704791 19.818073,-19.722932 6.480061,-4.996045 13.427498,-9.443699 19.05,-12.195549 l 2.293056,-1.122302 3.351389,1.84624 c 4.731662,2.606615 10.438056,6.389912 15.169444,10.057231 5.259737,4.076843 15.508614,14.2928 19.966714,19.90259 16.2391,20.43421 27.31145,46.07352 31.15503,72.14306 0.87742,5.9512 1.43357,12.31598 1.43851,16.46271 l 0.004,3.05717 -1.32292,1.0455 c -2.80095,2.21358 -9.18039,6.12751 -13.27472,8.14432 -12.0371,5.92931 -24.42962,9.40076 -41.148657,11.52675 l -4.402319,0.55979 -12.347222,0.12437 c -6.790973,0.0684 -13.855348,-0.0156 -15.698612,-0.18676 z m 28.033249,-1.76833 c 5.913255,-0.57791 6.908973,-0.70445 11.301474,-1.43622 17.272287,-2.87748 31.127177,-7.96087 42.756407,-15.6874 2.17297,-1.44374 4.05758,-2.79765 4.18801,-3.0087 0.37257,-0.60284 0.17396,-7.07176 -0.38064,-12.39735 -1.69819,-16.30714 -6.19733,-32.35506 -13.47495,-48.06363 -4.63966,-10.0146 -10.57396,-19.727475 -17.45338,-28.566576 -1.80852,-2.323699 -5.5901,-6.589888 -8.4035,-9.480421 C 96.111886,71.254919 89.02816,65.70613 78.773203,59.871638 l -3.23776,-1.842103 -3.641407,2.010753 c -5.09477,2.813288 -8.693698,5.084197 -12.951852,8.172569 -4.966833,3.602364 -8.25558,6.411968 -13.223777,11.297184 -10.47777,10.302763 -18.031199,20.702969 -24.898426,34.282299 -3.479931,6.88125 -5.440878,11.47529 -7.757747,18.17458 -5.2811464,15.27058 -7.8774491,29.0526 -8.6797781,46.07509 l -0.2265524,4.80661 2.9441956,1.76795 c 3.8566839,2.3159 6.5660549,3.65775 11.1647399,5.52949 8.811111,3.58628 20.50126,6.64427 30.408623,7.95451 1.649236,0.21811 3.330589,0.45227 3.736339,0.52037 0.40575,0.0681 3.183875,0.30764 6.173611,0.53233 2.989736,0.22469 5.832759,0.46614 6.317828,0.53654 1.563104,0.22688 18.027995,-0.18443 21.683249,-0.54167 z M 58.374851,192.97836 C 43.019704,191.40007 28.168565,187.08503 15.018978,180.38119 l -4.19754,-2.13996 0.218889,-5.50153 c 0.396963,-9.97723 2.350233,-20.07263 6.047124,-31.25431 3.73002,-11.28188 8.212816,-20.95837 14.341828,-30.95805 8.813758,-14.379923 19.664627,-26.513852 31.355295,-35.062898 4.045643,-2.958462 5.95849,-4.171935 9.823468,-6.231816 l 2.944301,-1.569197 2.876532,1.579824 c 4.068151,2.234274 9.233109,5.71059 13.407222,9.023836 4.543774,3.606668 12.490903,11.389465 16.223613,15.888124 15.05763,18.147497 25.09207,40.139907 28.96606,63.484727 0.91006,5.48402 1.60603,12.71418 1.60603,16.68433 v 2.22115 l -4.67431,2.28467 c -14.809,7.23823 -30.62139,11.85996 -47.889583,13.99741 -1.649236,0.20414 -7.443611,0.43582 -12.876389,0.51483 l -9.877778,0.14368 z m 25.929167,-1.73996 c 16.405582,-1.61435 32.330552,-6.07685 47.720832,-13.37237 l 4.84306,-2.29577 -0.003,-2.57854 c -0.002,-1.4182 -0.164,-4.40417 -0.36077,-6.63549 C 135.0131,149.44755 128.8118,129.92506 120.04585,114.54336 109.23998,95.582231 95.11324,80.860213 78.421635,71.165198 c -1.392047,-0.808546 -2.741422,-1.462734 -2.998611,-1.453753 -0.25719,0.009 -2.013322,0.921793 -3.902518,2.028472 -22.325156,13.077934 -41.972048,38.823063 -52.282638,68.510753 -3.85187,11.09084 -6.3605,23.69565 -6.598831,33.15635 l -0.09319,3.69941 3.158948,1.67411 c 11.315919,5.99698 25.748576,10.40524 39.49506,12.06325 6.769256,0.81645 6.388682,0.79565 15.522223,0.84874 l 8.466667,0.0492 z m -23.283333,-6.07331 c -4.793176,-0.78832 -13.262662,-2.55918 -18.475054,-3.8629 -6.353432,-1.58911 -23.007243,-6.89826 -23.64777,-7.53879 l -0.334682,-0.33468 0.435792,-3.44805 c 1.502013,-11.88414 5.958822,-27.40711 10.876251,-37.88174 l 1.972952,-4.2026 15.87512,0.0918 15.87512,0.0917 -0.02585,4.93889 c -0.01422,2.71639 -0.03858,5.14104 -0.05414,5.38811 l -0.02829,0.44923 -12.035654,-0.0258 c -6.61961,-0.0142 -12.065818,0.0218 -12.102684,0.0799 -0.03687,0.0582 -0.81964,1.75013 -1.739497,3.75989 -0.919857,2.00977 -2.44048,5.97852 -3.379162,8.81945 -1.929486,5.83961 -4.170448,14.71798 -3.806727,15.0817 0.783495,0.78349 16.011856,4.80992 25.83178,6.83 2.910416,0.59871 5.569479,1.17421 5.909027,1.27889 l 0.617362,0.19034 v 5.26789 5.2679 l -0.440973,-0.048 c -0.242534,-0.0264 -0.837847,-0.11331 -1.322916,-0.19309 z m 25.593041,-1.0774 c -0.265776,-0.6926 -0.245211,-54.93225 0.02109,-55.62622 l 0.214132,-0.55802 h 16.164692 16.16469 l 0.6892,1.85208 c 3.58776,9.64131 6.59783,19.22855 7.95173,25.3267 1.52554,6.87118 2.44193,14.49569 1.85616,15.44348 -0.42884,0.69389 -5.11974,3.74034 -7.96745,5.17438 -7.26506,3.65851 -15.91345,6.01773 -29.714384,8.10587 l -5.18682,0.78478 z M 101.01246,171.3051 c 6.34424,-1.30538 9.2198,-2.16579 12.39573,-3.70899 1.74625,-0.84851 3.69851,-1.99054 4.33837,-2.53784 l 1.16337,-0.9951 -0.52527,-3.70417 c -0.9567,-6.74664 -2.57995,-12.90677 -5.22916,-19.84434 l -1.04888,-2.74675 -7.81589,0.0949 -7.815878,0.0949 -0.09158,17.02152 -0.09158,17.02153 h 0.67011 c 0.368561,0 2.191358,-0.31301 4.050668,-0.69557 z m -31.378199,8.1333 c -0.0808,-0.0808 -0.151915,-19.84522 -0.158033,-43.92083 l -0.01112,-43.773843 -3.964438,4.056944 c -4.102764,4.1985 -8.671886,10.059769 -14.369061,18.432639 L 47.831033,119.084 H 41.73459 35.638147 l 0.367495,-0.97013 c 0.643313,-1.69827 5.14437,-8.992 8.163262,-13.22815 4.280965,-6.007119 8.630114,-11.140941 13.830551,-16.325859 5.155455,-5.140071 8.957428,-8.300293 14.056054,-11.683472 l 3.450101,-2.289305 2.370732,1.69063 c 11.570761,8.251409 21.431975,18.752335 29.597378,31.517406 2.6161,4.08979 6.11085,10.31527 6.11085,10.88577 v 0.41803 l -6.90192,-0.0957 -6.901934,-0.0957 -1.334404,-3.175 c -2.022685,-4.81266 -3.969824,-8.50773 -6.423406,-12.18964 l -2.220799,-3.33259 -4.424739,-4.409719 -4.424739,-4.409722 -0.08957,44.009031 c -0.04926,24.20496 -0.208012,44.01347 -0.352778,44.01891 -3.033866,0.11397 -10.767752,0.12785 -10.876024,0.0195 z M 3.5345822,197.13609 C 3.309645,195.43834 3.0040773,193.74232 2.8555428,193.36714 l -0.2700626,-0.68214 -1.1458158,2.00268 -1.1458157,2.00267 0.23796664,0.74977 0.23796664,0.74977 -1.09538262,-0.64706 c -1.09205836,-0.6451 -1.52522576,-1.34329 -0.61721664,-0.99486 l 0.47816598,0.18349 1.46211183,-2.4611 c 0.80416147,-1.3536 1.46211187,-2.86252 1.46211187,-3.35315 v -0.89206 l 1.0332896,0.59303 1.0332897,0.59303 0.4142592,2.91834 c 0.2278426,1.60509 0.4752458,2.91834 0.5497849,2.91834 0.074539,0 0.5421772,-0.64417 1.0391956,-1.4315 l 0.9036698,-1.43151 -0.2307381,-0.72699 -0.2307381,-0.72699 1.099907,0.64973 1.099907,0.64973 -0.6587574,0.24369 c -0.3623165,0.13403 -1.4113149,1.52735 -2.3311075,3.09627 -0.9197926,1.56891 -1.7996158,2.85257 -1.9551627,2.85257 -0.1555468,0 -0.466852,-1.38906 -0.6917892,-3.0868 z m 139.4819878,2.10707 0.22703,-0.71531 -1.53887,-2.59206 -1.53888,-2.59206 -0.59064,0.049 c -1.02809,0.0853 -0.63605,-0.37111 1.17834,-1.37181 1.60348,-0.88437 2.26966,-0.91665 1.42192,-0.0689 l -0.33688,0.33688 1.58362,2.73228 c 0.87098,1.50276 1.78866,2.73229 2.03927,2.73229 0.79367,0 1.98976,-1.59354 1.98976,-2.65093 v -1.01796 l 0.32782,0.33514 c 0.18029,0.18433 0.42944,0.74706 0.55366,1.25052 l 0.22586,0.91538 -2.58214,1.51697 c -1.42018,0.83433 -2.71821,1.59323 -2.88452,1.68644 -0.16631,0.0932 -0.20021,-0.15243 -0.0753,-0.54585 z m 11.84301,-35.89657 c 0,-0.10307 -0.40826,-2.72798 -0.90725,-5.83313 -0.89284,-5.55608 -0.96165,-7.442 -0.20187,-5.53293 0.21235,0.53358 0.59396,0.97014 0.84802,0.97014 0.25406,0 2.91705,-0.40055 5.91776,-0.89012 l 5.45584,-0.89011 0.44097,-0.58842 c 0.24253,-0.32363 0.45103,-0.83589 0.46333,-1.13836 l 0.0224,-0.54993 0.27966,0.70555 c 0.42811,1.08006 1.20521,6.52551 0.96545,6.76527 -0.11647,0.11646 -0.37102,-0.20714 -0.56567,-0.71912 -0.19466,-0.51198 -0.60448,-0.93087 -0.91071,-0.93087 -0.30624,0 -3.01585,0.39688 -6.02137,0.88194 -3.00551,0.48507 -5.53701,0.88195 -5.62555,0.88195 -0.40436,0 -0.10069,2.66623 0.43138,3.78749 l 0.59235,1.24829 1.87709,0.85936 c 1.0324,0.47265 1.87709,0.9271 1.87709,1.00989 0,0.0828 -1.11125,0.15052 -2.46944,0.15052 -1.35819,0 -2.46944,-0.0843 -2.46944,-0.18741 z m -166.198886,-8.74446 c -2.007876,-0.75137 -3.440127,-1.94047 -4.255755,-3.53325 l -0.752549,-1.4696 -0.02838,-1.94028 -0.02838,-1.94027 0.984085,-1.88151 0.984085,-1.8815 -0.421827,-0.50827 c -0.232006,-0.27955 -0.326967,-0.60313 -0.211027,-0.71908 0.287769,-0.28776 4.82863,0.59162 4.82863,0.93511 0,0.15103 -0.436562,0.38355 -0.970139,0.51672 -3.369946,0.84109 -5.360329,4.19149 -3.807281,6.40878 0.682914,0.975 3.380758,2.10414 6.1980962,2.59412 l 2.2834907,0.39714 1.3774167,-0.46131 c 0.7575792,-0.25372 1.6968501,-0.8918 2.0872686,-1.41795 l 0.7098518,-0.95663 v -1.56041 -1.56042 l -0.7684336,-1.30239 c -0.4226385,-0.71632 -0.6762525,-1.45155 -0.5635867,-1.63385 0.3135644,-0.50736 0.8022594,-0.0555 1.5722466,1.45383 l 0.7005144,1.37312 -0.00994,2.04253 -0.00994,2.04252 -0.8105419,1.5875 c -0.4457981,0.87313 -1.4486607,2.03689 -2.2285836,2.58615 l -1.4180417,0.99865 -2.0830066,0.15389 -2.0830069,0.15389 z m 163.408266,-6.96977 c -0.40544,-1.76091 -0.73637,-3.46747 -0.73541,-3.79236 l 0.002,-0.59072 0.792,0.9777 0.792,0.9777 5.5803,-1.23633 c 3.06917,-0.67998 5.72823,-1.32775 5.90903,-1.43949 0.1808,-0.11174 0.32872,-0.59067 0.32872,-1.06429 0,-1.88009 0.6283,-0.68432 1.3548,2.57846 0.42123,1.89177 0.76418,3.59834 0.76212,3.79236 -0.002,0.19403 -0.37462,-0.11071 -0.82789,-0.67719 l -0.82414,-1.02997 -5.56726,1.18651 c -3.06199,0.65258 -5.79135,1.41061 -6.06525,1.6845 -0.2761,0.27611 -0.40347,0.79581 -0.28586,1.16638 0.11668,0.36761 0.0569,0.66838 -0.13281,0.66838 -0.18972,0 -0.67666,-1.44074 -1.0821,-3.20164 z m -1.94346,-8.1199 c -0.52946,-1.76421 -0.84978,-3.31202 -0.71183,-3.43958 0.13796,-0.12756 0.31105,-0.0732 0.38466,0.12085 0.0736,0.19402 0.27773,0.58042 0.45361,0.85866 l 0.31979,0.50589 1.41381,-0.93561 1.4138,-0.93561 -0.62223,-2.21611 -0.62223,-2.21611 -1.27578,-0.32248 -1.27578,-0.32247 -0.55484,0.46047 c -0.32449,0.26931 -0.46843,0.73272 -0.34671,1.11623 0.11447,0.36066 0.0662,0.65575 -0.1072,0.65575 -0.27705,0 -2.92346,-7.47679 -2.91174,-8.2264 0.002,-0.15889 0.95702,-1.62912 2.12119,-3.26719 1.16417,-1.63806 2.11667,-3.13292 2.11667,-3.32192 0,-0.37646 -3.20996,0.7856 -4.53123,1.64037 l -0.82706,0.53505 0.17658,0.67525 c 0.0971,0.37139 0.0572,0.749 -0.0886,0.83915 -0.32549,0.20117 -3.00559,-6.46877 -2.71573,-6.75863 0.11402,-0.11401 0.50621,0.16183 0.87154,0.613 l 0.66423,0.82029 5.25362,-2.0539 c 2.88948,-1.12964 5.46481,-2.22069 5.72295,-2.42456 0.25814,-0.20386 0.39801,-0.74379 0.31083,-1.19984 -0.0908,-0.47476 -0.003,-0.77739 0.20507,-0.708 0.19996,0.0666 1.04351,1.85888 1.87456,3.98273 l 1.51099,3.86154 0.0195,1.86812 0.0195,1.86812 -0.86591,0.86591 -0.86591,0.86591 h -1.49603 -1.49604 l -0.96683,-0.92628 -0.96683,-0.92628 -2.13928,3.25794 c -1.1766,1.79187 -2.13928,3.37472 -2.13928,3.51744 0,0.14272 0.30396,0.53457 0.67547,0.87078 l 0.67546,0.61128 7.14492,0.76631 c 3.9297,0.42147 7.18637,0.92506 7.23703,1.11909 0.0507,0.19402 -2.47632,2.42045 -5.61552,4.9476 l -5.70764,4.59483 -0.11273,0.78503 c -0.062,0.43177 -0.23588,0.78504 -0.3864,0.78504 -0.15053,0 -0.70688,-1.44345 -1.23633,-3.20766 z m 7.88939,-7.76564 c 0.0201,-0.21832 -4.60939,-0.743 -4.80753,-0.54486 -0.0601,0.0601 0.13506,0.93206 0.4337,1.93768 l 0.54298,1.8284 1.90558,-1.50383 c 1.04806,-0.8271 1.91444,-1.59992 1.92527,-1.71739 z m -1.88592,-12.69539 c 0.9254,-0.86937 1.10851,-2.32031 0.4063,-3.21941 l -0.44097,-0.56461 -2.73403,1.05616 c -1.50372,0.58088 -2.73403,1.18931 -2.73403,1.35206 0,0.16275 0.42536,0.80142 0.94525,1.41927 l 0.94524,1.12336 1.38249,-0.18543 c 0.76037,-0.10199 1.76376,-0.54362 2.22975,-0.9814 z M -7.8667771,140.48814 c -3.1057559,-0.96605 -5.1736739,-3.81019 -5.1881249,-7.13556 l -0.0077,-1.78282 0.925304,-1.85684 0.925304,-1.85685 1.399654,-0.92625 1.3996539,-0.92624 2.0473801,-0.1481 c 1.126059,-0.0815 2.6405779,0.0477 3.3655975,0.28696 1.8497562,0.61047 3.89954731,2.58285 4.6056245,4.43169 l 0.5986307,1.56749 -0.2057623,1.73734 c -0.6237646,5.26672 -4.922663,8.14667 -9.8655135,6.60918 z m 7.47889602,-3.57581 c 1.1399821,-0.58951 1.43634228,-1.17292 1.43634228,-2.82758 v -1.16932 l -1.20173769,-1.05514 C -1.6728352,130.5261 -5.4284531,129.26183 -7.9392291,129.23926 l -1.9308696,-0.0173 -0.9064663,0.59394 c -0.498557,0.32667 -1.073299,1.0222 -1.277205,1.54563 l -0.370739,0.95169 0.651068,1.22576 c 1.515462,2.85313 8.4299486,4.90181 11.38555992,3.3734 z m 3.37039058,-9.69481 0.2177052,-0.68593 -0.8112934,-0.52633 C 1.3312606,125.31909 -6.9171902,122.259 -7.7090921,122.259 c -0.335751,0 -0.9424256,0.23252 -1.3481658,0.51672 -0.4057401,0.28419 -0.8196006,0.43482 -0.9196899,0.33473 -0.2430602,-0.24306 1.0862338,-3.7433 1.6135892,-4.24883 0.2287925,-0.21932 2.7008109,-1.15284 5.4933742,-2.07449 l 5.077388,-1.67572 -0.5341315,-0.29891 c -0.2937724,-0.16441 -1.84874043,-0.78363 -3.4554846,-1.37606 l -2.9213531,-1.07713 -0.7626959,0.71651 c -0.4194827,0.39409 -0.8650866,0.71652 -0.990231,0.71652 -0.1251444,0 0.1151792,-0.9525 0.5340526,-2.11667 0.7557683,-2.10049 1.3264566,-2.72619 1.3264566,-1.45431 0,0.3643 0.1984375,0.81868 0.4409722,1.00973 0.2425347,0.19105 3.1038516,1.34997 6.358482,2.57539 3.2546304,1.22541 5.8650673,2.39822 5.8009709,2.60625 -0.064097,0.20802 -3.1635384,1.40943 -6.8876487,2.66979 -3.7241104,1.26037 -6.7688713,2.37162 -6.7661353,2.46945 0.00562,0.201 8.1047985,3.19343 8.6153443,3.18314 0.1815224,-0.004 0.6974599,-0.35183 1.1465278,-0.77371 0.4490678,-0.42188 0.816487,-0.58658 0.816487,-0.36601 0,0.80901 -1.4725444,4.30806 -1.8130086,4.30806 -0.1931621,0 -0.2532366,-0.30867 -0.1334988,-0.68593 z m 6.3042132,-16.32062 0.052016,-1.13155 -4.8781039,-2.39639 c -2.6829572,-1.31801 -5.2423914,-2.48781 -5.6876316,-2.59956 l -0.8095277,-0.20318 -0.2356472,0.93889 c -0.3105599,1.23737 0.023937,2.25176 1.133211,3.43653 0.49957246,0.53358 0.72410958,0.97014 0.49897142,0.97014 -0.71949942,0 -3.60321672,-1.53771 -3.60321672,-1.92138 0,-0.62081 5.09535103,-11.108711 5.4026572,-11.120433 0.551776,-0.02105 3.7695652,1.489378 3.7695652,1.76943 0,0.155318 -0.7020071,0.255227 -1.5600158,0.222021 l -1.5600157,-0.06037 -0.90942876,0.854363 c -0.50018582,0.469899 -0.90942877,1.039799 -0.90942877,1.266439 0,0.42569 10.26176363,5.46215 11.12910463,5.46215 0.268256,0 0.678673,-0.35676 0.912038,-0.79281 l 0.424299,-0.79281 0.150729,0.45219 c 0.169255,0.50776 -2.7109927,6.77788 -3.1134934,6.77788 -0.1419543,0 -0.2346914,-0.5092 -0.2060819,-1.13155 z M 138.50627,108.61451 c -1.66805,-3.35792 -1.91303,-4.49464 -0.62617,-2.90544 l 0.67705,0.83612 5.50538,-2.71575 c 3.0633,-1.5111 5.50538,-2.92794 5.50538,-3.1941 0,-0.26309 -0.35719,-0.813446 -0.79375,-1.223012 l -0.79375,-0.744664 -1.76389,-0.11058 -1.76389,-0.11058 1.89497,-0.997812 c 1.04223,-0.548796 2.01836,-0.866296 2.16918,-0.705555 0.43247,0.460913 5.63724,10.542753 5.63724,10.919543 0,0.18603 -0.87313,0.76645 -1.94028,1.28983 -1.06715,0.52339 -1.94028,0.77781 -1.94028,0.56539 0,-0.21241 0.39688,-0.85787 0.88195,-1.43434 0.90492,-1.07544 1.1295,-2.52618 0.53614,-3.46344 l -0.335,-0.52917 -5.51794,2.75128 -5.51794,2.75128 0.15508,1.05661 c 0.0853,0.58114 0.0538,1.11923 -0.0701,1.19575 -0.12383,0.0765 -0.97857,-1.37758 -1.89943,-3.23136 z m -124.670957,-6.87504 0.08954,-1.11675 -2.822222,-1.631546 C 9.5504058,98.093822 7.2271291,96.773192 5.9397909,96.056441 l -2.340615,-1.303185 -0.9225796,0.725701 c -0.5074187,0.399136 -0.9225795,0.555094 -0.9225795,0.346575 0,-0.506701 3.2887269,-6.355352 3.5797943,-6.366283 0.1256229,-0.0047 0.2049979,0.498244 0.1763889,1.117693 l -0.052017,1.12627 5.204949,2.950582 c 2.862722,1.622819 5.364162,2.852181 5.558758,2.731914 0.194597,-0.120267 0.60078,-0.696254 0.902632,-1.279971 l 0.548823,-1.061305 -0.379917,-0.457771 c -0.208953,-0.251774 -2.295807,-1.766685 -4.637454,-3.366469 l -4.2575384,-2.908698 -1.3819319,0.22098 c -0.7600625,0.121539 -1.3779962,0.100041 -1.373186,-0.04777 0.00481,-0.147814 0.5501394,-1.006502 1.2118427,-1.908196 l 1.203097,-1.639444 1.698574,-0.219013 c 0.9342166,-0.120457 3.4185666,-0.361866 5.5207786,-0.536464 2.102212,-0.174598 3.890052,-0.385298 3.972977,-0.468224 0.148783,-0.148782 -3.845122,-2.906128 -5.443278,-3.757976 l -0.823096,-0.438727 -0.678372,0.613919 c -1.174406,1.062822 -1.162719,0.245027 0.0229,-1.602603 1.216722,-1.896097 1.920845,-2.314813 1.574923,-0.936548 l -0.211016,0.840754 5.584156,3.802117 c 3.071286,2.091164 5.650302,3.85595 5.731146,3.921746 0.42462,0.345578 -0.840908,0.55173 -7.407665,1.206692 -3.951272,0.394096 -7.241822,0.774229 -7.312333,0.844741 -0.238255,0.238254 7.312403,5.123752 7.918886,5.123752 0.330739,0 0.891656,-0.26273 1.246483,-0.583843 l 0.645139,-0.583843 v 0.462349 c 0,0.254292 -0.367202,0.953584 -0.816005,1.553982 -0.448802,0.600398 -1.75849,2.795531 -2.910416,4.878075 -1.151927,2.08254 -2.21408,3.7891 -2.360339,3.79236 -0.146259,0.003 -0.225634,-0.49662 -0.176389,-1.11084 z M 128.61308,91.881456 c -1.86276,-2.737651 -3.38684,-5.122561 -3.38684,-5.299799 0,-0.177238 0.40441,-0.05727 0.89868,0.266588 l 0.89869,0.58884 4.30479,-2.929244 c 2.36763,-1.611084 4.59523,-3.178442 4.95023,-3.483017 l 0.64544,-0.553773 -0.19565,-0.978246 c -0.41669,-2.083461 0.21801,-1.289995 6.58576,8.233043 l 0.62544,0.93535 -1.78538,1.145675 c -0.98196,0.630121 -1.87682,1.054238 -1.98857,0.942481 -0.11176,-0.111756 0.1324,-0.629837 0.54258,-1.151291 0.41017,-0.521454 0.74577,-1.329888 0.74577,-1.796521 0,-0.954451 -1.10639,-3.303247 -1.84455,-3.915864 l -0.485,-0.402515 -2.09842,1.393513 c -1.2281,0.815552 -2.09842,1.64873 -2.09842,2.008862 0,0.338441 0.44486,0.828563 0.98857,1.089159 l 0.98858,0.47381 1.0971,-0.382453 c 0.60341,-0.210349 1.1772,-0.302362 1.27509,-0.204474 0.0979,0.09789 0.11183,0.229441 0.031,0.292338 -0.0808,0.0629 -1.43474,1.010873 -3.00866,2.106614 -2.82357,1.965733 -4.04601,2.310058 -2.55081,0.718488 0.82576,-0.87898 1.02865,-2.701901 0.37363,-3.356921 l -0.39394,-0.393943 -2.31069,1.505472 c -1.27087,0.82801 -2.31068,1.749653 -2.31068,2.048097 0,0.725582 1.60132,2.790455 2.56326,3.305268 0.42388,0.226855 1.64774,0.516682 2.71969,0.64406 l 1.94899,0.231596 -2.07237,0.948178 c -1.1398,0.521498 -2.11604,0.948177 -2.16941,0.948177 -0.0534,0 -1.62112,-2.239896 -3.48388,-4.977548 z M 25.157525,84.38353 c 0.127932,-0.317517 0.319404,-0.790518 0.425493,-1.051114 l 0.19289,-0.47381 -4.56813,-3.759523 c -2.512472,-2.067738 -4.812404,-3.759523 -5.110959,-3.759523 -0.298556,0 -0.640942,0.15875 -0.760857,0.352778 -0.255314,0.413106 -0.881945,0.473876 -0.881945,0.08553 0,-0.146986 1.722169,-2.357236 3.827043,-4.911667 l 3.827042,-4.644418 1.624096,1.295694 c 1.66162,1.325631 2.143306,2.092297 1.040569,1.656202 -0.339548,-0.13428 -1.117154,-0.328166 -1.728011,-0.430857 l -1.110651,-0.186712 -1.623377,1.496377 c -0.892858,0.823007 -1.623378,1.69484 -1.623378,1.937406 0,0.242566 0.908119,1.188642 2.018041,2.102391 l 2.01804,1.661362 0.627793,-0.775292 c 0.79385,-0.980363 0.785675,-1.315808 -0.06611,-2.712797 -0.380196,-0.623548 -0.57804,-1.202662 -0.439653,-1.286918 0.138386,-0.08426 1.503311,0.89504 3.033166,2.176216 1.529854,1.281175 2.610218,2.386522 2.400807,2.456325 -0.20941,0.0698 -0.69661,-0.04213 -1.082667,-0.248741 -1.088021,-0.582291 -2.339408,-0.44575 -3.043318,0.332061 -0.352262,0.389246 -0.575304,0.755222 -0.495649,0.813282 0.07966,0.05806 1.035069,0.850836 2.12314,1.761726 1.088072,0.91089 2.145523,1.656163 2.349891,1.656163 0.618491,0 2.154221,-2.064373 2.570604,-3.455482 l 0.391214,-1.307018 -0.518272,-1.503166 c -0.285049,-0.826741 -0.404821,-1.573282 -0.26616,-1.658979 0.295451,-0.182599 2.843023,2.775585 2.843023,3.301254 0,0.44168 -7.331065,9.333594 -7.850731,9.522222 -0.222137,0.08063 -0.280555,-0.09953 -0.142984,-0.440972 z m 97.305735,-2.039883 -1.52826,-0.756468 -2.75655,-3.212004 c -2.63054,-3.06517 -3.25104,-4.230413 -1.7553,-3.296309 l 0.6892,0.430413 0.70382,-0.439541 c 0.3871,-0.241748 2.53548,-1.980305 4.77418,-3.863461 l 4.07037,-3.423919 -0.20217,-1.072093 -0.20217,-1.072094 1.43708,1.5875 c 5.0468,5.575047 6.1127,8.217455 4.63079,11.479872 -1.69528,3.732151 -6.26497,5.418087 -9.86099,3.638104 z m 2.27626,-1.883809 c 3.0058,-1.255902 6.13117,-4.850223 6.13117,-7.051128 0,-1.27105 -0.86023,-2.655261 -1.65012,-2.655261 -0.51886,0 -8.24378,6.173958 -9.19699,7.350472 l -0.44016,0.543277 0.79294,0.854205 c 0.79694,0.858512 1.81597,1.418693 2.65635,1.46024 0.24877,0.0123 1.01683,-0.213513 1.70681,-0.501805 z M 33.366825,74.697425 c -0.124902,-0.202095 -0.06575,-0.467159 0.131438,-0.589031 0.197193,-0.121872 0.358532,-0.55344 0.358532,-0.959041 v -0.737455 l -3.772037,-3.827836 -3.772036,-3.827835 h -1.426794 -1.426794 l 1.652759,-1.65276 1.65276,-1.652759 4.339821,0.437688 c 2.386902,0.240728 4.974821,0.527217 5.750932,0.636641 l 1.411112,0.198954 -2.637005,-2.688049 c -1.450352,-1.478427 -2.88704,-2.688049 -3.192639,-2.688049 -0.305599,0 -0.743489,0.187854 -0.973088,0.417454 -0.2296,0.229599 -0.531503,0.303404 -0.670897,0.164011 -0.139393,-0.139394 0.487391,-0.994277 1.392854,-1.89974 1.61421,-1.61421 2.433866,-1.870944 1.721072,-0.539077 l -0.359922,0.67252 4.784612,5.017385 c 2.631536,2.759562 4.710692,5.091305 4.620345,5.181651 -0.09035,0.09035 -3.138136,-0.154639 -6.772867,-0.544413 -3.634731,-0.389774 -6.950711,-0.70868 -7.368844,-0.70868 h -0.760242 l 3.337454,3.351389 c 1.835599,1.843264 3.586652,3.351389 3.891227,3.351389 0.304575,0 0.741627,-0.187854 0.971226,-0.417454 0.2296,-0.229599 0.531603,-0.303305 0.671118,-0.163789 0.139515,0.139515 -0.551986,1.059314 -1.53667,2.043998 -1.026207,1.026207 -1.887259,1.633505 -2.017427,1.422888 z m 78.875485,-2.639942 c -2.45329,-2.469775 -3.0518,-3.651804 -1.25193,-2.472479 l 0.85272,0.558722 4.30552,-4.265229 4.30551,-4.265228 -0.40552,-1.074355 c -0.22304,-0.590895 -0.29628,-1.074354 -0.16276,-1.074354 0.13353,0 1.42084,1.185981 2.8607,2.635514 2.55196,2.569114 3.12236,3.677439 1.26691,2.461697 l -0.92123,-0.603609 -4.22466,4.172626 c -3.93479,3.886327 -4.75421,5.075967 -3.87188,5.621272 0.41638,0.257342 0.47259,0.881944 0.0794,0.881944 -0.15038,0 -1.42511,-1.159434 -2.83274,-2.576521 z m -8.53551,-7.649991 c 0,-0.191804 0.96378,-3.327116 2.14175,-6.967361 l 2.14175,-6.618627 -0.1793,-1.146528 c -0.0986,-0.63059 -0.0702,-1.141079 0.0631,-1.13442 0.13333,0.0067 1.43303,1.131742 2.88824,2.500184 1.45521,1.368443 2.32834,2.377235 1.94028,2.24176 -0.38806,-0.135475 -0.92902,-0.268371 -1.20215,-0.295324 l -0.4966,-0.04901 -1.33244,3.880555 c -0.73284,2.134306 -1.34281,4.088422 -1.35549,4.342481 l -0.023,0.461925 3.61597,-1.941934 c 1.98878,-1.068064 3.76805,-2.17945 3.95392,-2.469747 l 0.33795,-0.527813 -0.65721,-0.726206 c -0.36146,-0.399413 -0.4847,-0.726206 -0.27385,-0.726206 0.47469,0 3.55317,2.532712 3.58406,2.948661 0.0124,0.166555 -0.38847,0.199682 -0.89076,0.07362 l -0.91325,-0.229211 -6.36912,3.365967 c -3.50302,1.851282 -6.50518,3.365968 -6.67147,3.365968 -0.1663,0 -0.30235,-0.156931 -0.30235,-0.348735 z M 45.85124,62.66038 c 0,-0.182577 0.15875,-0.430071 0.352778,-0.549987 1.05224,-0.65032 0.376792,-1.692634 -6.972605,-10.759722 -0.07864,-0.09701 -0.540726,0.285747 -1.026868,0.85058 l -0.883895,1.026968 0.154593,1.089698 c 0.08503,0.599334 0.275143,1.367511 0.422483,1.707059 0.495187,1.141177 -0.412209,0.636828 -1.715262,-0.953376 l -1.287102,-1.570738 5.036967,-4.048652 5.036966,-4.048652 0.804656,0.945084 c 1.364904,1.603106 1.946496,2.544858 1.714738,2.776616 -0.122107,0.122107 -0.520796,-0.04838 -0.885976,-0.378866 -0.365181,-0.330483 -1.203259,-0.688395 -1.862397,-0.795358 l -1.198433,-0.194479 -0.790913,0.65053 -0.790913,0.65053 3.370408,4.233334 c 1.853724,2.328333 3.696481,4.508842 4.095017,4.845574 l 0.724609,0.612241 0.703011,-0.37624 c 0.386656,-0.206932 0.795248,-0.284003 0.907982,-0.171269 0.112734,0.112735 0.138825,0.255087 0.05798,0.316338 -0.08084,0.06125 -1.364824,1.093127 -2.853286,2.293056 -1.488463,1.199929 -2.79815,2.181689 -2.910417,2.181689 -0.112267,0 -0.204121,-0.149381 -0.204121,-0.331958 z M 94.821018,57.0563 c -1.491692,-1.100804 -2.722004,-2.115778 -2.734028,-2.255497 -0.01202,-0.139719 0.50667,-0.219094 1.152651,-0.176389 l 1.174512,0.07765 3.25975,-4.356623 c 1.792862,-2.396143 3.347337,-4.584868 3.454387,-4.863834 0.10705,-0.278966 -0.0731,-0.803038 -0.4003,-1.164604 -1.269493,-1.402773 0.10231,-0.921135 2.62603,0.921997 1.45521,1.062773 2.794,2.076274 2.97509,2.252226 0.52298,0.508131 -0.0794,0.831807 -0.65658,0.352796 -0.28642,-0.237707 -0.80619,-0.335136 -1.15505,-0.21651 -0.68237,0.232033 -6.810996,8.42128 -7.084238,9.466157 -0.09064,0.346613 0.117807,0.942486 0.463219,1.324161 l 0.628021,0.693956 -0.495648,-0.02701 C 97.756227,59.069917 96.31271,58.157104 94.821018,57.0563 Z M 53.446174,56.65886 c -0.10896,-0.176301 -0.03677,-0.420261 0.160423,-0.542133 0.567741,-0.350883 0.439593,-1.59667 -0.882102,-8.575287 -0.682349,-3.602837 -1.118912,-6.671947 -0.970139,-6.820246 0.148772,-0.148299 2.810495,1.477365 5.91494,3.612587 3.104444,2.135222 6.02306,4.036114 6.485812,4.224206 l 0.841368,0.341985 0.834326,-0.546672 c 0.45888,-0.30067 0.82753,-0.820825 0.819223,-1.155901 -0.0083,-0.335075 -1.159245,-2.831728 -2.557639,-5.548117 l -2.542535,-4.938889 -1.234722,-0.191442 -1.234722,-0.191442 3.299977,-1.682655 c 1.814987,-0.92546 3.401165,-1.581467 3.524839,-1.457793 0.123674,0.123674 -0.05163,0.379593 -0.38956,0.56871 -0.337933,0.189116 -0.614423,0.655575 -0.614423,1.036576 0,0.958516 4.845161,10.547279 5.445998,10.777841 0.637349,0.244574 2.270775,-0.618984 3.344198,-1.768008 l 0.852695,-0.91275 0.161128,-1.942991 c 0.08862,-1.068645 0.295786,-1.94299 0.460367,-1.94299 0.164581,0 0.561239,0.912812 0.881463,2.028472 0.320224,1.11566 0.648872,2.143238 0.730329,2.283507 0.08146,0.14027 -2.366394,1.514136 -5.439669,3.053036 -3.073276,1.5389 -6.84227,3.601749 -8.375543,4.584109 -2.784627,1.784096 -3.65307,2.057394 -2.504404,0.788132 l 0.608717,-0.672625 -0.816667,-0.769485 c -0.449167,-0.423217 -1.066818,-0.906039 -1.372557,-1.07294 l -0.555889,-0.303455 -1.936055,1.30243 -1.936055,1.30243 0.230788,1.089127 c 0.126933,0.59902 0.352814,1.286571 0.501958,1.52789 l 0.27117,0.438763 0.843459,-0.211695 c 0.463902,-0.116432 0.840606,-0.08961 0.837119,0.05961 -0.01096,0.469061 -3.479521,2.564811 -3.687616,2.228105 z m 3.816341,-8.150504 c 0.164326,-0.142977 -0.669111,-0.917236 -1.852083,-1.720577 -1.21579,-0.825627 -2.147109,-1.263196 -2.142235,-1.006503 0.0097,0.512131 0.627512,3.380851 0.882704,4.098877 l 0.166956,0.46976 1.322941,-0.7908 c 0.727618,-0.43494 1.457391,-0.907781 1.621717,-1.050757 z m 29.169094,2.44996 c -1.241184,-0.495369 -7.06648,-4.208092 -7.06648,-4.503786 0,-0.135823 0.436563,-0.240692 0.970139,-0.233044 l 0.970139,0.01391 2.338697,-3.527778 c 1.286283,-1.940277 2.712564,-4.204015 3.169514,-5.030528 l 0.830817,-1.50275 -0.459929,-0.736464 c -0.252961,-0.405055 -0.383781,-0.812612 -0.290711,-0.905683 0.301086,-0.301085 7.081319,4.300004 8.072473,5.478007 1.168137,1.38835 1.812248,3.600067 1.487642,5.108188 -0.508707,2.363459 -2.215239,4.74648 -4.106678,5.734614 -1.081068,0.564776 -4.607125,0.627551 -5.915623,0.105317 z m 4.08678,-2.915049 c 1.765238,-1.93921 3.036543,-4.530469 3.08523,-6.288528 l 0.03616,-1.305654 -0.737202,-0.987401 c -0.43067,-0.576835 -1.071486,-0.987402 -1.541144,-0.987402 H 90.55749 l -3.126736,4.916138 c -1.719704,2.703877 -3.126736,5.040369 -3.126736,5.192206 0,0.151837 0.436563,0.521504 0.970139,0.821482 l 0.970139,0.545415 1.411111,-0.155649 1.411111,-0.155649 z"
                              id="path8489" class="black" />
                           <animate attributeName="opacity" values="0;1" begin="animate_path_1.end" dur="1s" fill="freeze"/> 
                        </g>
                    </g>
                </g>
            </g>
        </svg>