<?xml version="1.0" encoding="UTF-8" standalone="no"?>
<!-- Created with Inkscape (http://www.inkscape.org/) -->

<svg
   width="143.25565mm"
   height="227.18884mm"
   viewBox="0 0 143.25565 227.18884"
   version="1.1"
   id="svg1"
   xml:space="preserve"
   xmlns:xlink="http://www.w3.org/1999/xlink"
   xmlns="http://www.w3.org/2000/svg"
   xmlns:svg="http://www.w3.org/2000/svg"><defs
     id="defs1" /><g
     id="layer1"
     transform="translate(-33.406998,-34.905623)"><g
       id="g1"><path
         style="fill:#fefefe"
         d="m 33.434883,250.25557 c 0,-7.80275 0.12027,-11.76455 0.352778,-11.62085 0.194028,0.11992 0.352778,0.42735 0.352778,0.68318 0,1.32585 0.771346,1.35584 10.486694,0.40769 11.642761,-1.13626 11.032749,-1.13331 11.032749,-0.0534 0,0.47361 0.198437,0.98473 0.440972,1.13581 0.242534,0.15109 3.457222,1.49656 7.143749,2.98996 8.079737,3.27306 13.387325,5.45656 14.816666,6.09547 0.582083,0.26019 3.68903,1.52628 6.904327,2.81354 l 5.845993,2.34048 13.380391,-0.0925 13.3804,-0.0925 v -0.95046 c 0,-0.52275 0.19843,-1.14981 0.44097,-1.39347 0.62301,-0.6259 0.54702,-1.71471 -0.17639,-2.52737 -0.61226,-0.68779 -0.5533,-0.69195 7.14375,-0.50336 7.78793,0.19082 8.99583,0.33814 8.99583,1.09718 0,0.85938 1.8212,3.03685 3.01298,3.60239 0.68461,0.32487 1.40673,0.89333 1.60471,1.26325 0.69302,1.29492 5.38995,5.93823 6.0068,5.93823 0.34252,0 0.72087,0.15875 0.84079,0.35278 0.145,0.23462 -18.57597,0.35277 -55.894454,0.35277 H 33.434883 Z m 114.264797,10.84208 c -0.31039,-0.54579 -1.26289,-1.33523 -2.11666,-1.75431 -0.85377,-0.41907 -1.86981,-1.18375 -2.25787,-1.69927 -2.01865,-2.68172 -4.70499,-5.4274 -5.3101,-5.4274 -0.2147,0 -0.37776,-0.35719 -0.36235,-0.79375 0.02,-0.56791 -0.17274,-0.79375 -0.67755,-0.79375 -0.46532,0 -0.83339,-0.36035 -1.08102,-1.05834 -0.23019,-0.64883 -0.81032,-1.25359 -1.49931,-1.56297 -0.61811,-0.27755 -1.12383,-0.63315 -1.12383,-0.79022 0,-0.15708 7.34218,-0.32687 16.31597,-0.37731 l 16.31597,-0.0917 0.0904,-26.8993 0.0904,-26.89931 h 4.18703 c 2.30287,0 4.68312,-0.0992 5.28946,-0.22049 l 1.10243,-0.22048 v 34.79271 34.7927 l -14.1993,-0.002 -14.19931,-0.002 z M 87.233491,251.2659 c -2.522361,-1.07225 -5.935486,-2.48752 -7.584722,-3.14504 -3.079359,-1.22768 -4.305823,-1.75142 -5.375074,-2.29535 -0.336916,-0.17139 -0.783651,-0.31162 -0.992744,-0.31162 -0.209093,0 -1.255371,-0.40033 -2.325061,-0.88961 -1.06969,-0.48929 -3.321706,-1.43062 -5.004478,-2.09184 -5.240498,-2.05918 -7.822086,-3.34673 -7.822086,-3.90123 0,-0.28911 0.299242,-0.52565 0.664982,-0.52565 1.406693,0 2.327643,-2.94937 1.439272,-4.60931 -0.200854,-0.3753 -0.581055,-0.68236 -0.84489,-0.68236 -0.80528,0 -0.908293,-2.82918 -0.143276,-3.93502 0.35629,-0.51502 0.647801,-1.25971 0.647801,-1.65487 0,-0.39516 0.17832,-0.82868 0.396267,-0.96338 0.251535,-0.15546 0.323591,-0.85855 0.197284,-1.92501 -0.193878,-1.63699 -0.154257,-1.72603 1.54401,-3.46953 2.077766,-2.1331 2.245336,-3.18189 0.691888,-4.33041 -0.578109,-0.42741 -1.235144,-1.34498 -1.460079,-2.03903 -0.224935,-0.69406 -0.743896,-1.73817 -1.153247,-2.32025 -0.606569,-0.86252 -0.757081,-1.64577 -0.813488,-4.23333 -0.07361,-3.37688 -0.385385,-6.89917 -0.87432,-9.87778 -0.169861,-1.03481 1.629981,-1.19895 2.165925,-0.19753 0.257508,0.48115 0.739896,0.72669 1.427668,0.72669 0.854968,0 1.164853,-0.24717 1.751477,-1.39705 0.602951,-1.18188 0.712725,-2.07841 0.712725,-5.82084 v -4.42377 h 22.224999 22.224996 v 33.16111 33.16111 l -8.55486,-0.0298 -8.554859,-0.0298 z m 23.459719,-31.15201 v -33.16111 h 10.41802 c 8.974,0 10.4464,-0.074 10.6228,-0.53366 0.11263,-0.29351 0.009,-0.76976 -0.23066,-1.05833 -0.36701,-0.44222 -2.03651,-0.52468 -10.6228,-0.52468 H 110.69321 V 161.5594 138.28269 l 8.0257,-0.0948 c 7.7589,-0.0917 8.02569,-0.11827 8.02569,-0.80037 0,-0.69465 -0.2657,-0.70697 -17.19488,-0.7971 l -17.194879,-0.0915 -0.09123,-19.13484 -0.09123,-19.134843 H 91.290435 90.40849 L 90.316,111.37021 90.22351,124.51118 H 63.582966 36.942418 l 0.134918,-10.49514 c 0.09029,-7.02338 0.2937,-11.24144 0.614918,-12.7512 l 0.48,-2.256067 -1.310352,-1.13271 c -0.720694,-0.622991 -1.310352,-1.308938 -1.310352,-1.524327 0,-0.66804 1.196815,-2.981021 1.989666,-3.845256 0.41522,-0.452604 0.94525,-1.334515 1.177846,-1.959802 0.232595,-0.625287 0.646933,-1.558255 0.92075,-2.073261 0.273816,-0.515006 0.497848,-1.167323 0.497848,-1.449592 0,-0.282269 0.474239,-1.4484 1.053865,-2.591402 0.579625,-1.143002 1.055282,-2.316311 1.057014,-2.607353 0.0048,-0.803156 -1.331482,-2.822222 -1.86781,-2.822222 -0.896227,0 -1.981255,-1.609441 -2.38404,-3.536288 -0.222098,-1.062472 -0.545612,-2.08258 -0.718921,-2.266907 -0.174946,-0.186067 -0.315107,-7.129639 -0.315107,-15.610416 V 42.313959 h 3.527777 3.527778 v 5.831905 c 0,4.858482 0.08832,5.865799 0.529166,6.034966 0.291042,0.111683 0.529167,0.429183 0.529167,0.705555 0,0.276373 0.238125,0.593873 0.529167,0.705556 0.291041,0.111683 0.529166,0.404763 0.529166,0.651288 0,0.246525 0.218041,0.629185 0.484535,0.850355 0.266494,0.221171 0.584219,1.153587 0.706055,2.072038 0.17833,1.344312 0.458494,1.858994 1.436895,2.639679 0.668456,0.533373 1.338689,0.969769 1.489407,0.969769 0.495812,0 4.349774,4.27099 4.349774,4.820453 0,0.295497 0.3175,0.620296 0.705556,0.721775 0.388055,0.101478 0.705555,0.385858 0.705555,0.631955 0,0.636746 1.576776,1.586928 2.633422,1.586928 1.056922,0 1.105562,0.409625 0.37473,3.155812 -0.345793,1.299354 -0.416088,2.344636 -0.217204,3.229801 0.241428,1.074521 0.17228,1.43048 -0.386415,1.989175 -0.573432,0.573432 -0.642114,0.969544 -0.436658,2.518344 0.204055,1.538245 0.405746,1.921625 1.237112,2.351542 1.266047,0.654698 2.211754,0.649529 3.504852,-0.01916 1.163871,-0.601861 1.905901,-1.744861 1.618675,-2.493359 -0.270228,-0.704203 -0.699029,-0.630415 -2.181058,0.375317 -0.710715,0.482305 -1.413185,0.802151 -1.561044,0.710769 -0.594047,-0.367142 -0.560503,-1.866594 0.05887,-2.631486 0.71299,-0.880507 0.865393,-2.659762 0.259876,-3.033992 -0.229422,-0.141791 -0.301111,-0.723763 -0.176389,-1.431931 0.115567,-0.65618 0.307036,-1.750151 0.425487,-2.431047 0.118452,-0.680895 0.356577,-1.325264 0.529167,-1.431931 0.507402,-0.313592 0.359284,-2.497604 -0.200917,-2.962529 -0.314687,-0.261167 -0.931624,-0.33561 -1.5875,-0.191555 -0.671657,0.147521 -1.072783,0.095 -1.072783,-0.140451 0,-0.20684 -0.573417,-0.615663 -1.274261,-0.908494 -1.204287,-0.503183 -1.261478,-0.600556 -1.041483,-1.773229 0.258189,-1.376266 -0.443161,-2.016094 -1.368312,-1.248286 -0.399847,0.331843 -0.586712,0.251372 -0.932357,-0.401505 -0.694571,-1.31195 -1.824827,-2.394587 -3.058747,-2.92988 -1.146985,-0.497579 -1.849839,-1.669472 -1.849839,-3.0843 0,-0.408099 -0.79375,-1.829887 -1.763889,-3.159528 L 45.782105,52.176747 V 47.250378 42.32401 L 56.80641,42.23079 c 10.758046,-0.09097 11.024305,-0.11026 11.024305,-0.798775 0,-0.694655 -0.265702,-0.70697 -17.197915,-0.797106 l -17.197916,-0.09155 v -2.818866 -2.818866 h 71.613886 71.61388 v 2.821062 2.821062 l -52.2993,0.08935 c -52.034332,0.0889 -52.299302,0.09293 -52.299302,0.794911 0,0.701053 0.265067,0.706127 41.539582,0.795201 l 41.53958,0.08965 V 65.42051 88.524156 l -32.36736,0.09004 -32.367359,0.09004 -0.176389,2.42186 c -0.175663,2.411897 -0.179153,2.418791 -0.848426,1.675695 -0.880276,-0.977375 -1.913968,-0.949456 -2.298554,0.06208 -0.564302,1.484226 -1.250328,1.747764 -4.409593,1.693949 -1.787338,-0.03045 -3.06719,0.10004 -3.207467,0.327013 -0.128378,0.207721 -0.973675,0.3584 -1.878437,0.334843 -0.904762,-0.02356 -2.043606,0.05989 -2.530764,0.185439 -0.810477,0.208873 -0.92698,0.08861 -1.371033,-1.415307 -0.55705,-1.886609 -1.572829,-2.992519 -2.748633,-2.992519 -0.714108,0 -0.815425,-0.172743 -0.815425,-1.390291 0,-0.76466 -0.15875,-1.488404 -0.352777,-1.60832 -0.194028,-0.119916 -0.352778,-0.679324 -0.352778,-1.24313 0,-0.648064 -0.24791,-1.157778 -0.674025,-1.385829 -1.009328,-0.540175 -2.235509,-2.713804 -1.981815,-3.513124 0.14316,-0.451055 0.0014,-0.813951 -0.415503,-1.063419 -0.715816,-0.428367 -0.891406,-0.229923 2.208457,-2.495887 0.929012,-0.679097 1.890794,-1.386798 2.137294,-1.572669 0.304262,-0.229428 0.663919,-0.142708 1.120018,0.270057 0.369511,0.334402 0.974116,0.580388 1.343567,0.546635 1.4551,-0.132938 2.260151,0.08091 2.903265,0.771215 0.369336,0.396436 1.127807,0.753624 1.68549,0.79375 0.878627,0.06322 1.132217,-0.150951 1.899861,-1.604531 l 0.88589,-1.677488 -1.354267,-1.243664 -1.354268,-1.243665 1.266073,-1.401392 c 1.156385,-1.27998 1.266073,-1.584684 1.266073,-3.517042 0,-2.046655 -0.0301,-2.11565 -0.923089,-2.11565 -0.78512,0 -0.891296,-0.118638 -0.710373,-0.79375 0.116995,-0.436563 0.214885,-0.98149 0.217534,-1.210949 0.0027,-0.22946 0.322317,-0.51797 0.710373,-0.641134 0.388055,-0.123164 0.705555,-0.506045 0.705555,-0.850847 0,-0.622 -1.389649,-2.500542 -1.849773,-2.500542 -0.581477,0 -3.441893,-3.182197 -3.441893,-3.829086 0,-0.394359 -0.288267,-0.924457 -0.640593,-1.177994 -0.861361,-0.619842 -1.1919,-1.593885 -0.61589,-1.814921 0.311978,-0.119718 0.433791,-0.73296 0.373692,-1.881279 -0.04904,-0.937016 -0.108599,-2.128888 -0.132353,-2.648605 -0.02375,-0.519717 -0.281314,-1.183066 -0.572356,-1.474107 -0.291042,-0.291042 -0.529166,-0.782035 -0.529166,-1.091095 0,-0.309061 -0.396875,-0.742757 -0.881945,-0.963769 -0.939723,-0.428167 -1.108848,-0.81227 -0.518342,-1.177223 0.330563,-0.2043 0.222468,-1.740303 -0.24153,-3.432074 -0.21797,-0.794734 -1.737509,-1.180554 -2.419709,-0.614379 -0.288522,0.239452 -0.524585,0.905969 -0.524585,1.481149 0,0.838022 0.210253,1.125143 1.058333,1.445257 1.13748,0.429351 1.318842,0.900674 0.617361,1.604395 -0.352964,0.354091 -0.284556,0.561791 0.342759,1.040694 0.431053,0.329073 1.193396,1.153939 1.694096,1.833037 0.798894,1.083535 0.881212,1.448979 0.672276,2.984534 -0.130948,0.962396 -0.40098,2.010644 -0.600071,2.329438 -0.468318,0.749897 0.349654,2.691757 1.230928,2.922216 0.345819,0.09043 0.628762,0.485229 0.628762,0.877323 0,0.392095 0.535817,1.161019 1.190706,1.708722 0.654888,0.547702 1.295576,1.337228 1.423752,1.754501 0.128176,0.417274 0.584546,0.847941 1.014155,0.957039 0.42961,0.109098 0.986346,0.53049 1.237192,0.936426 0.395397,0.639859 0.358764,0.817629 -0.275312,1.336017 -0.402268,0.328873 -0.826108,1.189525 -0.941867,1.912562 -0.187037,1.16825 -0.112647,1.351803 0.668172,1.64867 1.066869,0.405623 1.287431,0.91184 1.061649,2.436608 -0.107368,0.72508 -0.503417,1.383225 -1.046521,1.73908 -1.248188,0.817844 -1.541759,1.838528 -0.863841,3.003391 0.310526,0.533577 0.755261,0.970139 0.9883,0.970139 0.672788,0 0.78012,0.799464 0.248652,1.852084 -0.577781,1.144347 -1.522064,1.247931 -2.411982,0.264583 C 75.946196,76.8509 75.29596,76.5334 74.852414,76.5334 c -0.443547,0 -0.900276,-0.151816 -1.014955,-0.33737 -0.114678,-0.185554 -0.428722,-0.252866 -0.697875,-0.149582 -0.269153,0.103283 -0.873429,-0.06386 -1.342836,-0.371425 -0.802519,-0.525831 -0.925311,-0.506971 -2.056972,0.315936 -0.661928,0.481333 -1.838505,1.307121 -2.614616,1.835086 -2.446397,1.664208 -2.802915,2.587984 -1.766063,4.576058 0.289847,0.555755 0.533253,1.248589 0.540904,1.539631 0.01731,0.658475 1.204078,2.116666 1.722678,2.116666 0.211434,0 0.384425,0.408215 0.384425,0.907143 0,0.498929 0.238268,1.145411 0.529484,1.436627 0.327782,0.327782 0.449298,0.84897 0.318989,1.36816 -0.252145,1.004628 1.332002,2.824445 2.176557,2.500359 0.344551,-0.132217 0.658429,0.128948 0.915833,0.762026 1.084177,2.666504 1.436683,3.277378 2.094306,3.629328 0.544799,0.291567 0.906818,0.256878 1.521349,-0.145778 0.633469,-0.415065 1.132682,-0.455088 2.327594,-0.186609 1.128559,0.25357 1.589863,0.23063 1.787333,-0.08888 0.163439,-0.264449 1.281772,-0.459966 2.897579,-0.506581 3.388792,-0.09776 4.833752,-0.422392 4.833752,-1.085963 0,-0.289485 0.252532,-0.778867 0.561182,-1.087517 0.476634,-0.476634 0.608693,-0.486125 0.876542,-0.063 0.173449,0.274002 0.317792,0.697998 0.320763,0.942212 0.003,0.244215 0.447373,1.05415 0.987559,1.799855 0.854638,1.179793 1.092316,1.315078 1.830609,1.041966 0.635366,-0.235038 0.924697,-0.177621 1.152039,0.228617 0.166973,0.298364 0.761139,0.54248 1.320369,0.54248 0.709737,0 1.228107,0.296779 1.716588,0.982788 0.384894,0.540534 1.122216,1.208857 1.638493,1.485157 0.742403,0.39733 0.900221,0.68975 0.754731,1.39847 -0.140355,0.68371 0.05862,1.10512 0.839528,1.77803 0.903977,0.77897 0.992127,1.02611 0.754987,2.11667 -0.225776,1.03828 -0.11107,1.45362 0.721,2.61057 0.54422,0.75671 0.9895,1.56518 0.9895,1.7966 0,0.9241 2.44068,4.73905 3.97013,6.20558 0.53433,0.51235 1.13155,1.39062 1.32715,1.95171 0.37156,1.06588 3.45972,3.13415 4.67962,3.13415 0.34555,0 0.77078,0.22915 0.94495,0.50923 0.23871,0.38388 1.03931,0.49845 3.25226,0.46541 3.06902,-0.0458 3.99051,0.26807 5.33824,1.81838 0.80148,0.92196 1.73019,1.89668 2.87783,3.02039 1.25155,1.22546 1.24751,3.33131 -0.008,4.31911 -1.0706,0.84213 -1.06152,2.28925 0.0181,2.88468 2.17044,1.19703 3.29535,2.44503 4.69759,5.21155 0.81902,1.61585 1.48882,3.41417 1.48847,3.99625 -10e-4,1.83031 0.71137,2.73621 2.51326,3.19547 0.9033,0.23022 2.25268,0.37193 2.99861,0.31489 1.95391,-0.14939 2.55272,0.0875 2.33416,0.92323 -0.10138,0.38769 0.0589,0.97748 0.35622,1.31065 0.98797,1.10713 0.90868,3.09019 -0.13446,3.36297 -0.65363,0.17093 -0.71213,0.36216 -0.49815,1.62865 0.23289,1.37852 0.2056,1.43497 -0.69371,1.43497 -1.25323,0 -2.25439,0.57541 -3.5663,2.0497 -0.98336,1.10509 -1.06472,1.36873 -0.82544,2.67491 0.14953,0.81629 0.12131,1.62307 -0.0646,1.84764 -0.38165,0.46093 -0.0119,4.2909 0.44134,4.57099 0.16668,0.10301 0.30305,0.5748 0.30305,1.04842 0,0.47362 0.17039,0.86112 0.37864,0.86112 0.20825,0 0.32529,0.27781 0.26007,0.61736 -0.0787,0.4099 -0.46693,0.62966 -1.15519,0.65394 -0.57014,0.0201 -1.10074,0.22895 -1.17911,0.46407 -0.0784,0.23512 -0.78331,1.06193 -1.56654,1.83737 -1.09411,1.08323 -1.86197,1.49782 -3.31429,1.78949 -1.03964,0.20879 -1.89025,0.49661 -1.89025,0.6396 0,0.14299 -0.47202,0.35438 -1.04893,0.46976 -2.01504,0.40301 -1.58699,3.41814 0.47911,3.37474 1.2214,-0.0257 3.86801,0.8677 4.53495,1.53075 0.34154,0.33955 0.77973,0.61737 0.97376,0.61737 0.19403,0 0.35278,0.38553 0.35278,0.85674 0,0.47121 0.20514,1.06652 0.45587,1.32292 0.25072,0.25639 0.65258,0.94764 0.89301,1.5361 0.24043,0.58846 0.89029,1.49762 1.44413,2.02035 1.071,1.01086 1.70477,2.7011 1.14356,3.04987 -0.18571,0.11542 -0.39336,0.60672 -0.46143,1.09179 -0.0839,0.59783 -0.37946,0.91826 -0.91751,0.99468 -0.43656,0.062 -0.79375,0.26044 -0.79375,0.44097 0,0.18053 -0.23812,0.32824 -0.52916,0.32824 -0.29104,0 -0.52917,0.14306 -0.52917,0.3179 0,0.17485 -0.71029,1.01816 -1.57842,1.87402 -1.20832,1.19126 -1.67747,1.98524 -2.00086,3.38627 -0.23235,1.00658 -0.55734,1.83015 -0.72221,1.83015 -0.44864,0 -4.16518,3.74326 -4.16518,4.19513 0,0.21504 -0.15875,0.39098 -0.35277,0.39098 -0.19403,0 -0.35278,0.22091 -0.35278,0.49092 0,0.27001 -0.39688,0.59053 -0.88195,0.71228 -0.75597,0.18973 -0.88194,0.42194 -0.88194,1.62574 0,1.3336 -0.40742,1.81941 -0.88194,1.05161 -0.34313,-0.55518 -1.42625,-0.41277 -2.01224,0.26459 -0.90735,1.04881 -1.0028,2.18843 -0.24664,2.94459 0.64585,0.64585 0.6496,0.69929 0.062,0.88447 -1.98403,0.62528 -2.25941,0.84815 -2.02869,1.64185 0.12645,0.43499 0.53362,1.05446 0.90481,1.37661 0.89037,0.7727 0.85129,1.16094 -0.16337,1.62325 -0.62827,0.28626 -0.79807,0.59226 -0.67779,1.22146 0.0883,0.46174 -0.0901,1.8067 -0.39645,2.9888 -0.73118,2.82173 -0.70255,3.74658 0.13958,4.5087 0.63428,0.57401 0.77024,0.58204 1.52149,0.0898 0.45374,-0.2973 1.44999,-0.59603 2.2139,-0.66386 l 1.38893,-0.12331 0.007,2.29305 c 0.009,3.09177 -0.0915,3.40414 -1.25477,3.88598 -0.6346,0.26286 -1.08064,0.7638 -1.21179,1.36094 -0.11416,0.51973 -0.55994,1.0996 -0.99064,1.2886 -0.55499,0.24355 -0.81452,0.7033 -0.89102,1.57837 -0.0594,0.6791 -0.31143,1.39347 -0.56013,1.5875 -0.24871,0.19403 -0.60944,0.82903 -0.80164,1.41111 -0.21203,0.64217 -0.6317,1.10017 -1.06723,1.16473 -0.39478,0.0585 -0.89828,0.50255 -1.1189,0.98674 -0.51129,1.12217 -0.50399,1.39655 0.0524,1.96847 1.21378,1.24768 2.72662,3.74649 2.54879,4.20992 -0.10996,0.28655 0.0306,1.17427 0.31226,1.9727 0.28171,0.79844 0.42586,1.53804 0.32034,1.64356 -0.4171,0.4171 0.31162,2.0372 1.04996,2.33429 0.54806,0.22053 -0.1965,0.32186 -2.47999,0.33751 l -3.2632,0.0224 z m 5.33662,28.65899 c -0.18296,-0.34187 -0.3167,-1.18445 -0.2972,-1.8724 0.0264,-0.93245 -0.29613,-1.68508 -1.26726,-2.95694 -1.48951,-1.95075 -1.6082,-2.57271 -0.56465,-2.95875 0.65091,-0.24079 2.49278,-3.34331 4.37957,-7.37715 0.29495,-0.63059 0.74193,-1.14653 0.99328,-1.14653 1.29728,0 1.70172,-0.87713 1.85007,-4.0124 0.19314,-4.08169 -0.0221,-4.45731 -2.47815,-4.32474 -1.05307,0.0568 -2.18776,0.32876 -2.52154,0.60427 -0.56727,0.46825 -0.5918,0.33796 -0.37602,-1.99734 0.37131,-4.01859 0.56681,-4.65144 1.51004,-4.88818 1.11501,-0.27984 1.09817,-1.38686 -0.0384,-2.5234 -0.48507,-0.48507 -0.88194,-1.00159 -0.88194,-1.14782 0,-0.14623 0.56598,-0.47054 1.25775,-0.72068 1.67124,-0.60433 1.90021,-1.33246 0.71664,-2.27891 -0.81904,-0.65494 -0.8867,-0.84414 -0.4919,-1.37534 0.41594,-0.55963 0.54981,-0.56786 1.46464,-0.0901 1.2855,0.67139 1.55142,0.48421 2.03383,-1.43162 0.21695,-0.8616 0.52142,-1.56656 0.67659,-1.56656 0.15517,0 0.63543,-0.59531 1.06725,-1.32291 0.43181,-0.72761 1.79414,-2.30469 3.02738,-3.50464 1.58346,-1.5407 2.24226,-2.44276 2.24226,-3.0702 0,-1.1501 0.70317,-2.68558 1.22985,-2.68558 0.49404,0 1.94515,-1.48576 1.94515,-1.9916 0,-0.38153 1.07288,-0.99491 2.38125,-1.36139 0.6958,-0.1949 0.98173,-0.77341 0.83225,-1.68391 -0.0248,-0.15092 0.19455,-0.36634 0.48739,-0.47872 0.5957,-0.22858 0.72618,-1.73134 0.17966,-2.0691 -0.19402,-0.11992 -0.35277,-0.47149 -0.35277,-0.78127 0,-0.30979 -0.43657,-1.13362 -0.97014,-1.83073 -1.32264,-1.72803 -2.55764,-4.09406 -2.55764,-4.89994 0,-0.36708 -0.39517,-0.84514 -0.88195,-1.06693 -0.48507,-0.22101 -0.88194,-0.56399 -0.88194,-0.76218 0,-0.19819 -0.30016,-0.36034 -0.66703,-0.36034 -0.36687,0 -1.35906,-0.31401 -2.20486,-0.69781 -0.84581,-0.38379 -1.89502,-0.70129 -2.33158,-0.70555 -1.07045,-0.0104 -1.00964,-0.64568 0.0882,-0.92122 0.48507,-0.12174 0.88195,-0.35028 0.88195,-0.50786 0,-0.15757 0.47625,-0.37849 1.05833,-0.49092 0.58208,-0.11243 1.54475,-0.29864 2.13926,-0.4138 0.67757,-0.13125 1.22671,-0.52934 1.47159,-1.06679 0.21487,-0.47158 0.74533,-0.94643 1.1788,-1.05522 0.43347,-0.1088 0.86764,-0.50186 0.96482,-0.87349 0.0972,-0.37162 0.46937,-0.6792 0.82709,-0.68352 0.35771,-0.004 1.04563,-0.31152 1.52871,-0.68267 l 0.87832,-0.67483 -0.65867,-1.69858 c -1.06123,-2.73671 -1.3506,-5.43934 -0.66365,-6.19841 0.43855,-0.48459 0.47521,-0.72897 0.15706,-1.04711 -0.76515,-0.76515 -0.44156,-1.94137 0.84484,-3.07084 1.0483,-0.92042 1.45374,-1.06977 2.41464,-0.88951 1.03821,0.19477 1.19919,0.10949 1.59441,-0.84466 0.24179,-0.58372 0.34137,-1.37083 0.2213,-1.74914 -0.1589,-0.50064 -0.0236,-0.73875 0.49714,-0.87492 0.94193,-0.24632 0.96257,-2.0887 0.0436,-3.89122 -0.59753,-1.17202 -0.61325,-1.37642 -0.14212,-1.84755 0.29135,-0.29135 0.43992,-0.76378 0.33015,-1.04984 -0.1975,-0.51467 -0.56653,-0.56963 -4.42688,-0.65934 -1.17303,-0.0273 -1.96843,-0.21347 -2.05787,-0.48176 -0.0802,-0.24053 -0.51243,-0.43733 -0.96057,-0.43733 -0.92077,0 -1.24307,-0.59083 -1.24307,-2.27871 0,-0.63947 -0.23813,-1.3603 -0.52917,-1.60185 -0.29104,-0.24154 -0.52916,-0.72786 -0.52916,-1.0807 0,-0.35285 -0.14117,-0.72879 -0.3137,-0.83542 -0.17254,-0.10663 -0.41371,-0.59235 -0.53595,-1.07938 -0.23104,-0.92053 -4.15813,-5.11838 -4.78825,-5.11838 -0.63546,0 -0.38241,-1.11836 0.29303,-1.29499 0.82262,-0.21512 1.5209,-2.91146 1.0039,-3.87649 -0.70663,-1.31902 -5.74774,-6.11948 -6.77153,-6.44828 -0.58209,-0.18695 -2.01084,-0.2867 -3.175,-0.22168 -1.61155,0.09 -2.28504,-0.0257 -2.82223,-0.48479 -0.38805,-0.33166 -1.39711,-0.82054 -2.24234,-1.0864 -0.84524,-0.26586 -1.61629,-0.69053 -1.71344,-0.94371 -0.0972,-0.25318 -0.38709,-0.46033 -0.6443,-0.46033 -0.2572,0 -0.57614,-0.35719 -0.70873,-0.79375 -0.1326,-0.43656 -0.74531,-1.27823 -1.36158,-1.87036 -1.58987,-1.52761 -4.04921,-5.40635 -4.31027,-6.79794 -0.12151,-0.64769 -0.39932,-1.2462 -0.61735,-1.33002 -0.21804,-0.0838 -0.40802,-0.94381 -0.42218,-1.9111 -0.019,-1.29661 -0.22753,-1.97348 -0.79375,-2.57619 -0.4224,-0.44963 -0.767999,-1.15638 -0.767999,-1.57056 0,-0.44607 -0.503343,-1.13698 -1.234722,-1.694832 -0.679098,-0.517973 -1.234722,-1.142963 -1.234722,-1.388868 0,-0.433499 -2.01638,-1.585825 -2.774931,-1.585825 -0.206385,0 -0.545166,-0.3175 -0.752847,-0.705556 -0.421084,-0.786803 -1.274084,-0.940249 -1.497693,-0.26942 -0.09176,0.275271 -0.492955,0.06109 -1.087732,-0.58068 -1.025174,-1.106182 -1.256018,-1.613277 -0.417679,-0.917517 1.051706,0.872838 1.591993,0.159511 1.591993,-2.101867 v -2.127738 h 31.397222 31.39722 v 23.106943 23.10695 h -12.53468 c -11.05545,0 -12.55972,0.0652 -12.74685,0.55288 -0.11668,0.30408 -0.0627,0.70235 0.12002,0.88505 0.20036,0.20036 8.96814,0.33524 22.09545,0.33991 l 21.76328,0.008 v 23.27248 23.27249 h -19.23746 c -16.84651,0 -19.26291,0.0663 -19.44224,0.53366 -0.11264,0.29351 -0.009,0.76976 0.23065,1.05833 0.37246,0.44878 2.52898,0.52468 14.90821,0.52468 h 14.47276 l -0.22167,3.26319 c -0.12192,1.79476 -0.32971,14.89008 -0.46175,29.10072 l -0.24008,25.83752 -16.43546,0.0916 -16.43546,0.0917 0.0512,1.13934 0.0512,1.13934 -7.10679,0.0954 -7.10679,0.0954 0.028,0.79375 c 0.0335,0.9488 -0.40289,1.03566 -0.865,0.17219 z M 36.962661,238.1255 c 0,-0.18306 -0.461618,-0.60552 -1.025817,-0.9388 -0.857517,-0.50655 -0.961373,-0.70915 -0.63302,-1.23493 0.306685,-0.49108 0.260887,-0.77473 -0.208906,-1.29384 -0.330936,-0.36568 -0.601702,-0.93517 -0.601702,-1.26553 0,-0.33036 -0.238125,-0.69203 -0.529166,-0.80372 -0.462745,-0.17757 -0.529167,-3.03774 -0.529167,-22.78629 0,-20.03398 0.05973,-22.53365 0.529167,-22.14406 0.291041,0.24155 0.529166,0.66298 0.529166,0.93651 0,0.27354 0.314728,0.61377 0.699396,0.75606 0.584586,0.21626 6.630378,5.95354 19.650418,18.64769 1.309907,1.27712 2.227963,2.47133 2.227963,2.89814 0,0.39927 0.449556,1.2474 0.999014,1.88474 0.549458,0.63735 1.203464,1.90707 1.453347,2.8216 0.289843,1.06079 0.776252,1.87373 1.343497,2.2454 l 0.889165,0.5826 -1.10779,0.86698 c -0.609284,0.47684 -1.107789,1.07416 -1.107789,1.32738 0,0.25322 -0.215381,0.63915 -0.478624,0.85762 -0.27227,0.22597 -0.580993,1.49868 -0.716062,2.95197 -0.198533,2.13614 -0.418142,2.7796 -1.340286,3.92708 -0.919125,1.14373 -1.034913,1.48113 -0.695049,2.02534 0.22429,0.35914 0.407799,1.2769 0.407799,2.03946 0,1.09494 0.197486,1.53033 0.939191,2.07063 1.236618,0.90081 0.899562,1.71282 -0.826433,1.99097 -1.336498,0.21539 -18.581006,1.96129 -19.42734,1.96691 -0.242535,0.002 -0.440972,-0.14685 -0.440972,-0.32991 z M 49.063173,199.71801 C 39.611057,190.43614 36.177612,187.14272 34.581411,185.82684 l -1.146528,-0.94518 v -29.08949 -29.08949 l 3.192372,-0.25267 c 1.755805,-0.13896 8.264555,-0.1357 14.463888,0.007 l 11.271516,0.25991 v 34.46873 c 0,18.9578 -0.09141,34.56013 -0.203122,34.67185 -0.111716,0.11172 -0.79738,-0.11408 -1.523697,-0.50176 -1.232045,-0.65763 -1.40778,-0.66845 -2.621345,-0.16139 -1.629904,0.68102 -2.214595,1.98604 -1.681288,3.75262 0.205011,0.6791 0.54059,2.72857 0.745732,4.55438 0.205142,1.82582 0.448615,3.44203 0.541052,3.5916 0.09244,0.14956 0.03861,0.35195 -0.119619,0.44974 -0.158226,0.0978 -3.954966,-3.42343 -8.437199,-7.82493 z M 166.4321,188.89306 v -1.94028 h 5.11527 5.11528 v 1.94028 1.94027 h -5.11528 -5.11527 z M 64.479325,155.73194 v -29.10416 h 12.876388 12.876388 v 5.62362 c 0,3.76457 0.130395,5.70422 0.394444,5.86741 0.216944,0.13408 4.002902,0.21376 8.41324,0.17708 4.410335,-0.0367 8.439715,0.0389 8.954165,0.16806 l 0.93537,0.23476 v 23.0687 23.0687 H 86.704324 64.479325 Z m 111.124995,11.99445 c 0,-14.97346 0.0661,-17.10972 0.52916,-17.10972 0.4631,0 0.52917,2.13626 0.52917,17.10972 0,14.97346 -0.0661,17.10972 -0.52917,17.10972 -0.46309,0 -0.52916,-2.13626 -0.52916,-17.10972 z m -0.0799,-24.95903 -0.0965,-6.08542 -9.08403,-0.0941 -9.08403,-0.0942 V 125.3871 114.28056 h 9.70139 9.70139 v 17.28611 c 0,15.00736 -0.0687,17.28611 -0.52084,17.28611 -0.4354,0 -0.53666,-0.99819 -0.61736,-6.08542 z M 33.434883,111.38778 c 0,-10.20704 0.09407,-13.029261 0.423333,-12.700002 0.232834,0.232833 0.758657,0.423333 1.168497,0.423333 0.635283,0 0.741924,0.203768 0.723194,1.381879 -0.01208,0.76003 -0.141031,1.50087 -0.286552,1.6463 -0.145521,0.14543 -0.264583,5.23858 -0.264583,11.31812 v 11.0537 H 34.316828 33.434883 Z M 157.25987,95.759722 V 79.002778 h 9.70139 9.70139 v 16.756944 16.756948 h -9.70139 -9.70139 z M 33.434883,86.5875 v -8.290278 h 1.410707 c 1.168298,0 1.660565,0.242479 2.864761,1.411111 0.799729,0.776112 1.673036,1.411112 1.940681,1.411112 0.659688,0 0.612289,0.460366 -0.195466,1.898507 -0.375152,0.667927 -0.883284,1.903069 -1.129181,2.744758 -0.245897,0.84169 -0.754086,1.955449 -1.129309,2.475019 -0.380169,0.526418 -0.584595,1.19909 -0.461719,1.5193 0.14062,0.366449 -0.11955,0.88978 -0.718135,1.44453 -0.516252,0.478446 -1.221335,1.501324 -1.566852,2.273061 -0.345517,0.771737 -0.71535,1.403158 -0.82185,1.403158 -0.1065,0 -0.193637,-3.730625 -0.193637,-8.290278 z M 157.25987,59.6 V 42.313889 h 9.70139 9.70139 V 59.6 76.886111 h -9.70139 -9.70139 z M 33.434883,59.423611 c 0,-16.874537 0.0097,-17.109722 0.705556,-17.109722 0.694633,0 0.705729,0.238925 0.716775,15.434028 0.0095,13.012052 0.0925,15.541487 0.529166,16.118815 0.714076,0.944092 0.648176,1.866526 -0.164416,2.301412 -1.868405,0.99994 -1.787081,1.761927 -1.787081,-16.744533 z"
         id="path3" /><path
         style="fill:#f23329"
         d="m 116.4364,252.89842 c -0.73671,-0.28072 -1.46945,-1.89809 -1.04996,-2.31758 0.10552,-0.10552 -0.0386,-0.84512 -0.32034,-1.64356 -0.2817,-0.79843 -0.42222,-1.68615 -0.31226,-1.9727 0.17783,-0.46343 -1.33501,-2.96224 -2.54879,-4.20992 -0.55639,-0.57192 -0.56369,-0.8463 -0.0524,-1.96847 0.22062,-0.48419 0.72412,-0.92822 1.1189,-0.98674 0.43553,-0.0646 0.8552,-0.52256 1.06723,-1.16473 0.1922,-0.58208 0.55293,-1.21708 0.80164,-1.41111 0.2487,-0.19403 0.50076,-0.9084 0.56013,-1.5875 0.0765,-0.87507 0.33603,-1.33482 0.89102,-1.57837 0.4307,-0.189 0.87648,-0.76887 0.99064,-1.2886 0.13115,-0.59714 0.57719,-1.09808 1.21179,-1.36094 1.16327,-0.48184 1.26413,-0.79421 1.25477,-3.88598 l -0.007,-2.29305 -1.38893,0.12331 c -0.76391,0.0678 -1.76016,0.36656 -2.2139,0.66386 -0.75125,0.49224 -0.88721,0.48421 -1.52149,-0.0898 -0.84213,-0.76212 -0.87076,-1.68697 -0.13958,-4.5087 0.30632,-1.1821 0.48472,-2.52706 0.39645,-2.9888 -0.12028,-0.6292 0.0495,-0.9352 0.67779,-1.22146 1.01466,-0.46231 1.05374,-0.85055 0.16337,-1.62325 -0.37119,-0.32215 -0.77836,-0.94162 -0.90481,-1.37661 -0.23072,-0.7937 0.0447,-1.01657 2.02869,-1.64185 0.58758,-0.18518 0.58383,-0.23862 -0.062,-0.88447 -0.75616,-0.75616 -0.66071,-1.89578 0.24664,-2.94459 0.58599,-0.67736 1.66911,-0.81977 2.01224,-0.26459 0.47452,0.7678 0.88194,0.28199 0.88194,-1.05161 0,-1.2038 0.12597,-1.43601 0.88194,-1.62574 0.48507,-0.12175 0.88195,-0.44227 0.88195,-0.71228 0,-0.27001 0.15875,-0.49092 0.35278,-0.49092 0.19402,0 0.35277,-0.17594 0.35277,-0.39098 0,-0.45187 3.71654,-4.19513 4.16518,-4.19513 0.16487,0 0.48986,-0.82357 0.72221,-1.83015 0.32339,-1.40103 0.79254,-2.19501 2.00086,-3.38627 0.86813,-0.85586 1.57842,-1.69917 1.57842,-1.87402 0,-0.17484 0.23813,-0.3179 0.52917,-0.3179 0.29104,0 0.52916,-0.14771 0.52916,-0.32824 0,-0.18053 0.35719,-0.37897 0.79375,-0.44097 0.53805,-0.0764 0.83362,-0.39685 0.91751,-0.99468 0.0681,-0.48507 0.27572,-0.97637 0.46143,-1.09179 0.56121,-0.34877 -0.0726,-2.03901 -1.14356,-3.04987 -0.55384,-0.52273 -1.2037,-1.43189 -1.44413,-2.02035 -0.24043,-0.58846 -0.64229,-1.27971 -0.89301,-1.5361 -0.25073,-0.2564 -0.45587,-0.85171 -0.45587,-1.32292 0,-0.47121 -0.15875,-0.85674 -0.35278,-0.85674 -0.19403,0 -0.63222,-0.27782 -0.97376,-0.61737 -0.66694,-0.66305 -3.31355,-1.5564 -4.53495,-1.53075 -2.0661,0.0434 -2.49415,-2.97173 -0.47911,-3.37474 0.57691,-0.11538 1.04893,-0.32677 1.04893,-0.46976 0,-0.14299 0.85061,-0.43081 1.89025,-0.6396 1.45232,-0.29167 2.22018,-0.70626 3.31429,-1.78949 0.78323,-0.77544 1.48817,-1.60225 1.56654,-1.83737 0.0784,-0.23512 0.60897,-0.44395 1.17911,-0.46407 0.68826,-0.0243 1.07646,-0.24404 1.15519,-0.65394 0.0652,-0.33955 -0.0518,-0.61736 -0.26007,-0.61736 -0.20825,0 -0.37864,-0.3875 -0.37864,-0.86112 0,-0.47362 -0.13637,-0.94541 -0.30305,-1.04842 -0.4532,-0.28009 -0.82299,-4.11006 -0.44134,-4.57099 0.18594,-0.22457 0.21416,-1.03135 0.0646,-1.84764 -0.23928,-1.30618 -0.15792,-1.56982 0.82544,-2.67491 1.31191,-1.47429 2.31307,-2.0497 3.5663,-2.0497 0.89931,0 0.9266,-0.0565 0.69371,-1.43497 -0.21398,-1.26649 -0.15548,-1.45772 0.49815,-1.62865 1.04314,-0.27278 1.12243,-2.25584 0.13446,-3.36297 -0.2973,-0.33317 -0.4576,-0.92296 -0.35622,-1.31065 0.21856,-0.83577 -0.38025,-1.07262 -2.33416,-0.92323 -0.74593,0.057 -2.09531,-0.0847 -2.99861,-0.31489 -1.80189,-0.45926 -2.51439,-1.36516 -2.51326,-3.19547 3.5e-4,-0.58208 -0.66945,-2.3804 -1.48847,-3.99625 -1.40224,-2.76652 -2.52715,-4.01452 -4.69759,-5.21155 -1.07961,-0.59543 -1.08869,-2.04255 -0.0181,-2.88468 1.25579,-0.9878 1.25983,-3.09365 0.008,-4.31911 -1.14764,-1.12371 -2.07635,-2.09843 -2.87783,-3.02039 -1.34773,-1.55031 -2.26922,-1.8642 -5.33824,-1.81838 -2.21295,0.033 -3.01355,-0.0815 -3.25226,-0.46541 -0.17417,-0.28008 -0.5994,-0.50923 -0.94495,-0.50923 -1.2199,0 -4.30806,-2.06827 -4.67962,-3.13415 -0.1956,-0.56109 -0.79282,-1.43936 -1.32715,-1.95171 -1.52945,-1.46653 -3.97013,-5.28148 -3.97013,-6.20558 0,-0.23142 -0.44528,-1.03989 -0.9895,-1.7966 -0.83207,-1.15695 -0.946777,-1.57229 -0.721,-2.61057 0.23714,-1.09056 0.14899,-1.3377 -0.754988,-2.11667 -0.780907,-0.67291 -0.979883,-1.09432 -0.839528,-1.77803 0.14549,-0.70872 -0.01233,-1.00114 -0.754731,-1.39847 -0.516277,-0.2763 -1.253599,-0.94462 -1.638493,-1.485154 -0.488481,-0.686009 -1.006851,-0.982788 -1.716588,-0.982788 -0.55923,0 -1.153396,-0.244116 -1.320369,-0.54248 -0.227342,-0.406238 -0.516673,-0.463655 -1.152039,-0.228617 -0.738293,0.273112 -0.975971,0.137827 -1.830609,-1.041966 -0.540186,-0.745705 -0.984588,-1.55564 -0.987559,-1.799855 -0.003,-0.244214 -0.147314,-0.66821 -0.320763,-0.942212 -0.267849,-0.423129 -0.399908,-0.413638 -0.876542,0.063 -0.30865,0.30865 -0.561182,0.798032 -0.561182,1.087517 0,0.663571 -1.44496,0.9882 -4.833752,1.085963 -1.615807,0.04662 -2.73414,0.242132 -2.897579,0.506581 -0.19747,0.319514 -0.658774,0.342454 -1.787333,0.08888 -1.194912,-0.268479 -1.694125,-0.228456 -2.327594,0.186609 -0.614531,0.402656 -0.97655,0.437345 -1.521349,0.145778 -0.657623,-0.35195 -1.010129,-0.962824 -2.094306,-3.629328 -0.257404,-0.633078 -0.571282,-0.894243 -0.915833,-0.762026 -0.844555,0.324086 -2.428702,-1.495731 -2.176557,-2.500359 0.130309,-0.51919 0.0088,-1.040378 -0.318989,-1.36816 -0.291216,-0.291216 -0.529484,-0.937698 -0.529484,-1.436627 0,-0.498928 -0.172991,-0.907143 -0.384425,-0.907143 -0.5186,0 -1.705369,-1.458191 -1.722678,-2.116666 -0.0077,-0.291042 -0.251057,-0.983876 -0.540904,-1.539631 -1.036852,-1.988074 -0.680334,-2.91185 1.766063,-4.576058 0.776111,-0.527965 1.952688,-1.353753 2.614616,-1.835086 1.131661,-0.822907 1.254453,-0.841767 2.056972,-0.315936 0.469407,0.307567 1.073683,0.474708 1.342836,0.371425 0.269153,-0.103284 0.583197,-0.03597 0.697875,0.149582 0.114679,0.185554 0.571408,0.33737 1.014955,0.33737 0.443546,0 1.093782,0.3175 1.444967,0.705556 0.889918,0.983348 1.834201,0.879764 2.411982,-0.264583 0.531468,-1.05262 0.424136,-1.852084 -0.248652,-1.852084 -0.233039,0 -0.677774,-0.436562 -0.9883,-0.970139 -0.677918,-1.164863 -0.384347,-2.185547 0.863841,-3.003391 0.543104,-0.355855 0.939153,-1.014 1.046521,-1.73908 0.225782,-1.524768 0.0052,-2.030985 -1.061649,-2.436608 -0.780819,-0.296867 -0.855209,-0.48042 -0.668172,-1.64867 0.115759,-0.723037 0.539599,-1.583689 0.941867,-1.912562 0.634076,-0.518388 0.670709,-0.696158 0.275312,-1.336017 -0.250846,-0.405936 -0.807582,-0.827328 -1.237192,-0.936426 -0.429609,-0.109098 -0.885979,-0.539765 -1.014155,-0.957039 -0.128176,-0.417273 -0.768864,-1.206799 -1.423752,-1.754501 -0.654889,-0.547703 -1.190706,-1.316627 -1.190706,-1.708722 0,-0.392094 -0.282943,-0.78689 -0.628762,-0.877323 -0.881274,-0.230459 -1.699246,-2.172319 -1.230928,-2.922216 0.199091,-0.318794 0.469123,-1.367042 0.600071,-2.329438 0.208936,-1.535555 0.126618,-1.900999 -0.672276,-2.984534 -0.5007,-0.679098 -1.263043,-1.503964 -1.694096,-1.833037 -0.627315,-0.478903 -0.695723,-0.686603 -0.342759,-1.040694 0.701481,-0.703721 0.520119,-1.175044 -0.617361,-1.604395 -0.84808,-0.320114 -1.058333,-0.607235 -1.058333,-1.445257 0,-0.57518 0.236063,-1.241697 0.524585,-1.481149 0.6822,-0.566175 2.201739,-0.180355 2.419709,0.614379 0.463998,1.691771 0.572093,3.227774 0.24153,3.432074 -0.590506,0.364953 -0.421381,0.749056 0.518342,1.177223 0.48507,0.221012 0.881945,0.654708 0.881945,0.963769 0,0.30906 0.238124,0.800053 0.529166,1.091095 0.291042,0.291041 0.548602,0.95439 0.572356,1.474107 0.02375,0.519717 0.08331,1.711589 0.132353,2.648605 0.0601,1.148319 -0.06171,1.761561 -0.373692,1.881279 -0.57601,0.221036 -0.245471,1.195079 0.61589,1.814921 0.352326,0.253537 0.640593,0.783635 0.640593,1.177994 0,0.646889 2.860416,3.829086 3.441893,3.829086 0.460124,0 1.849773,1.878542 1.849773,2.500542 0,0.344802 -0.3175,0.727683 -0.705555,0.850847 -0.388056,0.123164 -0.707723,0.411674 -0.710373,0.641134 -0.0026,0.229459 -0.100539,0.774386 -0.217534,1.210949 -0.180923,0.675112 -0.07475,0.79375 0.710373,0.79375 0.892986,0 0.923089,0.069 0.923089,2.11565 0,1.932358 -0.109688,2.237062 -1.266073,3.517042 l -1.266073,1.401392 1.354268,1.243665 1.354267,1.243664 -0.88589,1.677488 c -0.767644,1.45358 -1.021234,1.66775 -1.899861,1.604531 -0.557683,-0.04013 -1.316154,-0.397314 -1.68549,-0.79375 -0.643114,-0.690302 -1.448165,-0.904153 -2.903265,-0.771215 -0.369451,0.03375 -0.974056,-0.212233 -1.343567,-0.546635 -0.456099,-0.412765 -0.815756,-0.499485 -1.120018,-0.270057 -0.2465,0.185871 -1.208282,0.893572 -2.137294,1.572669 -3.099863,2.265964 -2.924273,2.06752 -2.208457,2.495887 0.416871,0.249468 0.558663,0.612364 0.415503,1.063419 -0.253694,0.79932 0.972487,2.972949 1.981815,3.513124 0.426115,0.228051 0.674025,0.737765 0.674025,1.385829 0,0.563806 0.15875,1.123214 0.352778,1.24313 0.194027,0.119916 0.352777,0.84366 0.352777,1.60832 0,1.217548 0.101317,1.390291 0.815425,1.390291 1.175804,0 2.191583,1.10591 2.748633,2.992519 0.444053,1.503915 0.560556,1.62418 1.371033,1.415307 0.487158,-0.125548 1.626002,-0.208996 2.530764,-0.185439 0.904762,0.02356 1.750059,-0.127122 1.878437,-0.334843 0.140277,-0.226973 1.420129,-0.357459 3.207467,-0.327013 3.159265,0.05382 3.845291,-0.209723 4.409593,-1.693949 0.169012,-0.444537 0.601052,-0.808248 0.960088,-0.808248 0.686081,0 2.186892,1.372343 2.186892,1.999695 0,0.632632 1.870633,2.442572 2.030085,1.964218 0.223609,-0.670829 1.076609,-0.517383 1.497693,0.26942 0.207681,0.388056 0.546462,0.705556 0.752847,0.705556 0.758551,0 2.774931,1.152326 2.774931,1.585825 0,0.245905 0.555624,0.870895 1.234722,1.388868 0.731379,0.557852 1.234722,1.248762 1.234722,1.694832 0,0.41418 0.345599,1.12093 0.767999,1.57056 0.56622,0.60271 0.77477,1.27958 0.79375,2.57619 0.0142,0.96729 0.20414,1.82728 0.42218,1.9111 0.21803,0.0838 0.49584,0.68233 0.61735,1.33002 0.26106,1.39159 2.7204,5.27033 4.31027,6.79794 0.61627,0.59213 1.22898,1.4338 1.36158,1.87036 0.13259,0.43656 0.45153,0.79375 0.70873,0.79375 0.25721,0 0.54714,0.20715 0.6443,0.46033 0.0971,0.25318 0.8682,0.67785 1.71344,0.94371 0.84523,0.26586 1.85429,0.75474 2.24234,1.0864 0.53719,0.45911 1.21068,0.5748 2.82223,0.48479 1.16416,-0.065 2.59291,0.0347 3.175,0.22168 1.02379,0.3288 6.0649,5.12926 6.77153,6.44828 0.517,0.96503 -0.18128,3.66137 -1.0039,3.87649 -0.67544,0.17663 -0.92849,1.29499 -0.29303,1.29499 0.63012,0 4.55721,4.19785 4.78825,5.11838 0.12224,0.48703 0.36341,0.97275 0.53595,1.07938 0.17253,0.10663 0.3137,0.48257 0.3137,0.83542 0,0.35284 0.23812,0.83916 0.52916,1.0807 0.29104,0.24155 0.52917,0.96238 0.52917,1.60185 0,1.68788 0.3223,2.27871 1.24307,2.27871 0.44814,0 0.8804,0.1968 0.96057,0.43733 0.0894,0.26829 0.88484,0.4545 2.05787,0.48176 3.86035,0.0897 4.22938,0.14467 4.42688,0.65934 0.10977,0.28606 -0.0388,0.75849 -0.33015,1.04984 -0.47113,0.47113 -0.45541,0.67553 0.14212,1.84755 0.91898,1.80252 0.89834,3.6449 -0.0436,3.89122 -0.52074,0.13617 -0.65604,0.37428 -0.49714,0.87492 0.12007,0.37831 0.0205,1.16542 -0.2213,1.74914 -0.39522,0.95415 -0.5562,1.03943 -1.59441,0.84466 -2.11857,-0.39745 -4.60103,2.6188 -3.25948,3.96035 0.31815,0.31814 0.28149,0.56252 -0.15706,1.04711 -0.68695,0.75907 -0.39758,3.4617 0.66365,6.19841 l 0.65867,1.69858 -0.87832,0.67483 c -0.48308,0.37115 -1.171,0.67836 -1.52871,0.68267 -0.35772,0.004 -0.7299,0.3119 -0.82709,0.68352 -0.0972,0.37163 -0.53135,0.76469 -0.96482,0.87349 -0.43347,0.10879 -0.96393,0.58364 -1.1788,1.05522 -0.24488,0.53745 -0.79402,0.93554 -1.47159,1.06679 -0.59451,0.11516 -1.55718,0.30137 -2.13926,0.4138 -0.58208,0.11243 -1.05833,0.33335 -1.05833,0.49092 0,0.15758 -0.39688,0.38612 -0.88195,0.50786 -1.09783,0.27554 -1.15864,0.91077 -0.0882,0.92122 0.43656,0.004 1.48577,0.32176 2.33158,0.70555 0.8458,0.3838 1.83799,0.69781 2.20486,0.69781 0.36687,0 0.66703,0.16215 0.66703,0.36034 0,0.19819 0.39687,0.54117 0.88194,0.76218 0.48678,0.22179 0.88195,0.69985 0.88195,1.06693 0,0.80588 1.235,3.17191 2.55764,4.89994 0.53357,0.69711 0.97014,1.52094 0.97014,1.83073 0,0.30978 0.15875,0.66135 0.35277,0.78127 0.54652,0.33776 0.41604,1.84052 -0.17966,2.0691 -0.29284,0.11238 -0.51216,0.3278 -0.48739,0.47872 0.14948,0.9105 -0.13645,1.48901 -0.83225,1.68391 -1.36108,0.38125 -2.38125,0.98567 -2.38125,1.41083 0,0.49326 -1.48801,1.94216 -1.99458,1.94216 -0.48482,0 -1.18042,1.58257 -1.18042,2.68558 0,0.62744 -0.6588,1.5295 -2.24226,3.0702 -1.23324,1.19995 -2.59557,2.77703 -3.02738,3.50464 -0.43182,0.7276 -0.91208,1.32291 -1.06725,1.32291 -0.15517,0 -0.45964,0.70496 -0.67659,1.56656 -0.48241,1.91583 -0.74833,2.10301 -2.03383,1.43162 -0.91483,-0.4778 -1.0487,-0.46957 -1.46464,0.0901 -0.3948,0.5312 -0.32714,0.7204 0.4919,1.37534 1.18357,0.94645 0.9546,1.67458 -0.71664,2.27891 -0.69177,0.25014 -1.25775,0.57445 -1.25775,0.72068 0,0.14623 0.39687,0.66275 0.88194,1.14782 1.13654,1.13654 1.15338,2.24356 0.0384,2.5234 -0.94323,0.23674 -1.13873,0.86959 -1.51004,4.88818 -0.21578,2.3353 -0.19125,2.46559 0.37602,1.99734 0.33378,-0.27551 1.46847,-0.54743 2.52154,-0.60427 2.45605,-0.13257 2.67129,0.24305 2.47815,4.32474 -0.14835,3.13527 -0.55279,4.0124 -1.85007,4.0124 -0.25135,0 -0.69833,0.51594 -0.99328,1.14653 -1.88679,4.03384 -3.72866,7.13636 -4.37957,7.37715 -1.04355,0.38604 -0.92486,1.008 0.56465,2.95875 0.97113,1.27186 1.29369,2.02449 1.26726,2.95694 -0.0407,1.43719 0.42195,2.49396 1.09193,2.49396 0.67225,0 1.62976,1.17596 1.62976,2.00158 0,1.0669 -1.07005,1.86358 -2.01792,1.5024 z"
         id="path2" /><path
         style="fill:#000000"
         d="m 145.44182,261.74167 c -0.11992,-0.19403 -0.49827,-0.35278 -0.84079,-0.35278 -0.61685,0 -5.31378,-4.64331 -6.0068,-5.93823 -0.19798,-0.36992 -0.9201,-0.93838 -1.60471,-1.26325 -1.2007,-0.56977 -3.01298,-2.74498 -3.01298,-3.61636 0,-0.74688 -1.41917,-0.91982 -9.34362,-1.13859 -7.45945,-0.20594 -7.7661,-0.24226 -7.7661,-0.91996 0,-0.67905 0.26698,-0.70914 7.10679,-0.80094 l 7.10679,-0.0954 -0.0512,-1.13934 -0.0512,-1.13934 16.43546,-0.0917 16.43546,-0.0916 0.24008,-25.83752 c 0.13204,-14.21064 0.33983,-27.30596 0.46175,-29.10072 l 0.22167,-3.26319 h -14.47276 c -12.37923,0 -14.53575,-0.0759 -14.90821,-0.52468 -0.23949,-0.28857 -0.34329,-0.76482 -0.23065,-1.05833 0.17933,-0.46733 2.59573,-0.53366 19.44224,-0.53366 h 19.23746 v -23.27249 -23.27248 l -21.76328,-0.008 c -13.12731,-0.005 -21.89509,-0.13955 -22.09545,-0.33991 -0.1827,-0.1827 -0.2367,-0.58097 -0.12002,-0.88505 0.18713,-0.48764 1.6914,-0.55288 12.74685,-0.55288 h 12.53468 V 113.39861 90.291667 H 123.74599 92.348768 v 2.127738 c 0,2.27082 -0.540559,2.974479 -1.605847,2.090368 -0.414892,-0.344329 -0.5151,-1.06207 -0.43648,-3.126273 l 0.102049,-2.679333 32.36736,-0.09004 32.36736,-0.09004 V 65.420439 42.316792 l -41.53958,-0.08965 c -41.274516,-0.08907 -41.539583,-0.09415 -41.539583,-0.795201 0,-0.701981 0.26497,-0.706009 52.299303,-0.794911 l 52.2993,-0.08935 v 0.883104 0.883105 h -9.70139 -9.70139 V 59.6 76.886111 h 9.70139 9.70139 v 1.058334 1.058333 h -9.70139 -9.70139 v 16.756944 16.756948 h 9.70139 9.70139 v 0.88194 0.88195 h -9.70139 -9.70139 v 11.10654 11.10654 l 9.08403,0.0942 9.08403,0.0941 0.0965,6.08542 c 0.0807,5.08723 0.18196,6.08542 0.61736,6.08542 0.32038,0 0.52084,0.33945 0.52084,0.88194 0,0.54877 -0.19991,0.88195 -0.52917,0.88195 -0.46309,0 -0.52916,2.13626 -0.52916,17.10972 0,14.97346 0.0661,17.10972 0.52916,17.10972 0.35278,0 0.52917,0.35278 0.52917,1.05833 v 1.05834 h -5.11528 -5.11527 v 1.94028 1.94027 h 5.11527 5.11528 v 0.83785 c 0,1.08989 -0.94434,1.27882 -6.39189,1.27882 h -4.18703 l -0.0904,26.89931 -0.0904,26.8993 -16.31597,0.0917 c -8.97379,0.0504 -16.31597,0.22023 -16.31597,0.37731 0,0.15707 0.50572,0.51267 1.12383,0.79022 0.68899,0.30938 1.26912,0.91414 1.49931,1.56297 0.24763,0.69799 0.6157,1.05834 1.08102,1.05834 0.50481,0 0.69759,0.22584 0.67755,0.79375 -0.0154,0.43656 0.14765,0.79375 0.36235,0.79375 0.44157,0 1.97489,1.42098 3.54621,3.28641 2.28832,2.71661 3.3598,3.76914 3.83702,3.76914 0.60169,0 2.68937,1.88991 2.68937,2.4346 0,0.48443 -2.34885,0.51537 -2.64583,0.0349 z m -61.383329,-9.39748 c -3.4925,-1.44225 -6.588125,-2.72297 -6.879166,-2.84604 -1.675104,-0.70834 -8.10336,-3.33789 -13.934722,-5.70014 -3.686527,-1.4934 -6.901215,-2.83887 -7.143749,-2.98996 -0.242535,-0.15108 -0.440972,-0.6622 -0.440972,-1.13581 0,-1.08305 0.486607,-1.08506 -10.981276,0.0453 -5.057851,0.49855 -9.40123,0.82773 -9.651954,0.73151 -0.250725,-0.0962 -0.711442,-0.68725 -1.023816,-1.31342 -0.716717,-1.43669 -0.820452,-6.8174 -0.126981,-6.5865 0.242535,0.0807 0.497049,0.45117 0.565587,0.82315 0.06854,0.37198 0.378991,0.96301 0.689896,1.31342 0.459884,0.5183 0.485424,0.76497 0.13698,1.32291 -0.235567,0.3772 -0.291389,0.68582 -0.124049,0.68582 0.167339,0 0.739815,0.40367 1.272169,0.89704 l 0.967915,0.89703 9.225959,-0.90774 c 5.074277,-0.49925 9.75457,-1.00234 10.400651,-1.11796 1.565453,-0.28017 1.834961,-1.09951 0.646443,-1.96528 -0.741705,-0.5403 -0.939191,-0.97569 -0.939191,-2.07063 0,-0.76256 -0.183509,-1.68032 -0.407799,-2.03946 -0.339864,-0.54421 -0.224076,-0.88161 0.695049,-2.02534 0.922144,-1.14748 1.141753,-1.79094 1.340286,-3.92708 0.135069,-1.45329 0.443792,-2.726 0.716062,-2.95197 0.263243,-0.21847 0.478624,-0.6044 0.478624,-0.85762 0,-0.25322 0.498505,-0.85054 1.107789,-1.32738 l 1.10779,-0.86698 -0.889165,-0.5826 c -0.567245,-0.37167 -1.053654,-1.18461 -1.343497,-2.2454 -0.249883,-0.91453 -0.903889,-2.18425 -1.453347,-2.8216 -0.549458,-0.63734 -0.999014,-1.48547 -0.999014,-1.88474 0,-0.42681 -0.918056,-1.62102 -2.227963,-2.89814 -13.02004,-12.69415 -19.065832,-18.43143 -19.650418,-18.64769 -0.384668,-0.14229 -0.699396,-0.48252 -0.699396,-0.75606 0,-0.27353 -0.238125,-0.69496 -0.529166,-0.93651 -0.546962,-0.45393 -0.747693,-2.46944 -0.24594,-2.46944 0.386233,0 5.64662,4.9763 15.358552,14.52912 4.474814,4.4015 8.265484,7.92271 8.42371,7.82493 0.158227,-0.0978 0.212055,-0.30018 0.119619,-0.44974 -0.09244,-0.14957 -0.33591,-1.76578 -0.541052,-3.5916 -0.205142,-1.82581 -0.540721,-3.87528 -0.745732,-4.55438 -0.533307,-1.76658 0.05138,-3.0716 1.681288,-3.75262 1.213565,-0.50706 1.3893,-0.49624 2.621345,0.16139 0.726317,0.38768 1.411981,0.61348 1.523697,0.50176 0.111717,-0.11172 0.203122,-15.71405 0.203122,-34.67185 v -34.46873 l -11.271516,-0.25991 c -6.199333,-0.14295 -12.708083,-0.14621 -14.463888,-0.007 l -3.192372,0.25267 v -1.09578 c 0,-0.93366 0.130493,-1.09579 0.881945,-1.09579 h 0.881944 v -11.0537 c 0,-6.07954 0.119062,-11.17269 0.264583,-11.31812 0.145521,-0.14543 0.274469,-0.88627 0.286552,-1.6463 0.01873,-1.178111 -0.08791,-1.381879 -0.723194,-1.381879 -1.113947,0 -1.591998,-0.683977 -1.590353,-2.275416 0.0017,-1.637682 1.30428,-4.451039 2.629467,-5.679182 0.562053,-0.520892 0.808778,-1.03661 0.66953,-1.399484 -0.122876,-0.32021 0.08155,-0.992882 0.461719,-1.5193 0.375223,-0.51957 0.883412,-1.633329 1.129309,-2.475019 0.245897,-0.841689 0.754029,-2.076831 1.129181,-2.744758 0.807755,-1.438141 0.855154,-1.898507 0.195466,-1.898507 -0.267645,0 -1.140952,-0.635 -1.940681,-1.411112 -1.204196,-1.168632 -1.696463,-1.411111 -2.864761,-1.411111 -1.249769,0 -1.410707,-0.09558 -1.410707,-0.837847 0,-0.650172 0.238928,-0.885633 1.06666,-1.051179 1.35661,-0.271322 1.684467,-1.124976 0.93416,-2.432309 -0.526262,-0.91696 -0.589709,-2.675489 -0.589709,-16.344754 0,-15.082059 -0.01083,-15.317244 -0.705555,-15.317244 -0.518121,0 -0.705556,-0.235185 -0.705556,-0.8853 v -0.885301 l 17.197916,0.09155 c 16.932213,0.09014 17.197915,0.102451 17.197915,0.797106 0,0.688515 -0.266259,0.707807 -11.024305,0.798775 l -11.024305,0.09322 v 4.926368 4.926369 l 1.763889,2.417531 c 0.970139,1.329641 1.763889,2.751429 1.763889,3.159528 0,1.414828 0.702854,2.586721 1.849839,3.0843 1.23392,0.535293 2.364176,1.61793 3.058747,2.92988 0.345645,0.652877 0.53251,0.733348 0.932357,0.401505 0.925151,-0.767808 1.626501,-0.12798 1.368312,1.248286 -0.219995,1.172673 -0.162804,1.270046 1.041483,1.773229 0.700844,0.292831 1.274261,0.701654 1.274261,0.908494 0,0.235455 0.401126,0.287972 1.072783,0.140451 0.655876,-0.144055 1.272813,-0.06961 1.5875,0.191555 0.560201,0.464925 0.708319,2.648937 0.200917,2.962529 -0.17259,0.106667 -0.410715,0.751036 -0.529167,1.431931 -0.118451,0.680896 -0.30992,1.774867 -0.425487,2.431047 -0.124722,0.708168 -0.05303,1.29014 0.176389,1.431931 0.605517,0.37423 0.453114,2.153485 -0.259876,3.033992 -0.619372,0.764892 -0.652916,2.264344 -0.05887,2.631486 0.147859,0.09138 0.850329,-0.228464 1.561044,-0.710769 1.482029,-1.005732 1.91083,-1.07952 2.181058,-0.375317 0.287226,0.748498 -0.454804,1.891498 -1.618675,2.493359 -1.293098,0.668688 -2.238805,0.673857 -3.504852,0.01916 -0.831366,-0.429917 -1.033057,-0.813297 -1.237112,-2.351542 -0.205456,-1.5488 -0.136774,-1.944912 0.436658,-2.518344 0.558695,-0.558695 0.627843,-0.914654 0.386415,-1.989175 -0.198884,-0.885165 -0.128589,-1.930447 0.217204,-3.229801 0.730832,-2.746187 0.682192,-3.155812 -0.37473,-3.155812 -1.056646,0 -2.633422,-0.950182 -2.633422,-1.586928 0,-0.246097 -0.3175,-0.530477 -0.705555,-0.631955 -0.388056,-0.101479 -0.705556,-0.426278 -0.705556,-0.721775 0,-0.549463 -3.853962,-4.820453 -4.349774,-4.820453 -0.150718,0 -0.820951,-0.436396 -1.489407,-0.969769 -0.978401,-0.780685 -1.258565,-1.295367 -1.436895,-2.639679 -0.121836,-0.918451 -0.439561,-1.850867 -0.706055,-2.072038 -0.266494,-0.22117 -0.484535,-0.60383 -0.484535,-0.850355 0,-0.246525 -0.238125,-0.539605 -0.529166,-0.651288 -0.291042,-0.111683 -0.529167,-0.429183 -0.529167,-0.705556 0,-0.276372 -0.238125,-0.593872 -0.529167,-0.705555 -0.440841,-0.169167 -0.529166,-1.176484 -0.529166,-6.034966 V 42.314128 H 40.490437 36.96266 v 15.275278 c 0,8.480777 0.140161,15.424349 0.315107,15.610416 0.173309,0.184327 0.496823,1.204435 0.718921,2.266907 0.402785,1.926847 1.487813,3.536288 2.38404,3.536288 0.536328,0 1.872592,2.019066 1.86781,2.822222 -0.0017,0.291042 -0.477389,1.464351 -1.057014,2.607353 -0.579626,1.143002 -1.053865,2.309133 -1.053865,2.591402 0,0.282269 -0.224032,0.934586 -0.497848,1.449592 -0.273817,0.515006 -0.688155,1.447974 -0.92075,2.073261 -0.232596,0.625287 -0.762626,1.507198 -1.177846,1.959802 -0.792851,0.864235 -1.989666,3.177216 -1.989666,3.845256 0,0.215389 0.589658,0.901336 1.310352,1.524327 l 1.310352,1.13271 -0.48,2.256068 c -0.321218,1.50976 -0.52463,5.72782 -0.614918,12.7512 l -0.134918,10.49514 h 26.640548 26.640548 l 0.09249,-13.14097 0.09249,-13.140974 h 0.881945 0.881944 l 0.09123,19.134844 0.09123,19.13484 17.194878,0.0915 c 16.92918,0.0901 17.19488,0.10245 17.19488,0.7971 0,0.6821 -0.26679,0.70871 -8.02569,0.80037 l -8.0257,0.0948 v 23.27671 23.27671 h 10.18736 c 8.58629,0 10.25579,0.0825 10.6228,0.52468 0.23949,0.28857 0.34329,0.76482 0.23066,1.05833 -0.1764,0.45969 -1.6488,0.53366 -10.6228,0.53366 h -10.41802 v 33.14833 33.14834 l 3.43958,0.10097 c 3.17075,0.0931 3.43959,0.15612 3.43959,0.80652 0,0.69244 -0.25251,0.70653 -13.58195,0.75754 l -13.581939,0.052 z m 24.870829,-32.2303 V 186.95278 H 86.704324 64.479325 v 4.42377 c 0,3.74243 -0.109774,4.63896 -0.712725,5.82084 -0.586624,1.14988 -0.896509,1.39705 -1.751477,1.39705 -0.687772,0 -1.17016,-0.24554 -1.427668,-0.72669 -0.535944,-1.00142 -2.335786,-0.83728 -2.165925,0.19753 0.488935,2.97861 0.800706,6.5009 0.87432,9.87778 0.05641,2.58756 0.206919,3.37081 0.813488,4.23333 0.409351,0.58208 0.928312,1.62619 1.153247,2.32025 0.224935,0.69405 0.88197,1.61162 1.460079,2.03903 1.553448,1.14852 1.385878,2.19731 -0.691888,4.33041 -1.698267,1.7435 -1.737888,1.83254 -1.54401,3.46953 0.126307,1.06646 0.05425,1.76955 -0.197284,1.92501 -0.217947,0.1347 -0.396267,0.56822 -0.396267,0.96338 0,0.39516 -0.291511,1.13985 -0.647801,1.65487 -0.765017,1.10584 -0.662004,3.93502 0.143276,3.93502 0.263835,0 0.644036,0.30706 0.84489,0.68236 0.888371,1.65994 -0.03258,4.60931 -1.439272,4.60931 -0.36574,0 -0.664982,0.23654 -0.664982,0.52565 0,0.5545 2.581588,1.84205 7.822086,3.90123 1.682772,0.66122 3.934788,1.60255 5.004478,2.09184 1.06969,0.48928 2.115968,0.88961 2.325061,0.88961 0.209093,0 0.655828,0.14023 0.992744,0.31162 1.069251,0.54393 2.295715,1.06767 5.375074,2.29535 1.649236,0.65752 5.062361,2.07279 7.584722,3.14504 l 4.58611,1.94956 8.554859,0.0298 8.55486,0.0298 z m 0,-58.34648 v -23.0687 l -0.93537,-0.23476 c -0.51445,-0.12912 -4.54383,-0.20475 -8.954165,-0.16806 -4.410338,0.0367 -8.196296,-0.043 -8.41324,-0.17708 -0.264049,-0.16319 -0.394444,-2.10284 -0.394444,-5.86741 v -5.62362 H 77.355713 64.479325 v 29.10416 29.10417 h 22.224999 22.224996 z"
         id="path1" /></g><g
       id="g13"><text
         xml:space="preserve"
         style="font-style:normal;font-variant:normal;font-weight:bold;font-stretch:normal;font-size:7.05556px;font-family:'Comic Sans MS';-inkscape-font-specification:'Comic Sans MS Bold';fill:#000000;stroke-width:0.264583"
         x="83.878265"
         y="67.868561"
         id="text8"><tspan
           id="tspan8"
           style="font-style:normal;font-variant:normal;font-weight:bold;font-stretch:normal;font-size:7.05556px;font-family:'Comic Sans MS';-inkscape-font-specification:'Comic Sans MS Bold';stroke-width:0.264583"
           x="83.878265"
           y="67.868561">Montana / Idaho</tspan></text><text
         xml:space="preserve"
         style="font-style:normal;font-variant:normal;font-weight:bold;font-stretch:normal;font-size:7.05556px;font-family:'Comic Sans MS';-inkscape-font-specification:'Comic Sans MS Bold';fill:#000000;stroke-width:0.264583"
         x="120.66441"
         y="220.16185"
         id="text9"><tspan
           style="stroke-width:0.264583"
           id="tspan9"
           x="120.66441"
           y="220.16185">New Mexico</tspan></text><text
         xml:space="preserve"
         style="font-style:normal;font-variant:normal;font-weight:bold;font-stretch:normal;font-size:7.05556px;font-family:'Comic Sans MS';-inkscape-font-specification:'Comic Sans MS Bold';fill:#000000;stroke-width:0.264583"
         x="112.51281"
         y="113.48402"
         id="text10"><tspan
           id="tspan10"
           style="stroke-width:0.264583"
           x="112.51281"
           y="113.48402">Wyoming</tspan></text><text
         xml:space="preserve"
         style="font-style:normal;font-variant:normal;font-weight:bold;font-stretch:normal;font-size:7.05556px;font-family:'Comic Sans MS';-inkscape-font-specification:'Comic Sans MS Bold';fill:#000000;stroke-width:0.264583"
         x="135.32054"
         y="164.59332"
         id="text11"><tspan
           id="tspan11"
           style="stroke-width:0.264583"
           x="135.32054"
           y="164.59332">Colorado</tspan></text><text
         xml:space="preserve"
         style="font-style:normal;font-variant:normal;font-weight:bold;font-stretch:normal;font-size:4.58611px;font-family:'Comic Sans MS';-inkscape-font-specification:'Comic Sans MS Bold';fill:#000000;stroke-width:0.264583"
         x="119.00551"
         y="253.49355"
         id="text12"><tspan
           id="tspan12"
           style="font-size:4.58611px;stroke-width:0.264583"
           x="119.00551"
           y="253.49355">Start</tspan></text><text
         xml:space="preserve"
         style="font-style:normal;font-variant:normal;font-weight:bold;font-stretch:normal;font-size:4.5861px;font-family:'Comic Sans MS';-inkscape-font-specification:'Comic Sans MS Bold';fill:#000000;stroke-width:0.264583"
         x="63.068291"
         y="39.56699"
         id="text13"><tspan
           id="tspan13"
           style="stroke-width:0.264583"
           x="63.068291"
           y="39.56699">Finish</tspan></text></g></g><image
     width="143.22777"
     height="227.18889"
     preserveAspectRatio="none"
     style="display:none;image-rendering:optimizeQuality"
     xlink:href="images/image7.png"
     id="image7"
     x="0.027884668"
     y="-6.7678222e-05" /></svg>
